SplineFontDB: 3.0
FontName: Lato-Regular
FullName: Lato Regular
FamilyName: Lato
Weight: Book
Copyright: Copyright (c) 2010-2011 by tyPoland Lukasz Dziedzic with Reserved Font Name "Lato". Licensed under the SIL Open Font License, Version 1.1.
Version: 1.104; Western+Polish opensource
ItalicAngle: 0
UnderlinePosition: -200
UnderlineWidth: 120
Ascent: 1610
Descent: 390
InvalidEm: 0
sfntRevision: 0x00011aa0
LayerCount: 2
Layer: 0 1 "Back" 1
Layer: 1 1 "Fore" 0
XUID: [1021 552 1581839669 11018094]
StyleMap: 0x0040
FSType: 0
OS2Version: 3
OS2_WeightWidthSlopeOnly: 0
OS2_UseTypoMetrics: 0
CreationTime: 1315810800
ModificationTime: 1518261136
PfmFamily: 17
TTFWeight: 400
TTFWidth: 5
LineGap: 0
VLineGap: 0
Panose: 2 15 5 2 2 2 4 3 2 3
OS2TypoAscent: 1610
OS2TypoAOffset: 0
OS2TypoDescent: -390
OS2TypoDOffset: 0
OS2TypoLinegap: 400
OS2WinAscent: 1974
OS2WinAOffset: 0
OS2WinDescent: 426
OS2WinDOffset: 0
HheadAscent: 1974
HheadAOffset: 0
HheadDescent: -426
HheadDOffset: 0
OS2SubXSize: 1400
OS2SubYSize: 1300
OS2SubXOff: 0
OS2SubYOff: 280
OS2SupXSize: 1400
OS2SupYSize: 1300
OS2SupXOff: 0
OS2SupYOff: 954
OS2StrikeYSize: 120
OS2StrikeYPos: 500
OS2CapHeight: 1433
OS2XHeight: 1013
OS2FamilyClass: 2051
OS2Vendor: 'tyPL'
OS2CodePages: 20000093.00000000
OS2UnicodeRanges: a00000af.5000604b.00000000.00000000
Lookup: 1 0 0 "'case' Case-Sensitive Forms in Latin lookup 0" { "'case' Case-Sensitive Forms in Latin lookup 0 subtable"  } ['case' ('DFLT' <'dflt' > 'latn' <'dflt' > ) ]
Lookup: 4 0 1 "'liga' Standard Ligatures in Latin lookup 1" { "'liga' Standard Ligatures in Latin lookup 1 subtable"  } ['liga' ('DFLT' <'dflt' > 'latn' <'dflt' > ) ]
Lookup: 1 0 0 "'sups' Superscript in Latin lookup 2" { "'sups' Superscript in Latin lookup 2 subtable" ("superior") } ['sups' ('DFLT' <'dflt' > 'latn' <'dflt' > ) ]
Lookup: 258 0 0 "'kern' Horizontal Kerning in Latin lookup 0" { "'kern' Horizontal Kerning in Latin lookup 0 subtable"  } ['kern' ('DFLT' <'dflt' > 'latn' <'dflt' > ) ]

StartChar: exclam
Encoding: 33 33 0
Width: 686
Flags: W
LayerCount: 2
Fore
SplineSet
430 1433 m 1,0,-1
 430 861 l 2,1,2
 430 816 430 816 428.5 773 c 128,-1,3
 427 730 427 730 424 686.5 c 128,-1,4
 421 643 421 643 416.5 597.5 c 128,-1,5
 412 552 412 552 406 500 c 1,6,-1
 285 500 l 1,7,8
 279 552 279 552 274.5 597.5 c 128,-1,9
 270 643 270 643 267 686.5 c 128,-1,10
 264 730 264 730 262.5 773 c 128,-1,11
 261 816 261 816 261 861 c 2,12,-1
 261 1433 l 1,13,-1
 430 1433 l 1,0,-1
218 110 m 0,14,15
 218 136 218 136 227.5 159 c 128,-1,16
 237 182 237 182 253.5 199 c 128,-1,17
 270 216 270 216 293 226 c 128,-1,18
 316 236 316 236 342 236 c 256,19,20
 368 236 368 236 391 226 c 128,-1,21
 414 216 414 216 431 199 c 128,-1,22
 448 182 448 182 457.5 159 c 128,-1,23
 467 136 467 136 467 110 c 0,24,25
 467 83 467 83 457.5 60.5 c 128,-1,26
 448 38 448 38 431 21 c 128,-1,27
 414 4 414 4 391 -5.5 c 128,-1,28
 368 -15 368 -15 342 -15 c 256,29,30
 316 -15 316 -15 293 -5.5 c 128,-1,31
 270 4 270 4 253.5 21 c 128,-1,32
 237 38 237 38 227.5 60.5 c 128,-1,33
 218 83 218 83 218 110 c 0,14,15
430 1433 m 1,34,-1
 430 861 l 2,35,36
 430 816 430 816 428.5 773 c 128,-1,37
 427 730 427 730 424 686.5 c 128,-1,38
 421 643 421 643 416.5 597.5 c 128,-1,39
 412 552 412 552 406 500 c 1,40,-1
 285 500 l 1,41,42
 279 552 279 552 274.5 597.5 c 128,-1,43
 270 643 270 643 267 686.5 c 128,-1,44
 264 730 264 730 262.5 773 c 128,-1,45
 261 816 261 816 261 861 c 2,46,-1
 261 1433 l 1,47,-1
 430 1433 l 1,34,-1
218 110 m 0,48,49
 218 136 218 136 227.5 159 c 128,-1,50
 237 182 237 182 253.5 199 c 128,-1,51
 270 216 270 216 293 226 c 128,-1,52
 316 236 316 236 342 236 c 256,53,54
 368 236 368 236 391 226 c 128,-1,55
 414 216 414 216 431 199 c 128,-1,56
 448 182 448 182 457.5 159 c 128,-1,57
 467 136 467 136 467 110 c 0,58,59
 467 83 467 83 457.5 60.5 c 128,-1,60
 448 38 448 38 431 21 c 128,-1,61
 414 4 414 4 391 -5.5 c 128,-1,62
 368 -15 368 -15 342 -15 c 256,63,64
 316 -15 316 -15 293 -5.5 c 128,-1,65
 270 4 270 4 253.5 21 c 128,-1,66
 237 38 237 38 227.5 60.5 c 128,-1,67
 218 83 218 83 218 110 c 0,48,49
EndSplineSet
Validated: 5
EndChar

StartChar: quotedbl
Encoding: 34 34 1
Width: 794
Flags: W
LayerCount: 2
Fore
SplineSet
307 1433 m 1,0,-1
 307 1143 l 1,1,-1
 291 988 l 2,2,3
 288 956 288 956 274 938.5 c 128,-1,4
 260 921 260 921 229 921 c 0,5,6
 203 921 203 921 188.5 938.5 c 128,-1,7
 174 956 174 956 168 988 c 2,8,-1
 152 1143 l 1,9,-1
 152 1433 l 1,10,-1
 307 1433 l 1,0,-1
640 1433 m 1,11,-1
 640 1143 l 1,12,-1
 624 988 l 2,13,14
 621 956 621 956 607 938.5 c 128,-1,15
 593 921 593 921 562 921 c 0,16,17
 536 921 536 921 521.5 938.5 c 128,-1,18
 507 956 507 956 501 988 c 2,19,-1
 485 1143 l 1,20,-1
 485 1433 l 1,21,-1
 640 1433 l 1,11,-1
307 1433 m 1,22,-1
 307 1143 l 1,23,-1
 291 988 l 2,24,25
 288 956 288 956 274 938.5 c 128,-1,26
 260 921 260 921 229 921 c 0,27,28
 203 921 203 921 188.5 938.5 c 128,-1,29
 174 956 174 956 168 988 c 2,30,-1
 152 1143 l 1,31,-1
 152 1433 l 1,32,-1
 307 1433 l 1,22,-1
640 1433 m 1,33,-1
 640 1143 l 1,34,-1
 624 988 l 2,35,36
 621 956 621 956 607 938.5 c 128,-1,37
 593 921 593 921 562 921 c 0,38,39
 536 921 536 921 521.5 938.5 c 128,-1,40
 507 956 507 956 501 988 c 2,41,-1
 485 1143 l 1,42,-1
 485 1433 l 1,43,-1
 640 1433 l 1,33,-1
EndSplineSet
Validated: 5
EndChar

StartChar: numbersign
Encoding: 35 35 2
Width: 1160
Flags: W
LayerCount: 2
Fore
SplineSet
790 423 m 1,0,-1
 706 0 l 1,1,-1
 625 0 l 2,2,3
 602 0 602 0 586 17 c 128,-1,4
 570 34 570 34 570 61 c 0,5,6
 570 65 570 65 570.5 68.5 c 128,-1,7
 571 72 571 72 572 77 c 2,8,-1
 643 423 l 1,9,-1
 396 423 l 1,10,-1
 325 68 l 2,11,12
 317 31 317 31 294.5 15.5 c 128,-1,13
 272 0 272 0 243 0 c 2,14,-1
 164 0 l 1,15,-1
 249 423 l 1,16,-1
 103 423 l 2,17,18
 80 423 80 423 67 434.5 c 128,-1,19
 54 446 54 446 54 474 c 0,20,21
 54 479 54 479 54.5 485 c 128,-1,22
 55 491 55 491 56 497 c 2,23,-1
 64 554 l 1,24,-1
 268 554 l 1,25,-1
 333 880 l 1,26,-1
 101 880 l 1,27,-1
 114 954 l 2,28,29
 119 983 119 983 137 997 c 128,-1,30
 155 1011 155 1011 194 1011 c 2,31,-1
 352 1011 l 1,32,-1
 424 1369 l 2,33,34
 430 1399 430 1399 451.5 1416 c 128,-1,35
 473 1433 473 1433 503 1433 c 2,36,-1
 583 1433 l 1,37,-1
 499 1011 l 1,38,-1
 746 1011 l 1,39,-1
 830 1433 l 1,40,-1
 909 1433 l 2,41,42
 934 1433 934 1433 950.5 1418 c 128,-1,43
 967 1403 967 1403 967 1379 c 0,44,45
 967 1371 967 1371 966 1366 c 2,46,-1
 893 1011 l 1,47,-1
 1105 1011 l 1,48,-1
 1092 936 l 2,49,50
 1087 907 1087 907 1068.5 893.5 c 128,-1,51
 1050 880 1050 880 1012 880 c 2,52,-1
 874 880 l 1,53,-1
 809 554 l 1,54,-1
 988 554 l 2,55,56
 1012 554 1012 554 1025 542.5 c 128,-1,57
 1038 531 1038 531 1038 502 c 0,58,59
 1038 497 1038 497 1037.5 491.5 c 128,-1,60
 1037 486 1037 486 1036 480 c 2,61,-1
 1027 423 l 1,62,-1
 790 423 l 1,0,-1
415 554 m 1,63,-1
 662 554 l 1,64,-1
 727 880 l 1,65,-1
 480 880 l 1,66,-1
 415 554 l 1,63,-1
790 423 m 1,67,-1
 706 0 l 1,68,-1
 625 0 l 2,69,70
 602 0 602 0 586 17 c 128,-1,71
 570 34 570 34 570 61 c 0,72,73
 570 65 570 65 570.5 68.5 c 128,-1,74
 571 72 571 72 572 77 c 2,75,-1
 643 423 l 1,76,-1
 396 423 l 1,77,-1
 325 68 l 2,78,79
 317 31 317 31 294.5 15.5 c 128,-1,80
 272 0 272 0 243 0 c 2,81,-1
 164 0 l 1,82,-1
 249 423 l 1,83,-1
 103 423 l 2,84,85
 80 423 80 423 67 434.5 c 128,-1,86
 54 446 54 446 54 474 c 0,87,88
 54 479 54 479 54.5 485 c 128,-1,89
 55 491 55 491 56 497 c 2,90,-1
 64 554 l 1,91,-1
 268 554 l 1,92,-1
 333 880 l 1,93,-1
 101 880 l 1,94,-1
 114 954 l 2,95,96
 119 983 119 983 137 997 c 128,-1,97
 155 1011 155 1011 194 1011 c 2,98,-1
 352 1011 l 1,99,-1
 424 1369 l 2,100,101
 430 1399 430 1399 451.5 1416 c 128,-1,102
 473 1433 473 1433 503 1433 c 2,103,-1
 583 1433 l 1,104,-1
 499 1011 l 1,105,-1
 746 1011 l 1,106,-1
 830 1433 l 1,107,-1
 909 1433 l 2,108,109
 934 1433 934 1433 950.5 1418 c 128,-1,110
 967 1403 967 1403 967 1379 c 0,111,112
 967 1371 967 1371 966 1366 c 2,113,-1
 893 1011 l 1,114,-1
 1105 1011 l 1,115,-1
 1092 936 l 2,116,117
 1087 907 1087 907 1068.5 893.5 c 128,-1,118
 1050 880 1050 880 1012 880 c 2,119,-1
 874 880 l 1,120,-1
 809 554 l 1,121,-1
 988 554 l 2,122,123
 1012 554 1012 554 1025 542.5 c 128,-1,124
 1038 531 1038 531 1038 502 c 0,125,126
 1038 497 1038 497 1037.5 491.5 c 128,-1,127
 1037 486 1037 486 1036 480 c 2,128,-1
 1027 423 l 1,129,-1
 790 423 l 1,67,-1
415 554 m 1,130,-1
 662 554 l 1,131,-1
 727 880 l 1,132,-1
 480 880 l 1,133,-1
 415 554 l 1,130,-1
EndSplineSet
Validated: 5
EndChar

StartChar: dollar
Encoding: 36 36 3
Width: 1160
Flags: W
LayerCount: 2
Fore
SplineSet
498 -12 m 1,0,1
 377 -1 377 -1 277.5 47.5 c 128,-1,2
 178 96 178 96 106 171 c 1,3,-1
 159 253 l 2,4,5
 166 264 166 264 179 271 c 128,-1,6
 192 278 192 278 206 278 c 0,7,8
 225 278 225 278 249 259 c 128,-1,9
 273 240 273 240 308 215.5 c 128,-1,10
 343 191 343 191 391.5 168 c 128,-1,11
 440 145 440 145 508 137 c 1,12,-1
 545 668 l 1,13,14
 475 689 475 689 407.5 715.5 c 128,-1,15
 340 742 340 742 286.5 784.5 c 128,-1,16
 233 827 233 827 200.5 891.5 c 128,-1,17
 168 956 168 956 168 1053 c 0,18,19
 168 1126 168 1126 196.5 1195.5 c 128,-1,20
 225 1265 225 1265 279.5 1319 c 128,-1,21
 334 1373 334 1373 414 1407.5 c 128,-1,22
 494 1442 494 1442 598 1446 c 1,23,-1
 608 1590 l 2,24,25
 610 1609 610 1609 623 1624 c 128,-1,26
 636 1639 636 1639 658 1639 c 2,27,-1
 724 1639 l 1,28,-1
 710 1441 l 1,29,30
 815 1428 815 1428 891 1387 c 128,-1,31
 967 1346 967 1346 1027 1288 c 1,32,-1
 984 1222 l 2,33,34
 964 1192 964 1192 938 1192 c 0,35,36
 924 1192 924 1192 903.5 1204.5 c 128,-1,37
 883 1217 883 1217 854 1233.5 c 128,-1,38
 825 1250 825 1250 787 1266.5 c 128,-1,39
 749 1283 749 1283 700 1290 c 1,40,-1
 667 806 l 1,41,42
 739 784 739 784 809 758 c 128,-1,43
 879 732 879 732 935 691 c 128,-1,44
 991 650 991 650 1025.5 588.5 c 128,-1,45
 1060 527 1060 527 1060 435 c 0,46,47
 1060 345 1060 345 1030 266 c 128,-1,48
 1000 187 1000 187 942.5 127 c 128,-1,49
 885 67 885 67 801.5 29.5 c 128,-1,50
 718 -8 718 -8 611 -14 c 1,51,-1
 599 -190 l 2,52,53
 597 -209 597 -209 583.5 -223.5 c 128,-1,54
 570 -238 570 -238 549 -238 c 2,55,-1
 483 -238 l 1,56,-1
 498 -12 l 1,0,1
891 407 m 0,57,58
 891 457 891 457 872.5 493 c 128,-1,59
 854 529 854 529 822 555 c 128,-1,60
 790 581 790 581 747 600 c 128,-1,61
 704 619 704 619 655 635 c 1,62,-1
 621 137 l 1,63,64
 686 143 686 143 736.5 165.5 c 128,-1,65
 787 188 787 188 821.5 223 c 128,-1,66
 856 258 856 258 873.5 304.5 c 128,-1,67
 891 351 891 351 891 407 c 0,57,58
336 1071 m 0,68,69
 336 1023 336 1023 353 987.5 c 128,-1,70
 370 952 370 952 400 925 c 128,-1,71
 430 898 430 898 470 878 c 128,-1,72
 510 858 510 858 557 842 c 1,73,-1
 587 1293 l 1,74,75
 522 1287 522 1287 474.5 1267 c 128,-1,76
 427 1247 427 1247 396.5 1217 c 128,-1,77
 366 1187 366 1187 351 1149.5 c 128,-1,78
 336 1112 336 1112 336 1071 c 0,68,69
498 -12 m 1,79,80
 377 -1 377 -1 277.5 47.5 c 128,-1,81
 178 96 178 96 106 171 c 1,82,-1
 159 253 l 2,83,84
 166 264 166 264 179 271 c 128,-1,85
 192 278 192 278 206 278 c 0,86,87
 225 278 225 278 249 259 c 128,-1,88
 273 240 273 240 308 215.5 c 128,-1,89
 343 191 343 191 391.5 168 c 128,-1,90
 440 145 440 145 508 137 c 1,91,-1
 545 668 l 1,92,93
 475 689 475 689 407.5 715.5 c 128,-1,94
 340 742 340 742 286.5 784.5 c 128,-1,95
 233 827 233 827 200.5 891.5 c 128,-1,96
 168 956 168 956 168 1053 c 0,97,98
 168 1126 168 1126 196.5 1195.5 c 128,-1,99
 225 1265 225 1265 279.5 1319 c 128,-1,100
 334 1373 334 1373 414 1407.5 c 128,-1,101
 494 1442 494 1442 598 1446 c 1,102,-1
 608 1590 l 2,103,104
 610 1609 610 1609 623 1624 c 128,-1,105
 636 1639 636 1639 658 1639 c 2,106,-1
 724 1639 l 1,107,-1
 710 1441 l 1,108,109
 815 1428 815 1428 891 1387 c 128,-1,110
 967 1346 967 1346 1027 1288 c 1,111,-1
 984 1222 l 2,112,113
 964 1192 964 1192 938 1192 c 0,114,115
 924 1192 924 1192 903.5 1204.5 c 128,-1,116
 883 1217 883 1217 854 1233.5 c 128,-1,117
 825 1250 825 1250 787 1266.5 c 128,-1,118
 749 1283 749 1283 700 1290 c 1,119,-1
 667 806 l 1,120,121
 739 784 739 784 809 758 c 128,-1,122
 879 732 879 732 935 691 c 128,-1,123
 991 650 991 650 1025.5 588.5 c 128,-1,124
 1060 527 1060 527 1060 435 c 0,125,126
 1060 345 1060 345 1030 266 c 128,-1,127
 1000 187 1000 187 942.5 127 c 128,-1,128
 885 67 885 67 801.5 29.5 c 128,-1,129
 718 -8 718 -8 611 -14 c 1,130,-1
 599 -190 l 2,131,132
 597 -209 597 -209 583.5 -223.5 c 128,-1,133
 570 -238 570 -238 549 -238 c 2,134,-1
 483 -238 l 1,135,-1
 498 -12 l 1,79,80
891 407 m 0,136,137
 891 457 891 457 872.5 493 c 128,-1,138
 854 529 854 529 822 555 c 128,-1,139
 790 581 790 581 747 600 c 128,-1,140
 704 619 704 619 655 635 c 1,141,-1
 621 137 l 1,142,143
 686 143 686 143 736.5 165.5 c 128,-1,144
 787 188 787 188 821.5 223 c 128,-1,145
 856 258 856 258 873.5 304.5 c 128,-1,146
 891 351 891 351 891 407 c 0,136,137
336 1071 m 0,147,148
 336 1023 336 1023 353 987.5 c 128,-1,149
 370 952 370 952 400 925 c 128,-1,150
 430 898 430 898 470 878 c 128,-1,151
 510 858 510 858 557 842 c 1,152,-1
 587 1293 l 1,153,154
 522 1287 522 1287 474.5 1267 c 128,-1,155
 427 1247 427 1247 396.5 1217 c 128,-1,156
 366 1187 366 1187 351 1149.5 c 128,-1,157
 336 1112 336 1112 336 1071 c 0,147,148
EndSplineSet
Validated: 5
EndChar

StartChar: percent
Encoding: 37 37 4
Width: 1572
Flags: W
LayerCount: 2
Fore
SplineSet
707 1087 m 0,0,1
 707 1003 707 1003 681 936.5 c 128,-1,2
 655 870 655 870 611.5 824.5 c 128,-1,3
 568 779 568 779 510 755 c 128,-1,4
 452 731 452 731 389 731 c 0,5,6
 321 731 321 731 263.5 755 c 128,-1,7
 206 779 206 779 163 824.5 c 128,-1,8
 120 870 120 870 96 936.5 c 128,-1,9
 72 1003 72 1003 72 1087 c 0,10,11
 72 1173 72 1173 96 1240 c 128,-1,12
 120 1307 120 1307 163 1353 c 128,-1,13
 206 1399 206 1399 263.5 1423 c 128,-1,14
 321 1447 321 1447 389 1447 c 0,15,16
 456 1447 456 1447 514.5 1423 c 128,-1,17
 573 1399 573 1399 615.5 1353 c 128,-1,18
 658 1307 658 1307 682.5 1240 c 128,-1,19
 707 1173 707 1173 707 1087 c 0,0,1
568 1087 m 0,20,21
 568 1153 568 1153 554 1199 c 128,-1,22
 540 1245 540 1245 515.5 1274.5 c 128,-1,23
 491 1304 491 1304 458.5 1317 c 128,-1,24
 426 1330 426 1330 389 1330 c 256,25,26
 352 1330 352 1330 319.5 1317 c 128,-1,27
 287 1304 287 1304 263 1274.5 c 128,-1,28
 239 1245 239 1245 225.5 1199 c 128,-1,29
 212 1153 212 1153 212 1087 c 0,30,31
 212 1022 212 1022 225.5 976.5 c 128,-1,32
 239 931 239 931 263 902.5 c 128,-1,33
 287 874 287 874 319.5 861.5 c 128,-1,34
 352 849 352 849 389 849 c 256,35,36
 426 849 426 849 458.5 861.5 c 128,-1,37
 491 874 491 874 515.5 902.5 c 128,-1,38
 540 931 540 931 554 976.5 c 128,-1,39
 568 1022 568 1022 568 1087 c 0,20,21
1208 1397 m 2,40,41
 1221 1414 1221 1414 1235.5 1423.5 c 128,-1,42
 1250 1433 1250 1433 1274 1433 c 2,43,-1
 1402 1433 l 1,44,-1
 355 29 l 2,45,46
 345 16 345 16 331 8 c 128,-1,47
 317 0 317 0 298 0 c 2,48,-1
 166 0 l 1,49,-1
 1208 1397 l 2,40,41
1499 338 m 0,50,51
 1499 254 1499 254 1473 188 c 128,-1,52
 1447 122 1447 122 1403.5 76.5 c 128,-1,53
 1360 31 1360 31 1302.5 7 c 128,-1,54
 1245 -17 1245 -17 1182 -17 c 0,55,56
 1114 -17 1114 -17 1056.5 7 c 128,-1,57
 999 31 999 31 956 76.5 c 128,-1,58
 913 122 913 122 889 188 c 128,-1,59
 865 254 865 254 865 338 c 0,60,61
 865 424 865 424 889 491.5 c 128,-1,62
 913 559 913 559 956 605 c 128,-1,63
 999 651 999 651 1056.5 675 c 128,-1,64
 1114 699 1114 699 1182 699 c 0,65,66
 1249 699 1249 699 1307 675 c 128,-1,67
 1365 651 1365 651 1408 605 c 128,-1,68
 1451 559 1451 559 1475 491.5 c 128,-1,69
 1499 424 1499 424 1499 338 c 0,50,51
1361 338 m 0,70,71
 1361 404 1361 404 1347 450.5 c 128,-1,72
 1333 497 1333 497 1308.5 526 c 128,-1,73
 1284 555 1284 555 1251.5 568 c 128,-1,74
 1219 581 1219 581 1182 581 c 256,75,76
 1145 581 1145 581 1112.5 568 c 128,-1,77
 1080 555 1080 555 1056 526 c 128,-1,78
 1032 497 1032 497 1018.5 450.5 c 128,-1,79
 1005 404 1005 404 1005 338 c 0,80,81
 1005 273 1005 273 1018.5 228 c 128,-1,82
 1032 183 1032 183 1056 154.5 c 128,-1,83
 1080 126 1080 126 1112.5 113.5 c 128,-1,84
 1145 101 1145 101 1182 101 c 256,85,86
 1219 101 1219 101 1251.5 113.5 c 128,-1,87
 1284 126 1284 126 1308.5 154.5 c 128,-1,88
 1333 183 1333 183 1347 228 c 128,-1,89
 1361 273 1361 273 1361 338 c 0,70,71
707 1087 m 0,90,91
 707 1003 707 1003 681 936.5 c 128,-1,92
 655 870 655 870 611.5 824.5 c 128,-1,93
 568 779 568 779 510 755 c 128,-1,94
 452 731 452 731 389 731 c 0,95,96
 321 731 321 731 263.5 755 c 128,-1,97
 206 779 206 779 163 824.5 c 128,-1,98
 120 870 120 870 96 936.5 c 128,-1,99
 72 1003 72 1003 72 1087 c 0,100,101
 72 1173 72 1173 96 1240 c 128,-1,102
 120 1307 120 1307 163 1353 c 128,-1,103
 206 1399 206 1399 263.5 1423 c 128,-1,104
 321 1447 321 1447 389 1447 c 0,105,106
 456 1447 456 1447 514.5 1423 c 128,-1,107
 573 1399 573 1399 615.5 1353 c 128,-1,108
 658 1307 658 1307 682.5 1240 c 128,-1,109
 707 1173 707 1173 707 1087 c 0,90,91
568 1087 m 0,110,111
 568 1153 568 1153 554 1199 c 128,-1,112
 540 1245 540 1245 515.5 1274.5 c 128,-1,113
 491 1304 491 1304 458.5 1317 c 128,-1,114
 426 1330 426 1330 389 1330 c 256,115,116
 352 1330 352 1330 319.5 1317 c 128,-1,117
 287 1304 287 1304 263 1274.5 c 128,-1,118
 239 1245 239 1245 225.5 1199 c 128,-1,119
 212 1153 212 1153 212 1087 c 0,120,121
 212 1022 212 1022 225.5 976.5 c 128,-1,122
 239 931 239 931 263 902.5 c 128,-1,123
 287 874 287 874 319.5 861.5 c 128,-1,124
 352 849 352 849 389 849 c 256,125,126
 426 849 426 849 458.5 861.5 c 128,-1,127
 491 874 491 874 515.5 902.5 c 128,-1,128
 540 931 540 931 554 976.5 c 128,-1,129
 568 1022 568 1022 568 1087 c 0,110,111
1208 1397 m 2,130,131
 1221 1414 1221 1414 1235.5 1423.5 c 128,-1,132
 1250 1433 1250 1433 1274 1433 c 2,133,-1
 1402 1433 l 1,134,-1
 355 29 l 2,135,136
 345 16 345 16 331 8 c 128,-1,137
 317 0 317 0 298 0 c 2,138,-1
 166 0 l 1,139,-1
 1208 1397 l 2,130,131
1499 338 m 0,140,141
 1499 254 1499 254 1473 188 c 128,-1,142
 1447 122 1447 122 1403.5 76.5 c 128,-1,143
 1360 31 1360 31 1302.5 7 c 128,-1,144
 1245 -17 1245 -17 1182 -17 c 0,145,146
 1114 -17 1114 -17 1056.5 7 c 128,-1,147
 999 31 999 31 956 76.5 c 128,-1,148
 913 122 913 122 889 188 c 128,-1,149
 865 254 865 254 865 338 c 0,150,151
 865 424 865 424 889 491.5 c 128,-1,152
 913 559 913 559 956 605 c 128,-1,153
 999 651 999 651 1056.5 675 c 128,-1,154
 1114 699 1114 699 1182 699 c 0,155,156
 1249 699 1249 699 1307 675 c 128,-1,157
 1365 651 1365 651 1408 605 c 128,-1,158
 1451 559 1451 559 1475 491.5 c 128,-1,159
 1499 424 1499 424 1499 338 c 0,140,141
1361 338 m 0,160,161
 1361 404 1361 404 1347 450.5 c 128,-1,162
 1333 497 1333 497 1308.5 526 c 128,-1,163
 1284 555 1284 555 1251.5 568 c 128,-1,164
 1219 581 1219 581 1182 581 c 256,165,166
 1145 581 1145 581 1112.5 568 c 128,-1,167
 1080 555 1080 555 1056 526 c 128,-1,168
 1032 497 1032 497 1018.5 450.5 c 128,-1,169
 1005 404 1005 404 1005 338 c 0,170,171
 1005 273 1005 273 1018.5 228 c 128,-1,172
 1032 183 1032 183 1056 154.5 c 128,-1,173
 1080 126 1080 126 1112.5 113.5 c 128,-1,174
 1145 101 1145 101 1182 101 c 256,175,176
 1219 101 1219 101 1251.5 113.5 c 128,-1,177
 1284 126 1284 126 1308.5 154.5 c 128,-1,178
 1333 183 1333 183 1347 228 c 128,-1,179
 1361 273 1361 273 1361 338 c 0,160,161
EndSplineSet
Validated: 3077
EndChar

StartChar: ampersand
Encoding: 38 38 5
Width: 1406
Flags: W
LayerCount: 2
Fore
SplineSet
660 1449 m 0,0,1
 739 1449 739 1449 804 1423.5 c 128,-1,2
 869 1398 869 1398 916.5 1356 c 128,-1,3
 964 1314 964 1314 991.5 1258.5 c 128,-1,4
 1019 1203 1019 1203 1023 1143 c 1,5,-1
 912 1121 l 2,6,7
 907 1120 907 1120 903 1120 c 0,8,9
 890 1120 890 1120 878.5 1127 c 128,-1,10
 867 1134 867 1134 862 1152 c 0,11,12
 855 1178 855 1178 839.5 1206 c 128,-1,13
 824 1234 824 1234 799.5 1257 c 128,-1,14
 775 1280 775 1280 740.5 1295 c 128,-1,15
 706 1310 706 1310 660 1310 c 0,16,17
 610 1310 610 1310 570 1294 c 128,-1,18
 530 1278 530 1278 501.5 1249.5 c 128,-1,19
 473 1221 473 1221 457.5 1182.5 c 128,-1,20
 442 1144 442 1144 442 1099 c 0,21,22
 442 1064 442 1064 450.5 1032 c 128,-1,23
 459 1000 459 1000 476 967.5 c 128,-1,24
 493 935 493 935 520 900.5 c 128,-1,25
 547 866 547 866 585 828 c 2,26,-1
 997 409 l 1,27,28
 1035 476 1035 476 1057.5 549.5 c 128,-1,29
 1080 623 1080 623 1088 697 c 0,30,31
 1090 716 1090 716 1100 727 c 128,-1,32
 1110 738 1110 738 1128 738 c 2,33,-1
 1238 738 l 1,34,35
 1236 623 1236 623 1201 512 c 128,-1,36
 1166 401 1166 401 1100 304 c 1,37,-1
 1400 0 l 1,38,-1
 1228 0 l 2,39,40
 1199 0 1199 0 1181 7 c 128,-1,41
 1163 14 1163 14 1141 36 c 2,42,-1
 997 181 l 1,43,44
 903 90 903 90 780.5 37 c 128,-1,45
 658 -16 658 -16 511 -16 c 0,46,47
 431 -16 431 -16 354 11 c 128,-1,48
 277 38 277 38 216.5 89.5 c 128,-1,49
 156 141 156 141 119 215 c 128,-1,50
 82 289 82 289 82 382 c 0,51,52
 82 452 82 452 105.5 514.5 c 128,-1,53
 129 577 129 577 170.5 630 c 128,-1,54
 212 683 212 683 269 725 c 128,-1,55
 326 767 326 767 394 797 c 1,56,57
 333 874 333 874 304 947 c 128,-1,58
 275 1020 275 1020 275 1098 c 0,59,60
 275 1171 275 1171 301.5 1235 c 128,-1,61
 328 1299 328 1299 378 1346.5 c 128,-1,62
 428 1394 428 1394 499.5 1421.5 c 128,-1,63
 571 1449 571 1449 660 1449 c 0,0,1
263 396 m 0,64,65
 263 331 263 331 287 281.5 c 128,-1,66
 311 232 311 232 350 198 c 128,-1,67
 389 164 389 164 439 146.5 c 128,-1,68
 489 129 489 129 541 129 c 0,69,70
 653 129 653 129 742 170 c 128,-1,71
 831 211 831 211 899 279 c 1,72,-1
 476 706 l 1,73,74
 370 649 370 649 316.5 569.5 c 128,-1,75
 263 490 263 490 263 396 c 0,64,65
660 1449 m 0,76,77
 739 1449 739 1449 804 1423.5 c 128,-1,78
 869 1398 869 1398 916.5 1356 c 128,-1,79
 964 1314 964 1314 991.5 1258.5 c 128,-1,80
 1019 1203 1019 1203 1023 1143 c 1,81,-1
 912 1121 l 2,82,83
 907 1120 907 1120 903 1120 c 0,84,85
 890 1120 890 1120 878.5 1127 c 128,-1,86
 867 1134 867 1134 862 1152 c 0,87,88
 855 1178 855 1178 839.5 1206 c 128,-1,89
 824 1234 824 1234 799.5 1257 c 128,-1,90
 775 1280 775 1280 740.5 1295 c 128,-1,91
 706 1310 706 1310 660 1310 c 0,92,93
 610 1310 610 1310 570 1294 c 128,-1,94
 530 1278 530 1278 501.5 1249.5 c 128,-1,95
 473 1221 473 1221 457.5 1182.5 c 128,-1,96
 442 1144 442 1144 442 1099 c 0,97,98
 442 1064 442 1064 450.5 1032 c 128,-1,99
 459 1000 459 1000 476 967.5 c 128,-1,100
 493 935 493 935 520 900.5 c 128,-1,101
 547 866 547 866 585 828 c 2,102,-1
 997 409 l 1,103,104
 1035 476 1035 476 1057.5 549.5 c 128,-1,105
 1080 623 1080 623 1088 697 c 0,106,107
 1090 716 1090 716 1100 727 c 128,-1,108
 1110 738 1110 738 1128 738 c 2,109,-1
 1238 738 l 1,110,111
 1236 623 1236 623 1201 512 c 128,-1,112
 1166 401 1166 401 1100 304 c 1,113,-1
 1400 0 l 1,114,-1
 1228 0 l 2,115,116
 1199 0 1199 0 1181 7 c 128,-1,117
 1163 14 1163 14 1141 36 c 2,118,-1
 997 181 l 1,119,120
 903 90 903 90 780.5 37 c 128,-1,121
 658 -16 658 -16 511 -16 c 0,122,123
 431 -16 431 -16 354 11 c 128,-1,124
 277 38 277 38 216.5 89.5 c 128,-1,125
 156 141 156 141 119 215 c 128,-1,126
 82 289 82 289 82 382 c 0,127,128
 82 452 82 452 105.5 514.5 c 128,-1,129
 129 577 129 577 170.5 630 c 128,-1,130
 212 683 212 683 269 725 c 128,-1,131
 326 767 326 767 394 797 c 1,132,133
 333 874 333 874 304 947 c 128,-1,134
 275 1020 275 1020 275 1098 c 0,135,136
 275 1171 275 1171 301.5 1235 c 128,-1,137
 328 1299 328 1299 378 1346.5 c 128,-1,138
 428 1394 428 1394 499.5 1421.5 c 128,-1,139
 571 1449 571 1449 660 1449 c 0,76,77
263 396 m 0,140,141
 263 331 263 331 287 281.5 c 128,-1,142
 311 232 311 232 350 198 c 128,-1,143
 389 164 389 164 439 146.5 c 128,-1,144
 489 129 489 129 541 129 c 0,145,146
 653 129 653 129 742 170 c 128,-1,147
 831 211 831 211 899 279 c 1,148,-1
 476 706 l 1,149,150
 370 649 370 649 316.5 569.5 c 128,-1,151
 263 490 263 490 263 396 c 0,140,141
EndSplineSet
Validated: 5
EndChar

StartChar: quotesingle
Encoding: 39 39 6
Width: 460
Flags: W
LayerCount: 2
Fore
SplineSet
307 1433 m 1,0,-1
 307 1143 l 1,1,-1
 291 988 l 2,2,3
 288 956 288 956 274 938.5 c 128,-1,4
 260 921 260 921 229 921 c 0,5,6
 203 921 203 921 188.5 938.5 c 128,-1,7
 174 956 174 956 168 988 c 2,8,-1
 152 1143 l 1,9,-1
 152 1433 l 1,10,-1
 307 1433 l 1,0,-1
307 1433 m 1,11,-1
 307 1143 l 1,12,-1
 291 988 l 2,13,14
 288 956 288 956 274 938.5 c 128,-1,15
 260 921 260 921 229 921 c 0,16,17
 203 921 203 921 188.5 938.5 c 128,-1,18
 174 956 174 956 168 988 c 2,19,-1
 152 1143 l 1,20,-1
 152 1433 l 1,21,-1
 307 1433 l 1,11,-1
EndSplineSet
Validated: 5
EndChar

StartChar: parenleft
Encoding: 40 40 7
Width: 600
Flags: W
LayerCount: 2
Fore
SplineSet
289 629 m 256,0,1
 289 415 289 415 344 213.5 c 128,-1,2
 399 12 399 12 503 -171 c 0,3,4
 509 -182 509 -182 511 -190 c 128,-1,5
 513 -198 513 -198 513 -206 c 0,6,7
 513 -220 513 -220 506 -229 c 128,-1,8
 499 -238 499 -238 488 -245 c 2,9,-1
 409 -293 l 1,10,11
 334 -178 334 -178 281.5 -65 c 128,-1,12
 229 48 229 48 196.5 162 c 128,-1,13
 164 276 164 276 149 391.5 c 128,-1,14
 134 507 134 507 134 629 c 0,15,16
 134 750 134 750 149 866 c 128,-1,17
 164 982 164 982 196.5 1095.5 c 128,-1,18
 229 1209 229 1209 281.5 1322 c 128,-1,19
 334 1435 334 1435 409 1551 c 1,20,-1
 488 1502 l 2,21,22
 499 1495 499 1495 506 1486 c 128,-1,23
 513 1477 513 1477 513 1463 c 0,24,25
 513 1448 513 1448 503 1429 c 0,26,27
 398 1247 398 1247 343.5 1045 c 128,-1,28
 289 843 289 843 289 629 c 256,0,1
289 629 m 256,29,30
 289 415 289 415 344 213.5 c 128,-1,31
 399 12 399 12 503 -171 c 0,32,33
 509 -182 509 -182 511 -190 c 128,-1,34
 513 -198 513 -198 513 -206 c 0,35,36
 513 -220 513 -220 506 -229 c 128,-1,37
 499 -238 499 -238 488 -245 c 2,38,-1
 409 -293 l 1,39,40
 334 -178 334 -178 281.5 -65 c 128,-1,41
 229 48 229 48 196.5 162 c 128,-1,42
 164 276 164 276 149 391.5 c 128,-1,43
 134 507 134 507 134 629 c 0,44,45
 134 750 134 750 149 866 c 128,-1,46
 164 982 164 982 196.5 1095.5 c 128,-1,47
 229 1209 229 1209 281.5 1322 c 128,-1,48
 334 1435 334 1435 409 1551 c 1,49,-1
 488 1502 l 2,50,51
 499 1495 499 1495 506 1486 c 128,-1,52
 513 1477 513 1477 513 1463 c 0,53,54
 513 1448 513 1448 503 1429 c 0,55,56
 398 1247 398 1247 343.5 1045 c 128,-1,57
 289 843 289 843 289 629 c 256,29,30
EndSplineSet
Validated: 5
EndChar

StartChar: parenright
Encoding: 41 41 8
Width: 600
Flags: W
LayerCount: 2
Fore
SplineSet
298 629 m 256,0,1
 298 843 298 843 243.5 1045 c 128,-1,2
 189 1247 189 1247 84 1429 c 0,3,4
 74 1448 74 1448 74 1463 c 0,5,6
 74 1477 74 1477 81 1486 c 128,-1,7
 88 1495 88 1495 99 1502 c 2,8,-1
 178 1551 l 1,9,10
 253 1435 253 1435 305.5 1322 c 128,-1,11
 358 1209 358 1209 390.5 1095.5 c 128,-1,12
 423 982 423 982 438 866 c 128,-1,13
 453 750 453 750 453 629 c 0,14,15
 453 507 453 507 438 391.5 c 128,-1,16
 423 276 423 276 390.5 162 c 128,-1,17
 358 48 358 48 305.5 -65 c 128,-1,18
 253 -178 253 -178 178 -293 c 1,19,-1
 99 -245 l 2,20,21
 88 -238 88 -238 81 -229 c 128,-1,22
 74 -220 74 -220 74 -206 c 0,23,24
 74 -198 74 -198 76 -190 c 128,-1,25
 78 -182 78 -182 84 -171 c 0,26,27
 188 12 188 12 243 213.5 c 128,-1,28
 298 415 298 415 298 629 c 256,0,1
298 629 m 256,29,30
 298 843 298 843 243.5 1045 c 128,-1,31
 189 1247 189 1247 84 1429 c 0,32,33
 74 1448 74 1448 74 1463 c 0,34,35
 74 1477 74 1477 81 1486 c 128,-1,36
 88 1495 88 1495 99 1502 c 2,37,-1
 178 1551 l 1,38,39
 253 1435 253 1435 305.5 1322 c 128,-1,40
 358 1209 358 1209 390.5 1095.5 c 128,-1,41
 423 982 423 982 438 866 c 128,-1,42
 453 750 453 750 453 629 c 0,43,44
 453 507 453 507 438 391.5 c 128,-1,45
 423 276 423 276 390.5 162 c 128,-1,46
 358 48 358 48 305.5 -65 c 128,-1,47
 253 -178 253 -178 178 -293 c 1,48,-1
 99 -245 l 2,49,50
 88 -238 88 -238 81 -229 c 128,-1,51
 74 -220 74 -220 74 -206 c 0,52,53
 74 -198 74 -198 76 -190 c 128,-1,54
 78 -182 78 -182 84 -171 c 0,55,56
 188 12 188 12 243 213.5 c 128,-1,57
 298 415 298 415 298 629 c 256,29,30
EndSplineSet
Validated: 5
EndChar

StartChar: asterisk
Encoding: 42 42 9
Width: 800
Flags: W
LayerCount: 2
Fore
SplineSet
354 863 m 1,0,-1
 354 1060 l 2,1,2
 354 1079 354 1079 356.5 1096 c 128,-1,3
 359 1113 359 1113 366 1129 c 1,4,5
 346 1104 346 1104 313 1084 c 2,6,-1
 141 985 l 1,7,-1
 97 1060 l 1,8,-1
 269 1160 l 2,9,10
 305 1181 305 1181 342 1184 c 1,11,12
 322 1186 322 1186 304.5 1191.5 c 128,-1,13
 287 1197 287 1197 269 1209 c 2,14,-1
 96 1310 l 1,15,-1
 140 1385 l 1,16,-1
 313 1285 l 2,17,18
 348 1265 348 1265 370 1233 c 1,19,20
 361 1251 361 1251 357.5 1269.5 c 128,-1,21
 354 1288 354 1288 354 1308 c 2,22,-1
 354 1506 l 1,23,-1
 442 1506 l 1,24,-1
 442 1309 l 2,25,26
 442 1268 442 1268 428 1237 c 1,27,28
 439 1252 439 1252 452.5 1263 c 128,-1,29
 466 1274 466 1274 483 1285 c 2,30,-1
 655 1384 l 1,31,-1
 699 1309 l 1,32,-1
 527 1209 l 2,33,34
 510 1198 510 1198 493.5 1192 c 128,-1,35
 477 1186 477 1186 459 1184 c 1,36,37
 477 1182 477 1182 493.5 1176.5 c 128,-1,38
 510 1171 510 1171 527 1160 c 2,39,-1
 700 1059 l 1,40,-1
 656 984 l 1,41,-1
 483 1084 l 2,42,43
 465 1095 465 1095 451 1106 c 128,-1,44
 437 1117 437 1117 426 1133 c 1,45,46
 442 1100 442 1100 442 1061 c 2,47,-1
 442 863 l 1,48,-1
 354 863 l 1,0,-1
354 863 m 1,49,-1
 354 1060 l 2,50,51
 354 1079 354 1079 356.5 1096 c 128,-1,52
 359 1113 359 1113 366 1129 c 1,53,54
 346 1104 346 1104 313 1084 c 2,55,-1
 141 985 l 1,56,-1
 97 1060 l 1,57,-1
 269 1160 l 2,58,59
 305 1181 305 1181 342 1184 c 1,60,61
 322 1186 322 1186 304.5 1191.5 c 128,-1,62
 287 1197 287 1197 269 1209 c 2,63,-1
 96 1310 l 1,64,-1
 140 1385 l 1,65,-1
 313 1285 l 2,66,67
 348 1265 348 1265 370 1233 c 1,68,69
 361 1251 361 1251 357.5 1269.5 c 128,-1,70
 354 1288 354 1288 354 1308 c 2,71,-1
 354 1506 l 1,72,-1
 442 1506 l 1,73,-1
 442 1309 l 2,74,75
 442 1268 442 1268 428 1237 c 1,76,77
 439 1252 439 1252 452.5 1263 c 128,-1,78
 466 1274 466 1274 483 1285 c 2,79,-1
 655 1384 l 1,80,-1
 699 1309 l 1,81,-1
 527 1209 l 2,82,83
 510 1198 510 1198 493.5 1192 c 128,-1,84
 477 1186 477 1186 459 1184 c 1,85,86
 477 1182 477 1182 493.5 1176.5 c 128,-1,87
 510 1171 510 1171 527 1160 c 2,88,-1
 700 1059 l 1,89,-1
 656 984 l 1,90,-1
 483 1084 l 2,91,92
 465 1095 465 1095 451 1106 c 128,-1,93
 437 1117 437 1117 426 1133 c 1,94,95
 442 1100 442 1100 442 1061 c 2,96,-1
 442 863 l 1,97,-1
 354 863 l 1,49,-1
EndSplineSet
Validated: 5
EndChar

StartChar: plus
Encoding: 43 43 10
Width: 1160
Flags: W
LayerCount: 2
Fore
SplineSet
651 1166 m 1,0,-1
 651 739 l 1,1,-1
 1058 739 l 1,2,-1
 1058 604 l 1,3,-1
 651 604 l 1,4,-1
 651 174 l 1,5,-1
 505 174 l 1,6,-1
 505 604 l 1,7,-1
 100 604 l 1,8,-1
 100 739 l 1,9,-1
 505 739 l 1,10,-1
 505 1166 l 1,11,-1
 651 1166 l 1,0,-1
651 1166 m 1,12,-1
 651 739 l 1,13,-1
 1058 739 l 1,14,-1
 1058 604 l 1,15,-1
 651 604 l 1,16,-1
 651 174 l 1,17,-1
 505 174 l 1,18,-1
 505 604 l 1,19,-1
 100 604 l 1,20,-1
 100 739 l 1,21,-1
 505 739 l 1,22,-1
 505 1166 l 1,23,-1
 651 1166 l 1,12,-1
EndSplineSet
Validated: 5
EndChar

StartChar: comma
Encoding: 44 44 11
Width: 424
Flags: W
LayerCount: 2
Fore
SplineSet
94 123 m 0,0,1
 94 146 94 146 102.5 166.5 c 128,-1,2
 111 187 111 187 126.5 202.5 c 128,-1,3
 142 218 142 218 164 227 c 128,-1,4
 186 236 186 236 212 236 c 0,5,6
 242 236 242 236 265.5 225 c 128,-1,7
 289 214 289 214 304.5 194.5 c 128,-1,8
 320 175 320 175 328 149.5 c 128,-1,9
 336 124 336 124 336 94 c 0,10,11
 336 49 336 49 323 0.5 c 128,-1,12
 310 -48 310 -48 286 -95.5 c 128,-1,13
 262 -143 262 -143 226.5 -188 c 128,-1,14
 191 -233 191 -233 146 -271 c 1,15,-1
 116 -242 l 2,16,17
 103 -230 103 -230 103 -214 c 0,18,19
 103 -201 103 -201 117 -187 c 0,20,21
 127 -176 127 -176 142.5 -157.5 c 128,-1,22
 158 -139 158 -139 174 -115 c 128,-1,23
 190 -91 190 -91 203.5 -62 c 128,-1,24
 217 -33 217 -33 223 0 c 1,25,-1
 210 0 l 2,26,27
 184 0 184 0 163 9 c 128,-1,28
 142 18 142 18 126.5 34.5 c 128,-1,29
 111 51 111 51 102.5 73.5 c 128,-1,30
 94 96 94 96 94 123 c 0,0,1
94 123 m 0,31,32
 94 146 94 146 102.5 166.5 c 128,-1,33
 111 187 111 187 126.5 202.5 c 128,-1,34
 142 218 142 218 164 227 c 128,-1,35
 186 236 186 236 212 236 c 0,36,37
 242 236 242 236 265.5 225 c 128,-1,38
 289 214 289 214 304.5 194.5 c 128,-1,39
 320 175 320 175 328 149.5 c 128,-1,40
 336 124 336 124 336 94 c 0,41,42
 336 49 336 49 323 0.5 c 128,-1,43
 310 -48 310 -48 286 -95.5 c 128,-1,44
 262 -143 262 -143 226.5 -188 c 128,-1,45
 191 -233 191 -233 146 -271 c 1,46,-1
 116 -242 l 2,47,48
 103 -230 103 -230 103 -214 c 0,49,50
 103 -201 103 -201 117 -187 c 0,51,52
 127 -176 127 -176 142.5 -157.5 c 128,-1,53
 158 -139 158 -139 174 -115 c 128,-1,54
 190 -91 190 -91 203.5 -62 c 128,-1,55
 217 -33 217 -33 223 0 c 1,56,-1
 210 0 l 2,57,58
 184 0 184 0 163 9 c 128,-1,59
 142 18 142 18 126.5 34.5 c 128,-1,60
 111 51 111 51 102.5 73.5 c 128,-1,61
 94 96 94 96 94 123 c 0,31,32
EndSplineSet
Validated: 5
EndChar

StartChar: hyphen
Encoding: 45 45 12
Width: 694
Flags: W
LayerCount: 2
Fore
SplineSet
100 675 m 1,0,-1
 594 675 l 1,1,-1
 594 524 l 1,2,-1
 100 524 l 1,3,-1
 100 675 l 1,0,-1
100 675 m 1,4,-1
 594 675 l 1,5,-1
 594 524 l 1,6,-1
 100 524 l 1,7,-1
 100 675 l 1,4,-1
EndSplineSet
Validated: 5
EndChar

StartChar: period
Encoding: 46 46 13
Width: 424
Flags: W
LayerCount: 2
Fore
SplineSet
88 110 m 0,0,1
 88 136 88 136 97.5 159 c 128,-1,2
 107 182 107 182 123.5 199 c 128,-1,3
 140 216 140 216 163 226 c 128,-1,4
 186 236 186 236 212 236 c 256,5,6
 238 236 238 236 261 226 c 128,-1,7
 284 216 284 216 301 199 c 128,-1,8
 318 182 318 182 327.5 159 c 128,-1,9
 337 136 337 136 337 110 c 0,10,11
 337 83 337 83 327.5 60.5 c 128,-1,12
 318 38 318 38 301 21 c 128,-1,13
 284 4 284 4 261 -5.5 c 128,-1,14
 238 -15 238 -15 212 -15 c 256,15,16
 186 -15 186 -15 163 -5.5 c 128,-1,17
 140 4 140 4 123.5 21 c 128,-1,18
 107 38 107 38 97.5 60.5 c 128,-1,19
 88 83 88 83 88 110 c 0,0,1
88 110 m 0,20,21
 88 136 88 136 97.5 159 c 128,-1,22
 107 182 107 182 123.5 199 c 128,-1,23
 140 216 140 216 163 226 c 128,-1,24
 186 236 186 236 212 236 c 256,25,26
 238 236 238 236 261 226 c 128,-1,27
 284 216 284 216 301 199 c 128,-1,28
 318 182 318 182 327.5 159 c 128,-1,29
 337 136 337 136 337 110 c 0,30,31
 337 83 337 83 327.5 60.5 c 128,-1,32
 318 38 318 38 301 21 c 128,-1,33
 284 4 284 4 261 -5.5 c 128,-1,34
 238 -15 238 -15 212 -15 c 256,35,36
 186 -15 186 -15 163 -5.5 c 128,-1,37
 140 4 140 4 123.5 21 c 128,-1,38
 107 38 107 38 97.5 60.5 c 128,-1,39
 88 83 88 83 88 110 c 0,20,21
EndSplineSet
Validated: 5
EndChar

StartChar: slash
Encoding: 47 47 14
Width: 746
Flags: W
LayerCount: 2
Fore
SplineSet
161 -21 m 2,0,1
 147 -56 147 -56 119.5 -73 c 128,-1,2
 92 -90 92 -90 63 -90 c 2,3,-1
 -12 -90 l 1,4,-1
 589 1407 l 2,5,6
 602 1439 602 1439 626 1456 c 128,-1,7
 650 1473 650 1473 683 1473 c 2,8,-1
 758 1473 l 1,9,-1
 161 -21 l 2,0,1
161 -21 m 2,10,11
 147 -56 147 -56 119.5 -73 c 128,-1,12
 92 -90 92 -90 63 -90 c 2,13,-1
 -12 -90 l 1,14,-1
 589 1407 l 2,15,16
 602 1439 602 1439 626 1456 c 128,-1,17
 650 1473 650 1473 683 1473 c 2,18,-1
 758 1473 l 1,19,-1
 161 -21 l 2,10,11
EndSplineSet
Validated: 5
EndChar

StartChar: zero
Encoding: 48 48 15
Width: 1160
Flags: W
LayerCount: 2
Fore
SplineSet
1100 716 m 256,0,1
 1100 528 1100 528 1059.5 390.5 c 128,-1,2
 1019 253 1019 253 949 163 c 128,-1,3
 879 73 879 73 783.5 29 c 128,-1,4
 688 -15 688 -15 579 -15 c 0,5,6
 469 -15 469 -15 374.5 29 c 128,-1,7
 280 73 280 73 210 163 c 128,-1,8
 140 253 140 253 100 390.5 c 128,-1,9
 60 528 60 528 60 716 c 256,10,11
 60 904 60 904 100 1042 c 128,-1,12
 140 1180 140 1180 210 1270.5 c 128,-1,13
 280 1361 280 1361 374.5 1405 c 128,-1,14
 469 1449 469 1449 579 1449 c 0,15,16
 688 1449 688 1449 783.5 1405 c 128,-1,17
 879 1361 879 1361 949 1270.5 c 128,-1,18
 1019 1180 1019 1180 1059.5 1042 c 128,-1,19
 1100 904 1100 904 1100 716 c 256,0,1
915 716 m 256,20,21
 915 880 915 880 887.5 991.5 c 128,-1,22
 860 1103 860 1103 813.5 1171 c 128,-1,23
 767 1239 767 1239 706 1268.5 c 128,-1,24
 645 1298 645 1298 579 1298 c 256,25,26
 513 1298 513 1298 452 1268.5 c 128,-1,27
 391 1239 391 1239 345 1171 c 128,-1,28
 299 1103 299 1103 271.5 991.5 c 128,-1,29
 244 880 244 880 244 716 c 256,30,31
 244 552 244 552 271.5 441 c 128,-1,32
 299 330 299 330 345 262 c 128,-1,33
 391 194 391 194 452 164.5 c 128,-1,34
 513 135 513 135 579 135 c 256,35,36
 645 135 645 135 706 164.5 c 128,-1,37
 767 194 767 194 813.5 262 c 128,-1,38
 860 330 860 330 887.5 441 c 128,-1,39
 915 552 915 552 915 716 c 256,20,21
1100 716 m 256,40,41
 1100 528 1100 528 1059.5 390.5 c 128,-1,42
 1019 253 1019 253 949 163 c 128,-1,43
 879 73 879 73 783.5 29 c 128,-1,44
 688 -15 688 -15 579 -15 c 0,45,46
 469 -15 469 -15 374.5 29 c 128,-1,47
 280 73 280 73 210 163 c 128,-1,48
 140 253 140 253 100 390.5 c 128,-1,49
 60 528 60 528 60 716 c 256,50,51
 60 904 60 904 100 1042 c 128,-1,52
 140 1180 140 1180 210 1270.5 c 128,-1,53
 280 1361 280 1361 374.5 1405 c 128,-1,54
 469 1449 469 1449 579 1449 c 0,55,56
 688 1449 688 1449 783.5 1405 c 128,-1,57
 879 1361 879 1361 949 1270.5 c 128,-1,58
 1019 1180 1019 1180 1059.5 1042 c 128,-1,59
 1100 904 1100 904 1100 716 c 256,40,41
915 716 m 256,60,61
 915 880 915 880 887.5 991.5 c 128,-1,62
 860 1103 860 1103 813.5 1171 c 128,-1,63
 767 1239 767 1239 706 1268.5 c 128,-1,64
 645 1298 645 1298 579 1298 c 256,65,66
 513 1298 513 1298 452 1268.5 c 128,-1,67
 391 1239 391 1239 345 1171 c 128,-1,68
 299 1103 299 1103 271.5 991.5 c 128,-1,69
 244 880 244 880 244 716 c 256,70,71
 244 552 244 552 271.5 441 c 128,-1,72
 299 330 299 330 345 262 c 128,-1,73
 391 194 391 194 452 164.5 c 128,-1,74
 513 135 513 135 579 135 c 256,75,76
 645 135 645 135 706 164.5 c 128,-1,77
 767 194 767 194 813.5 262 c 128,-1,78
 860 330 860 330 887.5 441 c 128,-1,79
 915 552 915 552 915 716 c 256,60,61
EndSplineSet
Validated: 5
EndChar

StartChar: one
Encoding: 49 49 16
Width: 1160
Flags: W
LayerCount: 2
Fore
SplineSet
287 136 m 1,0,-1
 595 136 l 1,1,-1
 595 1113 l 2,2,3
 595 1157 595 1157 598 1202 c 1,4,-1
 342 983 l 2,5,6
 332 975 332 975 322 971.5 c 128,-1,7
 312 968 312 968 303 968 c 0,8,9
 288 968 288 968 276 974.5 c 128,-1,10
 264 981 264 981 258 990 c 2,11,-1
 202 1067 l 1,12,-1
 628 1436 l 1,13,-1
 773 1436 l 1,14,-1
 773 136 l 1,15,-1
 1055 136 l 1,16,-1
 1055 0 l 1,17,-1
 287 0 l 1,18,-1
 287 136 l 1,0,-1
287 136 m 1,19,-1
 595 136 l 1,20,-1
 595 1113 l 2,21,22
 595 1157 595 1157 598 1202 c 1,23,-1
 342 983 l 2,24,25
 332 975 332 975 322 971.5 c 128,-1,26
 312 968 312 968 303 968 c 0,27,28
 288 968 288 968 276 974.5 c 128,-1,29
 264 981 264 981 258 990 c 2,30,-1
 202 1067 l 1,31,-1
 628 1436 l 1,32,-1
 773 1436 l 1,33,-1
 773 136 l 1,34,-1
 1055 136 l 1,35,-1
 1055 0 l 1,36,-1
 287 0 l 1,37,-1
 287 136 l 1,19,-1
EndSplineSet
Validated: 5
Substitution2: "'sups' Superscript in Latin lookup 2 subtable" uni00B9
EndChar

StartChar: two
Encoding: 50 50 17
Width: 1160
Flags: W
LayerCount: 2
Fore
SplineSet
601 1449 m 0,0,1
 692 1449 692 1449 771 1422 c 128,-1,2
 850 1395 850 1395 907.5 1343.5 c 128,-1,3
 965 1292 965 1292 998 1218 c 128,-1,4
 1031 1144 1031 1144 1031 1050 c 0,5,6
 1031 970 1031 970 1007 902 c 128,-1,7
 983 834 983 834 942 771.5 c 128,-1,8
 901 709 901 709 847.5 650.5 c 128,-1,9
 794 592 794 592 734 531 c 2,10,-1
 357 145 l 1,11,12
 397 156 397 156 438 162.5 c 128,-1,13
 479 169 479 169 517 169 c 2,14,-1
 997 169 l 2,15,16
 1026 169 1026 169 1043 152 c 128,-1,17
 1060 135 1060 135 1060 108 c 2,18,-1
 1060 0 l 1,19,-1
 104 0 l 1,20,-1
 104 61 l 2,21,22
 104 80 104 80 111.5 100 c 128,-1,23
 119 120 119 120 136 137 c 2,24,-1
 595 598 l 2,25,26
 652 656 652 656 699 709.5 c 128,-1,27
 746 763 746 763 779.5 817 c 128,-1,28
 813 871 813 871 831 926.5 c 128,-1,29
 849 982 849 982 849 1045 c 256,30,31
 849 1108 849 1108 829 1155.5 c 128,-1,32
 809 1203 809 1203 774 1234 c 128,-1,33
 739 1265 739 1265 692 1280.5 c 128,-1,34
 645 1296 645 1296 591 1296 c 256,35,36
 537 1296 537 1296 491 1280 c 128,-1,37
 445 1264 445 1264 409.5 1235.5 c 128,-1,38
 374 1207 374 1207 349.5 1168 c 128,-1,39
 325 1129 325 1129 315 1082 c 0,40,41
 307 1053 307 1053 291 1040 c 128,-1,42
 275 1027 275 1027 249 1027 c 0,43,44
 244 1027 244 1027 238.5 1027.5 c 128,-1,45
 233 1028 233 1028 226 1029 c 2,46,-1
 133 1045 l 1,47,48
 147 1143 147 1143 187 1218.5 c 128,-1,49
 227 1294 227 1294 288.5 1345 c 128,-1,50
 350 1396 350 1396 429.5 1422.5 c 128,-1,51
 509 1449 509 1449 601 1449 c 0,0,1
601 1449 m 0,52,53
 692 1449 692 1449 771 1422 c 128,-1,54
 850 1395 850 1395 907.5 1343.5 c 128,-1,55
 965 1292 965 1292 998 1218 c 128,-1,56
 1031 1144 1031 1144 1031 1050 c 0,57,58
 1031 970 1031 970 1007 902 c 128,-1,59
 983 834 983 834 942 771.5 c 128,-1,60
 901 709 901 709 847.5 650.5 c 128,-1,61
 794 592 794 592 734 531 c 2,62,-1
 357 145 l 1,63,64
 397 156 397 156 438 162.5 c 128,-1,65
 479 169 479 169 517 169 c 2,66,-1
 997 169 l 2,67,68
 1026 169 1026 169 1043 152 c 128,-1,69
 1060 135 1060 135 1060 108 c 2,70,-1
 1060 0 l 1,71,-1
 104 0 l 1,72,-1
 104 61 l 2,73,74
 104 80 104 80 111.5 100 c 128,-1,75
 119 120 119 120 136 137 c 2,76,-1
 595 598 l 2,77,78
 652 656 652 656 699 709.5 c 128,-1,79
 746 763 746 763 779.5 817 c 128,-1,80
 813 871 813 871 831 926.5 c 128,-1,81
 849 982 849 982 849 1045 c 256,82,83
 849 1108 849 1108 829 1155.5 c 128,-1,84
 809 1203 809 1203 774 1234 c 128,-1,85
 739 1265 739 1265 692 1280.5 c 128,-1,86
 645 1296 645 1296 591 1296 c 256,87,88
 537 1296 537 1296 491 1280 c 128,-1,89
 445 1264 445 1264 409.5 1235.5 c 128,-1,90
 374 1207 374 1207 349.5 1168 c 128,-1,91
 325 1129 325 1129 315 1082 c 0,92,93
 307 1053 307 1053 291 1040 c 128,-1,94
 275 1027 275 1027 249 1027 c 0,95,96
 244 1027 244 1027 238.5 1027.5 c 128,-1,97
 233 1028 233 1028 226 1029 c 2,98,-1
 133 1045 l 1,99,100
 147 1143 147 1143 187 1218.5 c 128,-1,101
 227 1294 227 1294 288.5 1345 c 128,-1,102
 350 1396 350 1396 429.5 1422.5 c 128,-1,103
 509 1449 509 1449 601 1449 c 0,52,53
EndSplineSet
Validated: 5
Substitution2: "'sups' Superscript in Latin lookup 2 subtable" uni00B2
EndChar

StartChar: three
Encoding: 51 51 18
Width: 1160
Flags: W
LayerCount: 2
Fore
SplineSet
620 1449 m 0,0,1
 711 1449 711 1449 788 1423 c 128,-1,2
 865 1397 865 1397 920.5 1349 c 128,-1,3
 976 1301 976 1301 1007 1233 c 128,-1,4
 1038 1165 1038 1165 1038 1082 c 0,5,6
 1038 1014 1038 1014 1020.5 960.5 c 128,-1,7
 1003 907 1003 907 970.5 866.5 c 128,-1,8
 938 826 938 826 892 798 c 128,-1,9
 846 770 846 770 789 753 c 1,10,11
 929 716 929 716 999.5 629 c 128,-1,12
 1070 542 1070 542 1070 411 c 0,13,14
 1070 312 1070 312 1032.5 233 c 128,-1,15
 995 154 995 154 930 98.5 c 128,-1,16
 865 43 865 43 778.5 13.5 c 128,-1,17
 692 -16 692 -16 593 -16 c 0,18,19
 479 -16 479 -16 398 12.5 c 128,-1,20
 317 41 317 41 261 91 c 128,-1,21
 205 141 205 141 169 209.5 c 128,-1,22
 133 278 133 278 108 358 c 1,23,-1
 184 390 l 2,24,25
 205 399 205 399 226 399 c 0,26,27
 246 399 246 399 261.5 390.5 c 128,-1,28
 277 382 277 382 285 364 c 0,29,30
 287 360 287 360 289 355.5 c 128,-1,31
 291 351 291 351 293 346 c 0,32,33
 307 317 307 317 327 280.5 c 128,-1,34
 347 244 347 244 381 212 c 128,-1,35
 415 180 415 180 465.5 158 c 128,-1,36
 516 136 516 136 591 136 c 256,37,38
 666 136 666 136 722.5 160.5 c 128,-1,39
 779 185 779 185 816.5 224 c 128,-1,40
 854 263 854 263 873 311 c 128,-1,41
 892 359 892 359 892 406 c 0,42,43
 892 464 892 464 876.5 512 c 128,-1,44
 861 560 861 560 820.5 595 c 128,-1,45
 780 630 780 630 708.5 650 c 128,-1,46
 637 670 637 670 525 670 c 1,47,-1
 525 799 l 1,48,49
 616 800 616 800 680.5 819 c 128,-1,50
 745 838 745 838 786 871 c 128,-1,51
 827 904 827 904 845.5 950 c 128,-1,52
 864 996 864 996 864 1052 c 0,53,54
 864 1114 864 1114 844.5 1160 c 128,-1,55
 825 1206 825 1206 791 1236 c 128,-1,56
 757 1266 757 1266 710.5 1281 c 128,-1,57
 664 1296 664 1296 610 1296 c 256,58,59
 556 1296 556 1296 510 1280 c 128,-1,60
 464 1264 464 1264 428.5 1235.5 c 128,-1,61
 393 1207 393 1207 369 1167.5 c 128,-1,62
 345 1128 345 1128 333 1082 c 0,63,64
 325 1053 325 1053 309 1040 c 128,-1,65
 293 1027 293 1027 268 1027 c 0,66,67
 263 1027 263 1027 257.5 1027.5 c 128,-1,68
 252 1028 252 1028 245 1029 c 2,69,-1
 152 1045 l 1,70,71
 166 1143 166 1143 206 1218.5 c 128,-1,72
 246 1294 246 1294 307.5 1345 c 128,-1,73
 369 1396 369 1396 448.5 1422.5 c 128,-1,74
 528 1449 528 1449 620 1449 c 0,0,1
620 1449 m 0,75,76
 711 1449 711 1449 788 1423 c 128,-1,77
 865 1397 865 1397 920.5 1349 c 128,-1,78
 976 1301 976 1301 1007 1233 c 128,-1,79
 1038 1165 1038 1165 1038 1082 c 0,80,81
 1038 1014 1038 1014 1020.5 960.5 c 128,-1,82
 1003 907 1003 907 970.5 866.5 c 128,-1,83
 938 826 938 826 892 798 c 128,-1,84
 846 770 846 770 789 753 c 1,85,86
 929 716 929 716 999.5 629 c 128,-1,87
 1070 542 1070 542 1070 411 c 0,88,89
 1070 312 1070 312 1032.5 233 c 128,-1,90
 995 154 995 154 930 98.5 c 128,-1,91
 865 43 865 43 778.5 13.5 c 128,-1,92
 692 -16 692 -16 593 -16 c 0,93,94
 479 -16 479 -16 398 12.5 c 128,-1,95
 317 41 317 41 261 91 c 128,-1,96
 205 141 205 141 169 209.5 c 128,-1,97
 133 278 133 278 108 358 c 1,98,-1
 184 390 l 2,99,100
 205 399 205 399 226 399 c 0,101,102
 246 399 246 399 261.5 390.5 c 128,-1,103
 277 382 277 382 285 364 c 0,104,105
 287 360 287 360 289 355.5 c 128,-1,106
 291 351 291 351 293 346 c 0,107,108
 307 317 307 317 327 280.5 c 128,-1,109
 347 244 347 244 381 212 c 128,-1,110
 415 180 415 180 465.5 158 c 128,-1,111
 516 136 516 136 591 136 c 256,112,113
 666 136 666 136 722.5 160.5 c 128,-1,114
 779 185 779 185 816.5 224 c 128,-1,115
 854 263 854 263 873 311 c 128,-1,116
 892 359 892 359 892 406 c 0,117,118
 892 464 892 464 876.5 512 c 128,-1,119
 861 560 861 560 820.5 595 c 128,-1,120
 780 630 780 630 708.5 650 c 128,-1,121
 637 670 637 670 525 670 c 1,122,-1
 525 799 l 1,123,124
 616 800 616 800 680.5 819 c 128,-1,125
 745 838 745 838 786 871 c 128,-1,126
 827 904 827 904 845.5 950 c 128,-1,127
 864 996 864 996 864 1052 c 0,128,129
 864 1114 864 1114 844.5 1160 c 128,-1,130
 825 1206 825 1206 791 1236 c 128,-1,131
 757 1266 757 1266 710.5 1281 c 128,-1,132
 664 1296 664 1296 610 1296 c 256,133,134
 556 1296 556 1296 510 1280 c 128,-1,135
 464 1264 464 1264 428.5 1235.5 c 128,-1,136
 393 1207 393 1207 369 1167.5 c 128,-1,137
 345 1128 345 1128 333 1082 c 0,138,139
 325 1053 325 1053 309 1040 c 128,-1,140
 293 1027 293 1027 268 1027 c 0,141,142
 263 1027 263 1027 257.5 1027.5 c 128,-1,143
 252 1028 252 1028 245 1029 c 2,144,-1
 152 1045 l 1,145,146
 166 1143 166 1143 206 1218.5 c 128,-1,147
 246 1294 246 1294 307.5 1345 c 128,-1,148
 369 1396 369 1396 448.5 1422.5 c 128,-1,149
 528 1449 528 1449 620 1449 c 0,75,76
EndSplineSet
Validated: 5
Substitution2: "'sups' Superscript in Latin lookup 2 subtable" uni00B3
EndChar

StartChar: four
Encoding: 52 52 19
Width: 1160
Flags: W
LayerCount: 2
Fore
SplineSet
903 517 m 1,0,-1
 1120 517 l 1,1,-1
 1120 415 l 2,2,3
 1120 399 1120 399 1110.5 388 c 128,-1,4
 1101 377 1101 377 1081 377 c 2,5,-1
 903 377 l 1,6,-1
 903 0 l 1,7,-1
 746 0 l 1,8,-1
 746 377 l 1,9,-1
 111 377 l 2,10,11
 91 377 91 377 76.5 388.5 c 128,-1,12
 62 400 62 400 58 417 c 2,13,-1
 40 508 l 1,14,-1
 737 1433 l 1,15,-1
 903 1433 l 1,16,-1
 903 517 l 1,0,-1
746 1108 m 2,17,18
 746 1134 746 1134 747.5 1164 c 128,-1,19
 749 1194 749 1194 754 1226 c 1,20,-1
 233 517 l 1,21,-1
 746 517 l 1,22,-1
 746 1108 l 2,17,18
903 517 m 1,23,-1
 1120 517 l 1,24,-1
 1120 415 l 2,25,26
 1120 399 1120 399 1110.5 388 c 128,-1,27
 1101 377 1101 377 1081 377 c 2,28,-1
 903 377 l 1,29,-1
 903 0 l 1,30,-1
 746 0 l 1,31,-1
 746 377 l 1,32,-1
 111 377 l 2,33,34
 91 377 91 377 76.5 388.5 c 128,-1,35
 62 400 62 400 58 417 c 2,36,-1
 40 508 l 1,37,-1
 737 1433 l 1,38,-1
 903 1433 l 1,39,-1
 903 517 l 1,23,-1
746 1108 m 2,40,41
 746 1134 746 1134 747.5 1164 c 128,-1,42
 749 1194 749 1194 754 1226 c 1,43,-1
 233 517 l 1,44,-1
 746 517 l 1,45,-1
 746 1108 l 2,40,41
EndSplineSet
Validated: 5
EndChar

StartChar: five
Encoding: 53 53 20
Width: 1160
Flags: W
LayerCount: 2
Fore
SplineSet
978 1355 m 2,0,1
 978 1317 978 1317 954 1292.5 c 128,-1,2
 930 1268 930 1268 873 1268 c 2,3,-1
 423 1268 l 1,4,-1
 357 892 l 1,5,6
 469 916 469 916 564 916 c 0,7,8
 676 916 676 916 761.5 883 c 128,-1,9
 847 850 847 850 905 792 c 128,-1,10
 963 734 963 734 992.5 655 c 128,-1,11
 1022 576 1022 576 1022 483 c 0,12,13
 1022 369 1022 369 982 277 c 128,-1,14
 942 185 942 185 872.5 119.5 c 128,-1,15
 803 54 803 54 709 19 c 128,-1,16
 615 -16 615 -16 506 -16 c 0,17,18
 443 -16 443 -16 385 -3.5 c 128,-1,19
 327 9 327 9 277 30 c 128,-1,20
 227 51 227 51 184 78 c 128,-1,21
 141 105 141 105 108 135 c 1,22,-1
 162 211 l 2,23,24
 180 237 180 237 210 237 c 0,25,26
 229 237 229 237 254.5 221.5 c 128,-1,27
 280 206 280 206 316 187 c 128,-1,28
 352 168 352 168 400.5 152.5 c 128,-1,29
 449 137 449 137 516 137 c 0,30,31
 591 137 591 137 651 161 c 128,-1,32
 711 185 711 185 753.5 229.5 c 128,-1,33
 796 274 796 274 819 336 c 128,-1,34
 842 398 842 398 842 475 c 0,35,36
 842 542 842 542 822.5 596 c 128,-1,37
 803 650 803 650 763.5 688 c 128,-1,38
 724 726 724 726 665 747 c 128,-1,39
 606 768 606 768 527 768 c 0,40,41
 473 768 473 768 415 759 c 128,-1,42
 357 750 357 750 295 730 c 1,43,-1
 183 763 l 1,44,-1
 299 1433 l 1,45,-1
 978 1433 l 1,46,-1
 978 1355 l 2,0,1
978 1355 m 2,47,48
 978 1317 978 1317 954 1292.5 c 128,-1,49
 930 1268 930 1268 873 1268 c 2,50,-1
 423 1268 l 1,51,-1
 357 892 l 1,52,53
 469 916 469 916 564 916 c 0,54,55
 676 916 676 916 761.5 883 c 128,-1,56
 847 850 847 850 905 792 c 128,-1,57
 963 734 963 734 992.5 655 c 128,-1,58
 1022 576 1022 576 1022 483 c 0,59,60
 1022 369 1022 369 982 277 c 128,-1,61
 942 185 942 185 872.5 119.5 c 128,-1,62
 803 54 803 54 709 19 c 128,-1,63
 615 -16 615 -16 506 -16 c 0,64,65
 443 -16 443 -16 385 -3.5 c 128,-1,66
 327 9 327 9 277 30 c 128,-1,67
 227 51 227 51 184 78 c 128,-1,68
 141 105 141 105 108 135 c 1,69,-1
 162 211 l 2,70,71
 180 237 180 237 210 237 c 0,72,73
 229 237 229 237 254.5 221.5 c 128,-1,74
 280 206 280 206 316 187 c 128,-1,75
 352 168 352 168 400.5 152.5 c 128,-1,76
 449 137 449 137 516 137 c 0,77,78
 591 137 591 137 651 161 c 128,-1,79
 711 185 711 185 753.5 229.5 c 128,-1,80
 796 274 796 274 819 336 c 128,-1,81
 842 398 842 398 842 475 c 0,82,83
 842 542 842 542 822.5 596 c 128,-1,84
 803 650 803 650 763.5 688 c 128,-1,85
 724 726 724 726 665 747 c 128,-1,86
 606 768 606 768 527 768 c 0,87,88
 473 768 473 768 415 759 c 128,-1,89
 357 750 357 750 295 730 c 1,90,-1
 183 763 l 1,91,-1
 299 1433 l 1,92,-1
 978 1433 l 1,93,-1
 978 1355 l 2,47,48
EndSplineSet
Validated: 5
EndChar

StartChar: six
Encoding: 54 54 21
Width: 1160
Flags: W
LayerCount: 2
Fore
SplineSet
650 878 m 0,0,1
 736 878 736 878 813 849.5 c 128,-1,2
 890 821 890 821 948 766.5 c 128,-1,3
 1006 712 1006 712 1040 632.5 c 128,-1,4
 1074 553 1074 553 1074 451 c 0,5,6
 1074 352 1074 352 1038 267 c 128,-1,7
 1002 182 1002 182 937.5 119 c 128,-1,8
 873 56 873 56 782 20 c 128,-1,9
 691 -16 691 -16 582 -16 c 0,10,11
 474 -16 474 -16 386.5 18.5 c 128,-1,12
 299 53 299 53 237 116.5 c 128,-1,13
 175 180 175 180 141.5 270.5 c 128,-1,14
 108 361 108 361 108 473 c 0,15,16
 108 567 108 567 150 673 c 128,-1,17
 192 779 192 779 283 901 c 2,18,-1
 646 1390 l 2,19,20
 660 1408 660 1408 685 1420.5 c 128,-1,21
 710 1433 710 1433 742 1433 c 2,22,-1
 900 1433 l 1,23,-1
 403 804 l 1,24,25
 454 839 454 839 516 858.5 c 128,-1,26
 578 878 578 878 650 878 c 0,0,1
280 442 m 0,27,28
 280 373 280 373 300 316 c 128,-1,29
 320 259 320 259 358.5 218 c 128,-1,30
 397 177 397 177 452.5 154.5 c 128,-1,31
 508 132 508 132 579 132 c 0,32,33
 651 132 651 132 709 155 c 128,-1,34
 767 178 767 178 808.5 219 c 128,-1,35
 850 260 850 260 872.5 316 c 128,-1,36
 895 372 895 372 895 438 c 0,37,38
 895 508 895 508 873 564.5 c 128,-1,39
 851 621 851 621 811 660.5 c 128,-1,40
 771 700 771 700 715 721 c 128,-1,41
 659 742 659 742 592 742 c 0,42,43
 520 742 520 742 462 717.5 c 128,-1,44
 404 693 404 693 363.5 651.5 c 128,-1,45
 323 610 323 610 301.5 555.5 c 128,-1,46
 280 501 280 501 280 442 c 0,27,28
650 878 m 0,47,48
 736 878 736 878 813 849.5 c 128,-1,49
 890 821 890 821 948 766.5 c 128,-1,50
 1006 712 1006 712 1040 632.5 c 128,-1,51
 1074 553 1074 553 1074 451 c 0,52,53
 1074 352 1074 352 1038 267 c 128,-1,54
 1002 182 1002 182 937.5 119 c 128,-1,55
 873 56 873 56 782 20 c 128,-1,56
 691 -16 691 -16 582 -16 c 0,57,58
 474 -16 474 -16 386.5 18.5 c 128,-1,59
 299 53 299 53 237 116.5 c 128,-1,60
 175 180 175 180 141.5 270.5 c 128,-1,61
 108 361 108 361 108 473 c 0,62,63
 108 567 108 567 150 673 c 128,-1,64
 192 779 192 779 283 901 c 2,65,-1
 646 1390 l 2,66,67
 660 1408 660 1408 685 1420.5 c 128,-1,68
 710 1433 710 1433 742 1433 c 2,69,-1
 900 1433 l 1,70,-1
 403 804 l 1,71,72
 454 839 454 839 516 858.5 c 128,-1,73
 578 878 578 878 650 878 c 0,47,48
280 442 m 0,74,75
 280 373 280 373 300 316 c 128,-1,76
 320 259 320 259 358.5 218 c 128,-1,77
 397 177 397 177 452.5 154.5 c 128,-1,78
 508 132 508 132 579 132 c 0,79,80
 651 132 651 132 709 155 c 128,-1,81
 767 178 767 178 808.5 219 c 128,-1,82
 850 260 850 260 872.5 316 c 128,-1,83
 895 372 895 372 895 438 c 0,84,85
 895 508 895 508 873 564.5 c 128,-1,86
 851 621 851 621 811 660.5 c 128,-1,87
 771 700 771 700 715 721 c 128,-1,88
 659 742 659 742 592 742 c 0,89,90
 520 742 520 742 462 717.5 c 128,-1,91
 404 693 404 693 363.5 651.5 c 128,-1,92
 323 610 323 610 301.5 555.5 c 128,-1,93
 280 501 280 501 280 442 c 0,74,75
EndSplineSet
Validated: 5
EndChar

StartChar: seven
Encoding: 55 55 22
Width: 1160
Flags: W
LayerCount: 2
Fore
SplineSet
1084 1433 m 1,0,-1
 1084 1353 l 2,1,2
 1084 1319 1084 1319 1076.5 1297 c 128,-1,3
 1069 1275 1069 1275 1061 1260 c 2,4,-1
 468 63 l 2,5,6
 455 37 455 37 432 18.5 c 128,-1,7
 409 0 409 0 370 0 c 2,8,-1
 243 0 l 1,9,-1
 845 1182 l 2,10,11
 858 1207 858 1207 871.5 1228 c 128,-1,12
 885 1249 885 1249 902 1268 c 1,13,-1
 154 1268 l 2,14,15
 137 1268 137 1268 123.5 1281.5 c 128,-1,16
 110 1295 110 1295 110 1312 c 2,17,-1
 110 1433 l 1,18,-1
 1084 1433 l 1,0,-1
1084 1433 m 1,19,-1
 1084 1353 l 2,20,21
 1084 1319 1084 1319 1076.5 1297 c 128,-1,22
 1069 1275 1069 1275 1061 1260 c 2,23,-1
 468 63 l 2,24,25
 455 37 455 37 432 18.5 c 128,-1,26
 409 0 409 0 370 0 c 2,27,-1
 243 0 l 1,28,-1
 845 1182 l 2,29,30
 858 1207 858 1207 871.5 1228 c 128,-1,31
 885 1249 885 1249 902 1268 c 1,32,-1
 154 1268 l 2,33,34
 137 1268 137 1268 123.5 1281.5 c 128,-1,35
 110 1295 110 1295 110 1312 c 2,36,-1
 110 1433 l 1,37,-1
 1084 1433 l 1,19,-1
EndSplineSet
Validated: 5
EndChar

StartChar: eight
Encoding: 56 56 23
Width: 1160
Flags: W
LayerCount: 2
Fore
SplineSet
579 -16 m 256,0,1
 472 -16 472 -16 383 12.5 c 128,-1,2
 294 41 294 41 230 94 c 128,-1,3
 166 147 166 147 131 222.5 c 128,-1,4
 96 298 96 298 96 392 c 0,5,6
 96 530 96 530 168 619.5 c 128,-1,7
 240 709 240 709 374 747 c 1,8,9
 261 789 261 789 203.5 872.5 c 128,-1,10
 146 956 146 956 146 1072 c 0,11,12
 146 1151 146 1151 177 1220 c 128,-1,13
 208 1289 208 1289 265 1340 c 128,-1,14
 322 1391 322 1391 401.5 1420 c 128,-1,15
 481 1449 481 1449 579 1449 c 0,16,17
 676 1449 676 1449 756 1420 c 128,-1,18
 836 1391 836 1391 893 1340 c 128,-1,19
 950 1289 950 1289 981 1220 c 128,-1,20
 1012 1151 1012 1151 1012 1072 c 0,21,22
 1012 956 1012 956 954 872.5 c 128,-1,23
 896 789 896 789 784 747 c 1,24,25
 918 709 918 709 990 619.5 c 128,-1,26
 1062 530 1062 530 1062 392 c 0,27,28
 1062 298 1062 298 1026.5 222.5 c 128,-1,29
 991 147 991 147 927.5 94 c 128,-1,30
 864 41 864 41 775 12.5 c 128,-1,31
 686 -16 686 -16 579 -16 c 256,0,1
579 126 m 256,32,33
 649 126 649 126 704.5 145.5 c 128,-1,34
 760 165 760 165 798.5 200.5 c 128,-1,35
 837 236 837 236 857.5 285.5 c 128,-1,36
 878 335 878 335 878 395 c 0,37,38
 878 469 878 469 853.5 521.5 c 128,-1,39
 829 574 829 574 787.5 607 c 128,-1,40
 746 640 746 640 692 655.5 c 128,-1,41
 638 671 638 671 579 671 c 256,42,43
 520 671 520 671 466 655.5 c 128,-1,44
 412 640 412 640 370.5 607 c 128,-1,45
 329 574 329 574 304.5 521.5 c 128,-1,46
 280 469 280 469 280 395 c 0,47,48
 280 335 280 335 300.5 285.5 c 128,-1,49
 321 236 321 236 359.5 200.5 c 128,-1,50
 398 165 398 165 453.5 145.5 c 128,-1,51
 509 126 509 126 579 126 c 256,32,33
579 814 m 256,52,53
 649 814 649 814 698.5 835.5 c 128,-1,54
 748 857 748 857 779 892.5 c 128,-1,55
 810 928 810 928 824 974 c 128,-1,56
 838 1020 838 1020 838 1069 c 0,57,58
 838 1119 838 1119 821.5 1163 c 128,-1,59
 805 1207 805 1207 772.5 1240 c 128,-1,60
 740 1273 740 1273 691.5 1292 c 128,-1,61
 643 1311 643 1311 579 1311 c 256,62,63
 515 1311 515 1311 466.5 1292 c 128,-1,64
 418 1273 418 1273 385.5 1240 c 128,-1,65
 353 1207 353 1207 336.5 1163 c 128,-1,66
 320 1119 320 1119 320 1069 c 0,67,68
 320 1020 320 1020 334 974 c 128,-1,69
 348 928 348 928 379 892.5 c 128,-1,70
 410 857 410 857 459.5 835.5 c 128,-1,71
 509 814 509 814 579 814 c 256,52,53
579 -16 m 256,72,73
 472 -16 472 -16 383 12.5 c 128,-1,74
 294 41 294 41 230 94 c 128,-1,75
 166 147 166 147 131 222.5 c 128,-1,76
 96 298 96 298 96 392 c 0,77,78
 96 530 96 530 168 619.5 c 128,-1,79
 240 709 240 709 374 747 c 1,80,81
 261 789 261 789 203.5 872.5 c 128,-1,82
 146 956 146 956 146 1072 c 0,83,84
 146 1151 146 1151 177 1220 c 128,-1,85
 208 1289 208 1289 265 1340 c 128,-1,86
 322 1391 322 1391 401.5 1420 c 128,-1,87
 481 1449 481 1449 579 1449 c 0,88,89
 676 1449 676 1449 756 1420 c 128,-1,90
 836 1391 836 1391 893 1340 c 128,-1,91
 950 1289 950 1289 981 1220 c 128,-1,92
 1012 1151 1012 1151 1012 1072 c 0,93,94
 1012 956 1012 956 954 872.5 c 128,-1,95
 896 789 896 789 784 747 c 1,96,97
 918 709 918 709 990 619.5 c 128,-1,98
 1062 530 1062 530 1062 392 c 0,99,100
 1062 298 1062 298 1026.5 222.5 c 128,-1,101
 991 147 991 147 927.5 94 c 128,-1,102
 864 41 864 41 775 12.5 c 128,-1,103
 686 -16 686 -16 579 -16 c 256,72,73
579 126 m 256,104,105
 649 126 649 126 704.5 145.5 c 128,-1,106
 760 165 760 165 798.5 200.5 c 128,-1,107
 837 236 837 236 857.5 285.5 c 128,-1,108
 878 335 878 335 878 395 c 0,109,110
 878 469 878 469 853.5 521.5 c 128,-1,111
 829 574 829 574 787.5 607 c 128,-1,112
 746 640 746 640 692 655.5 c 128,-1,113
 638 671 638 671 579 671 c 256,114,115
 520 671 520 671 466 655.5 c 128,-1,116
 412 640 412 640 370.5 607 c 128,-1,117
 329 574 329 574 304.5 521.5 c 128,-1,118
 280 469 280 469 280 395 c 0,119,120
 280 335 280 335 300.5 285.5 c 128,-1,121
 321 236 321 236 359.5 200.5 c 128,-1,122
 398 165 398 165 453.5 145.5 c 128,-1,123
 509 126 509 126 579 126 c 256,104,105
579 814 m 256,124,125
 649 814 649 814 698.5 835.5 c 128,-1,126
 748 857 748 857 779 892.5 c 128,-1,127
 810 928 810 928 824 974 c 128,-1,128
 838 1020 838 1020 838 1069 c 0,129,130
 838 1119 838 1119 821.5 1163 c 128,-1,131
 805 1207 805 1207 772.5 1240 c 128,-1,132
 740 1273 740 1273 691.5 1292 c 128,-1,133
 643 1311 643 1311 579 1311 c 256,134,135
 515 1311 515 1311 466.5 1292 c 128,-1,136
 418 1273 418 1273 385.5 1240 c 128,-1,137
 353 1207 353 1207 336.5 1163 c 128,-1,138
 320 1119 320 1119 320 1069 c 0,139,140
 320 1020 320 1020 334 974 c 128,-1,141
 348 928 348 928 379 892.5 c 128,-1,142
 410 857 410 857 459.5 835.5 c 128,-1,143
 509 814 509 814 579 814 c 256,124,125
EndSplineSet
Validated: 5
EndChar

StartChar: nine
Encoding: 57 57 24
Width: 1160
Flags: W
LayerCount: 2
Fore
SplineSet
549 588 m 0,0,1
 468 588 468 588 395.5 615 c 128,-1,2
 323 642 323 642 268 694.5 c 128,-1,3
 213 747 213 747 180.5 823.5 c 128,-1,4
 148 900 148 900 148 999 c 0,5,6
 148 1093 148 1093 183 1175 c 128,-1,7
 218 1257 218 1257 281 1318 c 128,-1,8
 344 1379 344 1379 431 1414 c 128,-1,9
 518 1449 518 1449 622 1449 c 0,10,11
 725 1449 725 1449 809 1415 c 128,-1,12
 893 1381 893 1381 953 1320 c 128,-1,13
 1013 1259 1013 1259 1045.5 1174 c 128,-1,14
 1078 1089 1078 1089 1078 986 c 0,15,16
 1078 924 1078 924 1066.5 868.5 c 128,-1,17
 1055 813 1055 813 1033 760 c 128,-1,18
 1011 707 1011 707 980.5 654.5 c 128,-1,19
 950 602 950 602 911 546 c 2,20,-1
 562 42 l 2,21,22
 549 23 549 23 525 11.5 c 128,-1,23
 501 0 501 0 470 0 c 2,24,-1
 306 0 l 1,25,-1
 742 571 l 2,26,27
 764 600 764 600 783 626 c 128,-1,28
 802 652 802 652 819 678 c 1,29,30
 764 634 764 634 695 611 c 128,-1,31
 626 588 626 588 549 588 c 0,0,1
907 1007 m 0,32,33
 907 1074 907 1074 885.5 1128.5 c 128,-1,34
 864 1183 864 1183 826 1221 c 128,-1,35
 788 1259 788 1259 735.5 1279.5 c 128,-1,36
 683 1300 683 1300 620 1300 c 0,37,38
 554 1300 554 1300 499.5 1278.5 c 128,-1,39
 445 1257 445 1257 406.5 1219 c 128,-1,40
 368 1181 368 1181 347 1128 c 128,-1,41
 326 1075 326 1075 326 1012 c 0,42,43
 326 944 326 944 345.5 890.5 c 128,-1,44
 365 837 365 837 401.5 800 c 128,-1,45
 438 763 438 763 490.5 744 c 128,-1,46
 543 725 543 725 608 725 c 0,47,48
 680 725 680 725 735.5 748.5 c 128,-1,49
 791 772 791 772 829 811 c 128,-1,50
 867 850 867 850 887 901 c 128,-1,51
 907 952 907 952 907 1007 c 0,32,33
549 588 m 0,52,53
 468 588 468 588 395.5 615 c 128,-1,54
 323 642 323 642 268 694.5 c 128,-1,55
 213 747 213 747 180.5 823.5 c 128,-1,56
 148 900 148 900 148 999 c 0,57,58
 148 1093 148 1093 183 1175 c 128,-1,59
 218 1257 218 1257 281 1318 c 128,-1,60
 344 1379 344 1379 431 1414 c 128,-1,61
 518 1449 518 1449 622 1449 c 0,62,63
 725 1449 725 1449 809 1415 c 128,-1,64
 893 1381 893 1381 953 1320 c 128,-1,65
 1013 1259 1013 1259 1045.5 1174 c 128,-1,66
 1078 1089 1078 1089 1078 986 c 0,67,68
 1078 924 1078 924 1066.5 868.5 c 128,-1,69
 1055 813 1055 813 1033 760 c 128,-1,70
 1011 707 1011 707 980.5 654.5 c 128,-1,71
 950 602 950 602 911 546 c 2,72,-1
 562 42 l 2,73,74
 549 23 549 23 525 11.5 c 128,-1,75
 501 0 501 0 470 0 c 2,76,-1
 306 0 l 1,77,-1
 742 571 l 2,78,79
 764 600 764 600 783 626 c 128,-1,80
 802 652 802 652 819 678 c 1,81,82
 764 634 764 634 695 611 c 128,-1,83
 626 588 626 588 549 588 c 0,52,53
907 1007 m 0,84,85
 907 1074 907 1074 885.5 1128.5 c 128,-1,86
 864 1183 864 1183 826 1221 c 128,-1,87
 788 1259 788 1259 735.5 1279.5 c 128,-1,88
 683 1300 683 1300 620 1300 c 0,89,90
 554 1300 554 1300 499.5 1278.5 c 128,-1,91
 445 1257 445 1257 406.5 1219 c 128,-1,92
 368 1181 368 1181 347 1128 c 128,-1,93
 326 1075 326 1075 326 1012 c 0,94,95
 326 944 326 944 345.5 890.5 c 128,-1,96
 365 837 365 837 401.5 800 c 128,-1,97
 438 763 438 763 490.5 744 c 128,-1,98
 543 725 543 725 608 725 c 0,99,100
 680 725 680 725 735.5 748.5 c 128,-1,101
 791 772 791 772 829 811 c 128,-1,102
 867 850 867 850 887 901 c 128,-1,103
 907 952 907 952 907 1007 c 0,84,85
EndSplineSet
Validated: 5
EndChar

StartChar: colon
Encoding: 58 58 25
Width: 504
Flags: W
LayerCount: 2
Fore
SplineSet
128 110 m 0,0,1
 128 136 128 136 137.5 159 c 128,-1,2
 147 182 147 182 163.5 199 c 128,-1,3
 180 216 180 216 203 226 c 128,-1,4
 226 236 226 236 252 236 c 256,5,6
 278 236 278 236 301 226 c 128,-1,7
 324 216 324 216 341 199 c 128,-1,8
 358 182 358 182 367.5 159 c 128,-1,9
 377 136 377 136 377 110 c 0,10,11
 377 83 377 83 367.5 60.5 c 128,-1,12
 358 38 358 38 341 21 c 128,-1,13
 324 4 324 4 301 -5.5 c 128,-1,14
 278 -15 278 -15 252 -15 c 256,15,16
 226 -15 226 -15 203 -5.5 c 128,-1,17
 180 4 180 4 163.5 21 c 128,-1,18
 147 38 147 38 137.5 60.5 c 128,-1,19
 128 83 128 83 128 110 c 0,0,1
128 860 m 0,20,21
 128 886 128 886 137.5 909 c 128,-1,22
 147 932 147 932 163.5 949 c 128,-1,23
 180 966 180 966 203 976 c 128,-1,24
 226 986 226 986 252 986 c 256,25,26
 278 986 278 986 301 976 c 128,-1,27
 324 966 324 966 341 949 c 128,-1,28
 358 932 358 932 367.5 909 c 128,-1,29
 377 886 377 886 377 860 c 0,30,31
 377 833 377 833 367.5 810.5 c 128,-1,32
 358 788 358 788 341 771 c 128,-1,33
 324 754 324 754 301 744.5 c 128,-1,34
 278 735 278 735 252 735 c 256,35,36
 226 735 226 735 203 744.5 c 128,-1,37
 180 754 180 754 163.5 771 c 128,-1,38
 147 788 147 788 137.5 810.5 c 128,-1,39
 128 833 128 833 128 860 c 0,20,21
128 110 m 0,40,41
 128 136 128 136 137.5 159 c 128,-1,42
 147 182 147 182 163.5 199 c 128,-1,43
 180 216 180 216 203 226 c 128,-1,44
 226 236 226 236 252 236 c 256,45,46
 278 236 278 236 301 226 c 128,-1,47
 324 216 324 216 341 199 c 128,-1,48
 358 182 358 182 367.5 159 c 128,-1,49
 377 136 377 136 377 110 c 0,50,51
 377 83 377 83 367.5 60.5 c 128,-1,52
 358 38 358 38 341 21 c 128,-1,53
 324 4 324 4 301 -5.5 c 128,-1,54
 278 -15 278 -15 252 -15 c 256,55,56
 226 -15 226 -15 203 -5.5 c 128,-1,57
 180 4 180 4 163.5 21 c 128,-1,58
 147 38 147 38 137.5 60.5 c 128,-1,59
 128 83 128 83 128 110 c 0,40,41
128 860 m 0,60,61
 128 886 128 886 137.5 909 c 128,-1,62
 147 932 147 932 163.5 949 c 128,-1,63
 180 966 180 966 203 976 c 128,-1,64
 226 986 226 986 252 986 c 256,65,66
 278 986 278 986 301 976 c 128,-1,67
 324 966 324 966 341 949 c 128,-1,68
 358 932 358 932 367.5 909 c 128,-1,69
 377 886 377 886 377 860 c 0,70,71
 377 833 377 833 367.5 810.5 c 128,-1,72
 358 788 358 788 341 771 c 128,-1,73
 324 754 324 754 301 744.5 c 128,-1,74
 278 735 278 735 252 735 c 256,75,76
 226 735 226 735 203 744.5 c 128,-1,77
 180 754 180 754 163.5 771 c 128,-1,78
 147 788 147 788 137.5 810.5 c 128,-1,79
 128 833 128 833 128 860 c 0,60,61
EndSplineSet
Validated: 5
EndChar

StartChar: semicolon
Encoding: 59 59 26
Width: 504
Flags: W
LayerCount: 2
Fore
SplineSet
134 123 m 0,0,1
 134 146 134 146 142.5 166.5 c 128,-1,2
 151 187 151 187 166.5 202.5 c 128,-1,3
 182 218 182 218 204 227 c 128,-1,4
 226 236 226 236 252 236 c 0,5,6
 282 236 282 236 305.5 225 c 128,-1,7
 329 214 329 214 344.5 194.5 c 128,-1,8
 360 175 360 175 368 149.5 c 128,-1,9
 376 124 376 124 376 94 c 0,10,11
 376 49 376 49 363 0.5 c 128,-1,12
 350 -48 350 -48 326 -95.5 c 128,-1,13
 302 -143 302 -143 266.5 -188 c 128,-1,14
 231 -233 231 -233 186 -271 c 1,15,-1
 156 -242 l 2,16,17
 143 -230 143 -230 143 -214 c 0,18,19
 143 -201 143 -201 157 -187 c 0,20,21
 167 -176 167 -176 182.5 -157.5 c 128,-1,22
 198 -139 198 -139 214 -115 c 128,-1,23
 230 -91 230 -91 243.5 -62 c 128,-1,24
 257 -33 257 -33 263 0 c 1,25,-1
 250 0 l 2,26,27
 224 0 224 0 203 9 c 128,-1,28
 182 18 182 18 166.5 34.5 c 128,-1,29
 151 51 151 51 142.5 73.5 c 128,-1,30
 134 96 134 96 134 123 c 0,0,1
128 860 m 0,31,32
 128 886 128 886 137.5 909 c 128,-1,33
 147 932 147 932 163.5 949 c 128,-1,34
 180 966 180 966 203 976 c 128,-1,35
 226 986 226 986 252 986 c 256,36,37
 278 986 278 986 301 976 c 128,-1,38
 324 966 324 966 341 949 c 128,-1,39
 358 932 358 932 367.5 909 c 128,-1,40
 377 886 377 886 377 860 c 0,41,42
 377 833 377 833 367.5 810.5 c 128,-1,43
 358 788 358 788 341 771 c 128,-1,44
 324 754 324 754 301 744.5 c 128,-1,45
 278 735 278 735 252 735 c 256,46,47
 226 735 226 735 203 744.5 c 128,-1,48
 180 754 180 754 163.5 771 c 128,-1,49
 147 788 147 788 137.5 810.5 c 128,-1,50
 128 833 128 833 128 860 c 0,31,32
134 123 m 0,51,52
 134 146 134 146 142.5 166.5 c 128,-1,53
 151 187 151 187 166.5 202.5 c 128,-1,54
 182 218 182 218 204 227 c 128,-1,55
 226 236 226 236 252 236 c 0,56,57
 282 236 282 236 305.5 225 c 128,-1,58
 329 214 329 214 344.5 194.5 c 128,-1,59
 360 175 360 175 368 149.5 c 128,-1,60
 376 124 376 124 376 94 c 0,61,62
 376 49 376 49 363 0.5 c 128,-1,63
 350 -48 350 -48 326 -95.5 c 128,-1,64
 302 -143 302 -143 266.5 -188 c 128,-1,65
 231 -233 231 -233 186 -271 c 1,66,-1
 156 -242 l 2,67,68
 143 -230 143 -230 143 -214 c 0,69,70
 143 -201 143 -201 157 -187 c 0,71,72
 167 -176 167 -176 182.5 -157.5 c 128,-1,73
 198 -139 198 -139 214 -115 c 128,-1,74
 230 -91 230 -91 243.5 -62 c 128,-1,75
 257 -33 257 -33 263 0 c 1,76,-1
 250 0 l 2,77,78
 224 0 224 0 203 9 c 128,-1,79
 182 18 182 18 166.5 34.5 c 128,-1,80
 151 51 151 51 142.5 73.5 c 128,-1,81
 134 96 134 96 134 123 c 0,51,52
128 860 m 0,82,83
 128 886 128 886 137.5 909 c 128,-1,84
 147 932 147 932 163.5 949 c 128,-1,85
 180 966 180 966 203 976 c 128,-1,86
 226 986 226 986 252 986 c 256,87,88
 278 986 278 986 301 976 c 128,-1,89
 324 966 324 966 341 949 c 128,-1,90
 358 932 358 932 367.5 909 c 128,-1,91
 377 886 377 886 377 860 c 0,92,93
 377 833 377 833 367.5 810.5 c 128,-1,94
 358 788 358 788 341 771 c 128,-1,95
 324 754 324 754 301 744.5 c 128,-1,96
 278 735 278 735 252 735 c 256,97,98
 226 735 226 735 203 744.5 c 128,-1,99
 180 754 180 754 163.5 771 c 128,-1,100
 147 788 147 788 137.5 810.5 c 128,-1,101
 128 833 128 833 128 860 c 0,82,83
EndSplineSet
Validated: 5
EndChar

StartChar: less
Encoding: 60 60 27
Width: 1160
Flags: W
LayerCount: 2
Fore
SplineSet
148 710 m 1,0,-1
 922 1111 l 1,1,-1
 922 984 l 2,2,3
 922 967 922 967 914 954.5 c 128,-1,4
 906 942 906 942 886 932 c 2,5,-1
 437 704 l 2,6,7
 417 693 417 693 394.5 685.5 c 128,-1,8
 372 678 372 678 347 672 c 1,9,10
 372 667 372 667 394.5 659 c 128,-1,11
 417 651 417 651 437 641 c 2,12,-1
 886 414 l 2,13,14
 906 404 906 404 914 391 c 128,-1,15
 922 378 922 378 922 362 c 2,16,-1
 922 234 l 1,17,-1
 148 636 l 1,18,-1
 148 710 l 1,0,-1
148 710 m 1,19,-1
 922 1111 l 1,20,-1
 922 984 l 2,21,22
 922 967 922 967 914 954.5 c 128,-1,23
 906 942 906 942 886 932 c 2,24,-1
 437 704 l 2,25,26
 417 693 417 693 394.5 685.5 c 128,-1,27
 372 678 372 678 347 672 c 1,28,29
 372 667 372 667 394.5 659 c 128,-1,30
 417 651 417 651 437 641 c 2,31,-1
 886 414 l 2,32,33
 906 404 906 404 914 391 c 128,-1,34
 922 378 922 378 922 362 c 2,35,-1
 922 234 l 1,36,-1
 148 636 l 1,37,-1
 148 710 l 1,19,-1
EndSplineSet
Validated: 5
EndChar

StartChar: equal
Encoding: 61 61 28
Width: 1160
Flags: W
LayerCount: 2
Fore
SplineSet
150 574 m 1,0,-1
 1009 574 l 1,1,-1
 1009 439 l 1,2,-1
 150 439 l 1,3,-1
 150 574 l 1,0,-1
150 909 m 1,4,-1
 1009 909 l 1,5,-1
 1009 774 l 1,6,-1
 150 774 l 1,7,-1
 150 909 l 1,4,-1
150 574 m 1,8,-1
 1009 574 l 1,9,-1
 1009 439 l 1,10,-1
 150 439 l 1,11,-1
 150 574 l 1,8,-1
150 909 m 1,12,-1
 1009 909 l 1,13,-1
 1009 774 l 1,14,-1
 150 774 l 1,15,-1
 150 909 l 1,12,-1
EndSplineSet
Validated: 5
EndChar

StartChar: greater
Encoding: 62 62 29
Width: 1160
Flags: W
LayerCount: 2
Fore
SplineSet
238 234 m 1,0,-1
 238 362 l 2,1,2
 238 378 238 378 246 391 c 128,-1,3
 254 404 254 404 274 414 c 2,4,-1
 723 641 l 2,5,6
 743 651 743 651 764.5 659 c 128,-1,7
 786 667 786 667 811 672 c 1,8,9
 786 678 786 678 764.5 685.5 c 128,-1,10
 743 693 743 693 723 704 c 2,11,-1
 274 932 l 2,12,13
 254 942 254 942 246 954.5 c 128,-1,14
 238 967 238 967 238 984 c 2,15,-1
 238 1111 l 1,16,-1
 1011 710 l 1,17,-1
 1011 636 l 1,18,-1
 238 234 l 1,0,-1
238 234 m 1,19,-1
 238 362 l 2,20,21
 238 378 238 378 246 391 c 128,-1,22
 254 404 254 404 274 414 c 2,23,-1
 723 641 l 2,24,25
 743 651 743 651 764.5 659 c 128,-1,26
 786 667 786 667 811 672 c 1,27,28
 786 678 786 678 764.5 685.5 c 128,-1,29
 743 693 743 693 723 704 c 2,30,-1
 274 932 l 2,31,32
 254 942 254 942 246 954.5 c 128,-1,33
 238 967 238 967 238 984 c 2,34,-1
 238 1111 l 1,35,-1
 1011 710 l 1,36,-1
 1011 636 l 1,37,-1
 238 234 l 1,19,-1
EndSplineSet
Validated: 5
EndChar

StartChar: question
Encoding: 63 63 30
Width: 796
Flags: W
LayerCount: 2
Fore
SplineSet
34 1305 m 1,0,1
 65 1334 65 1334 102.5 1360 c 128,-1,2
 140 1386 140 1386 184.5 1406 c 128,-1,3
 229 1426 229 1426 280.5 1437.5 c 128,-1,4
 332 1449 332 1449 392 1449 c 0,5,6
 471 1449 471 1449 538.5 1426 c 128,-1,7
 606 1403 606 1403 655 1361 c 128,-1,8
 704 1319 704 1319 732 1259 c 128,-1,9
 760 1199 760 1199 760 1124 c 0,10,11
 760 1048 760 1048 737.5 993 c 128,-1,12
 715 938 715 938 680.5 896.5 c 128,-1,13
 646 855 646 855 605 824.5 c 128,-1,14
 564 794 564 794 528.5 767 c 128,-1,15
 493 740 493 740 467.5 713 c 128,-1,16
 442 686 442 686 438 653 c 2,17,-1
 420 500 l 1,18,-1
 298 500 l 1,19,-1
 286 666 l 1,20,-1
 286 677 l 2,21,22
 286 719 286 719 308.5 751.5 c 128,-1,23
 331 784 331 784 365.5 812.5 c 128,-1,24
 400 841 400 841 439.5 869.5 c 128,-1,25
 479 898 479 898 513.5 932.5 c 128,-1,26
 548 967 548 967 570.5 1011 c 128,-1,27
 593 1055 593 1055 593 1115 c 0,28,29
 593 1158 593 1158 576 1193 c 128,-1,30
 559 1228 559 1228 530 1252.5 c 128,-1,31
 501 1277 501 1277 461.5 1290 c 128,-1,32
 422 1303 422 1303 377 1303 c 0,33,34
 316 1303 316 1303 272.5 1288 c 128,-1,35
 229 1273 229 1273 199 1255 c 128,-1,36
 169 1237 169 1237 150.5 1222 c 128,-1,37
 132 1207 132 1207 120 1207 c 0,38,39
 95 1207 95 1207 81 1230 c 2,40,-1
 34 1305 l 1,0,1
230 110 m 0,41,42
 230 136 230 136 239.5 159 c 128,-1,43
 249 182 249 182 265.5 199 c 128,-1,44
 282 216 282 216 305 226 c 128,-1,45
 328 236 328 236 354 236 c 256,46,47
 380 236 380 236 403 226 c 128,-1,48
 426 216 426 216 443 199 c 128,-1,49
 460 182 460 182 469.5 159 c 128,-1,50
 479 136 479 136 479 110 c 0,51,52
 479 83 479 83 469.5 60.5 c 128,-1,53
 460 38 460 38 443 21 c 128,-1,54
 426 4 426 4 403 -5.5 c 128,-1,55
 380 -15 380 -15 354 -15 c 256,56,57
 328 -15 328 -15 305 -5.5 c 128,-1,58
 282 4 282 4 265.5 21 c 128,-1,59
 249 38 249 38 239.5 60.5 c 128,-1,60
 230 83 230 83 230 110 c 0,41,42
34 1305 m 1,61,62
 65 1334 65 1334 102.5 1360 c 128,-1,63
 140 1386 140 1386 184.5 1406 c 128,-1,64
 229 1426 229 1426 280.5 1437.5 c 128,-1,65
 332 1449 332 1449 392 1449 c 0,66,67
 471 1449 471 1449 538.5 1426 c 128,-1,68
 606 1403 606 1403 655 1361 c 128,-1,69
 704 1319 704 1319 732 1259 c 128,-1,70
 760 1199 760 1199 760 1124 c 0,71,72
 760 1048 760 1048 737.5 993 c 128,-1,73
 715 938 715 938 680.5 896.5 c 128,-1,74
 646 855 646 855 605 824.5 c 128,-1,75
 564 794 564 794 528.5 767 c 128,-1,76
 493 740 493 740 467.5 713 c 128,-1,77
 442 686 442 686 438 653 c 2,78,-1
 420 500 l 1,79,-1
 298 500 l 1,80,-1
 286 666 l 1,81,-1
 286 677 l 2,82,83
 286 719 286 719 308.5 751.5 c 128,-1,84
 331 784 331 784 365.5 812.5 c 128,-1,85
 400 841 400 841 439.5 869.5 c 128,-1,86
 479 898 479 898 513.5 932.5 c 128,-1,87
 548 967 548 967 570.5 1011 c 128,-1,88
 593 1055 593 1055 593 1115 c 0,89,90
 593 1158 593 1158 576 1193 c 128,-1,91
 559 1228 559 1228 530 1252.5 c 128,-1,92
 501 1277 501 1277 461.5 1290 c 128,-1,93
 422 1303 422 1303 377 1303 c 0,94,95
 316 1303 316 1303 272.5 1288 c 128,-1,96
 229 1273 229 1273 199 1255 c 128,-1,97
 169 1237 169 1237 150.5 1222 c 128,-1,98
 132 1207 132 1207 120 1207 c 0,99,100
 95 1207 95 1207 81 1230 c 2,101,-1
 34 1305 l 1,61,62
230 110 m 0,102,103
 230 136 230 136 239.5 159 c 128,-1,104
 249 182 249 182 265.5 199 c 128,-1,105
 282 216 282 216 305 226 c 128,-1,106
 328 236 328 236 354 236 c 256,107,108
 380 236 380 236 403 226 c 128,-1,109
 426 216 426 216 443 199 c 128,-1,110
 460 182 460 182 469.5 159 c 128,-1,111
 479 136 479 136 479 110 c 0,112,113
 479 83 479 83 469.5 60.5 c 128,-1,114
 460 38 460 38 443 21 c 128,-1,115
 426 4 426 4 403 -5.5 c 128,-1,116
 380 -15 380 -15 354 -15 c 256,117,118
 328 -15 328 -15 305 -5.5 c 128,-1,119
 282 4 282 4 265.5 21 c 128,-1,120
 249 38 249 38 239.5 60.5 c 128,-1,121
 230 83 230 83 230 110 c 0,102,103
EndSplineSet
Validated: 5
EndChar

StartChar: at
Encoding: 64 64 31
Width: 1644
Flags: W
LayerCount: 2
Fore
SplineSet
1167 186 m 0,0,1
 1089 186 1089 186 1040 223.5 c 128,-1,2
 991 261 991 261 978 339 c 1,3,4
 920 258 920 258 852 223 c 128,-1,5
 784 188 784 188 706 188 c 0,6,7
 646 188 646 188 602 208.5 c 128,-1,8
 558 229 558 229 528.5 265.5 c 128,-1,9
 499 302 499 302 484.5 352 c 128,-1,10
 470 402 470 402 470 460 c 0,11,12
 470 545 470 545 502.5 631.5 c 128,-1,13
 535 718 535 718 599 787.5 c 128,-1,14
 663 857 663 857 758.5 901 c 128,-1,15
 854 945 854 945 979 945 c 0,16,17
 1046 945 1046 945 1096.5 934.5 c 128,-1,18
 1147 924 1147 924 1192 904 c 1,19,-1
 1099 543 l 2,20,21
 1080 468 1080 468 1080 419 c 0,22,23
 1080 383 1080 383 1089 359.5 c 128,-1,24
 1098 336 1098 336 1113.5 322.5 c 128,-1,25
 1129 309 1129 309 1149.5 304 c 128,-1,26
 1170 299 1170 299 1193 299 c 0,27,28
 1242 299 1242 299 1286 327 c 128,-1,29
 1330 355 1330 355 1363.5 406 c 128,-1,30
 1397 457 1397 457 1416.5 528.5 c 128,-1,31
 1436 600 1436 600 1436 687 c 0,32,33
 1436 825 1436 825 1391.5 929 c 128,-1,34
 1347 1033 1347 1033 1269.5 1102.5 c 128,-1,35
 1192 1172 1192 1172 1086.5 1206.5 c 128,-1,36
 981 1241 981 1241 859 1241 c 0,37,38
 725 1241 725 1241 608 1190 c 128,-1,39
 491 1139 491 1139 404 1049 c 128,-1,40
 317 959 317 959 267 836 c 128,-1,41
 217 713 217 713 217 568 c 0,42,43
 217 398 217 398 270.5 269.5 c 128,-1,44
 324 141 324 141 416.5 54 c 128,-1,45
 509 -33 509 -33 633.5 -77 c 128,-1,46
 758 -121 758 -121 901 -121 c 0,47,48
 1053 -121 1053 -121 1169.5 -88 c 128,-1,49
 1286 -55 1286 -55 1371 -4 c 0,50,51
 1386 5 1386 5 1398 5 c 0,52,53
 1419 5 1419 5 1429 -19 c 2,54,-1
 1454 -85 l 1,55,56
 1347 -157 1347 -157 1210.5 -198 c 128,-1,57
 1074 -239 1074 -239 901 -239 c 256,58,59
 728 -239 728 -239 579 -184 c 128,-1,60
 430 -129 430 -129 320.5 -25.5 c 128,-1,61
 211 78 211 78 148.5 228 c 128,-1,62
 86 378 86 378 86 568 c 0,63,64
 86 677 86 677 113.5 778 c 128,-1,65
 141 879 141 879 191 966.5 c 128,-1,66
 241 1054 241 1054 311 1126.5 c 128,-1,67
 381 1199 381 1199 467 1250.5 c 128,-1,68
 553 1302 553 1302 652 1330.5 c 128,-1,69
 751 1359 751 1359 859 1359 c 0,70,71
 951 1359 951 1359 1039 1339 c 128,-1,72
 1127 1319 1127 1319 1205.5 1280 c 128,-1,73
 1284 1241 1284 1241 1350 1183.5 c 128,-1,74
 1416 1126 1416 1126 1463.5 1051.5 c 128,-1,75
 1511 977 1511 977 1537.5 885.5 c 128,-1,76
 1564 794 1564 794 1564 687 c 0,77,78
 1564 579 1564 579 1533.5 487.5 c 128,-1,79
 1503 396 1503 396 1449.5 329 c 128,-1,80
 1396 262 1396 262 1323.5 224 c 128,-1,81
 1251 186 1251 186 1167 186 c 0,0,1
741 306 m 0,82,83
 772 306 772 306 803.5 316 c 128,-1,84
 835 326 835 326 864.5 351 c 128,-1,85
 894 376 894 376 918.5 419 c 128,-1,86
 943 462 943 462 960 527 c 2,87,-1
 1036 822 l 1,88,89
 997 831 997 831 951 831 c 0,90,91
 876 831 876 831 813.5 799.5 c 128,-1,92
 751 768 751 768 706 717 c 128,-1,93
 661 666 661 666 635.5 600 c 128,-1,94
 610 534 610 534 610 465 c 0,95,96
 610 393 610 393 643 349.5 c 128,-1,97
 676 306 676 306 741 306 c 0,82,83
1167 186 m 0,98,99
 1089 186 1089 186 1040 223.5 c 128,-1,100
 991 261 991 261 978 339 c 1,101,102
 920 258 920 258 852 223 c 128,-1,103
 784 188 784 188 706 188 c 0,104,105
 646 188 646 188 602 208.5 c 128,-1,106
 558 229 558 229 528.5 265.5 c 128,-1,107
 499 302 499 302 484.5 352 c 128,-1,108
 470 402 470 402 470 460 c 0,109,110
 470 545 470 545 502.5 631.5 c 128,-1,111
 535 718 535 718 599 787.5 c 128,-1,112
 663 857 663 857 758.5 901 c 128,-1,113
 854 945 854 945 979 945 c 0,114,115
 1046 945 1046 945 1096.5 934.5 c 128,-1,116
 1147 924 1147 924 1192 904 c 1,117,-1
 1099 543 l 2,118,119
 1080 468 1080 468 1080 419 c 0,120,121
 1080 383 1080 383 1089 359.5 c 128,-1,122
 1098 336 1098 336 1113.5 322.5 c 128,-1,123
 1129 309 1129 309 1149.5 304 c 128,-1,124
 1170 299 1170 299 1193 299 c 0,125,126
 1242 299 1242 299 1286 327 c 128,-1,127
 1330 355 1330 355 1363.5 406 c 128,-1,128
 1397 457 1397 457 1416.5 528.5 c 128,-1,129
 1436 600 1436 600 1436 687 c 0,130,131
 1436 825 1436 825 1391.5 929 c 128,-1,132
 1347 1033 1347 1033 1269.5 1102.5 c 128,-1,133
 1192 1172 1192 1172 1086.5 1206.5 c 128,-1,134
 981 1241 981 1241 859 1241 c 0,135,136
 725 1241 725 1241 608 1190 c 128,-1,137
 491 1139 491 1139 404 1049 c 128,-1,138
 317 959 317 959 267 836 c 128,-1,139
 217 713 217 713 217 568 c 0,140,141
 217 398 217 398 270.5 269.5 c 128,-1,142
 324 141 324 141 416.5 54 c 128,-1,143
 509 -33 509 -33 633.5 -77 c 128,-1,144
 758 -121 758 -121 901 -121 c 0,145,146
 1053 -121 1053 -121 1169.5 -88 c 128,-1,147
 1286 -55 1286 -55 1371 -4 c 0,148,149
 1386 5 1386 5 1398 5 c 0,150,151
 1419 5 1419 5 1429 -19 c 2,152,-1
 1454 -85 l 1,153,154
 1347 -157 1347 -157 1210.5 -198 c 128,-1,155
 1074 -239 1074 -239 901 -239 c 256,156,157
 728 -239 728 -239 579 -184 c 128,-1,158
 430 -129 430 -129 320.5 -25.5 c 128,-1,159
 211 78 211 78 148.5 228 c 128,-1,160
 86 378 86 378 86 568 c 0,161,162
 86 677 86 677 113.5 778 c 128,-1,163
 141 879 141 879 191 966.5 c 128,-1,164
 241 1054 241 1054 311 1126.5 c 128,-1,165
 381 1199 381 1199 467 1250.5 c 128,-1,166
 553 1302 553 1302 652 1330.5 c 128,-1,167
 751 1359 751 1359 859 1359 c 0,168,169
 951 1359 951 1359 1039 1339 c 128,-1,170
 1127 1319 1127 1319 1205.5 1280 c 128,-1,171
 1284 1241 1284 1241 1350 1183.5 c 128,-1,172
 1416 1126 1416 1126 1463.5 1051.5 c 128,-1,173
 1511 977 1511 977 1537.5 885.5 c 128,-1,174
 1564 794 1564 794 1564 687 c 0,175,176
 1564 579 1564 579 1533.5 487.5 c 128,-1,177
 1503 396 1503 396 1449.5 329 c 128,-1,178
 1396 262 1396 262 1323.5 224 c 128,-1,179
 1251 186 1251 186 1167 186 c 0,98,99
741 306 m 0,180,181
 772 306 772 306 803.5 316 c 128,-1,182
 835 326 835 326 864.5 351 c 128,-1,183
 894 376 894 376 918.5 419 c 128,-1,184
 943 462 943 462 960 527 c 2,185,-1
 1036 822 l 1,186,187
 997 831 997 831 951 831 c 0,188,189
 876 831 876 831 813.5 799.5 c 128,-1,190
 751 768 751 768 706 717 c 128,-1,191
 661 666 661 666 635.5 600 c 128,-1,192
 610 534 610 534 610 465 c 0,193,194
 610 393 610 393 643 349.5 c 128,-1,195
 676 306 676 306 741 306 c 0,180,181
EndSplineSet
Validated: 1029
EndChar

StartChar: A
Encoding: 65 65 32
Width: 1360
Flags: W
LayerCount: 2
Fore
SplineSet
1353 0 m 1,0,-1
 1203 0 l 2,1,2
 1177 0 1177 0 1161 13 c 128,-1,3
 1145 26 1145 26 1137 46 c 2,4,-1
 1003 392 l 1,5,-1
 360 392 l 1,6,-1
 226 46 l 2,7,8
 219 28 219 28 202 14 c 128,-1,9
 185 0 185 0 160 0 c 2,10,-1
 10 0 l 1,11,-1
 583 1433 l 1,12,-1
 780 1433 l 1,13,-1
 1353 0 l 1,0,-1
414 532 m 1,14,-1
 949 532 l 1,15,-1
 724 1115 l 2,16,17
 702 1169 702 1169 681 1250 c 1,18,19
 670 1209 670 1209 659.5 1174.5 c 128,-1,20
 649 1140 649 1140 639 1114 c 2,21,-1
 414 532 l 1,14,-1
1353 0 m 1,22,-1
 1203 0 l 2,23,24
 1177 0 1177 0 1161 13 c 128,-1,25
 1145 26 1145 26 1137 46 c 2,26,-1
 1003 392 l 1,27,-1
 360 392 l 1,28,-1
 226 46 l 2,29,30
 219 28 219 28 202 14 c 128,-1,31
 185 0 185 0 160 0 c 2,32,-1
 10 0 l 1,33,-1
 583 1433 l 1,34,-1
 780 1433 l 1,35,-1
 1353 0 l 1,22,-1
414 532 m 1,36,-1
 949 532 l 1,37,-1
 724 1115 l 2,38,39
 702 1169 702 1169 681 1250 c 1,40,41
 670 1209 670 1209 659.5 1174.5 c 128,-1,42
 649 1140 649 1140 639 1114 c 2,43,-1
 414 532 l 1,36,-1
EndSplineSet
Validated: 5
EndChar

StartChar: B
Encoding: 66 66 33
Width: 1294
Flags: W
LayerCount: 2
Fore
SplineSet
174 0 m 1,0,-1
 174 1433 l 1,1,-1
 631 1433 l 2,2,3
 763 1433 763 1433 858.5 1407 c 128,-1,4
 954 1381 954 1381 1015.5 1333 c 128,-1,5
 1077 1285 1077 1285 1106.5 1215.5 c 128,-1,6
 1136 1146 1136 1146 1136 1059 c 0,7,8
 1136 1006 1136 1006 1119.5 957 c 128,-1,9
 1103 908 1103 908 1069.5 866 c 128,-1,10
 1036 824 1036 824 985.5 791 c 128,-1,11
 935 758 935 758 867 737 c 1,12,13
 1024 706 1024 706 1104 624 c 128,-1,14
 1184 542 1184 542 1184 408 c 0,15,16
 1184 317 1184 317 1150.5 242 c 128,-1,17
 1117 167 1117 167 1052.5 113 c 128,-1,18
 988 59 988 59 894.5 29.5 c 128,-1,19
 801 0 801 0 681 0 c 2,20,-1
 174 0 l 1,0,-1
368 653 m 1,21,-1
 368 154 l 1,22,-1
 678 154 l 2,23,24
 761 154 761 154 820.5 173 c 128,-1,25
 880 192 880 192 918.5 226.5 c 128,-1,26
 957 261 957 261 975 308.5 c 128,-1,27
 993 356 993 356 993 413 c 0,28,29
 993 524 993 524 914.5 588.5 c 128,-1,30
 836 653 836 653 677 653 c 2,31,-1
 368 653 l 1,21,-1
368 791 m 1,32,-1
 624 791 l 2,33,34
 706 791 706 791 766 809 c 128,-1,35
 826 827 826 827 865.5 859 c 128,-1,36
 905 891 905 891 924 936.5 c 128,-1,37
 943 982 943 982 943 1036 c 0,38,39
 943 1162 943 1162 867 1221 c 128,-1,40
 791 1280 791 1280 631 1280 c 2,41,-1
 368 1280 l 1,42,-1
 368 791 l 1,32,-1
174 0 m 1,43,-1
 174 1433 l 1,44,-1
 631 1433 l 2,45,46
 763 1433 763 1433 858.5 1407 c 128,-1,47
 954 1381 954 1381 1015.5 1333 c 128,-1,48
 1077 1285 1077 1285 1106.5 1215.5 c 128,-1,49
 1136 1146 1136 1146 1136 1059 c 0,50,51
 1136 1006 1136 1006 1119.5 957 c 128,-1,52
 1103 908 1103 908 1069.5 866 c 128,-1,53
 1036 824 1036 824 985.5 791 c 128,-1,54
 935 758 935 758 867 737 c 1,55,56
 1024 706 1024 706 1104 624 c 128,-1,57
 1184 542 1184 542 1184 408 c 0,58,59
 1184 317 1184 317 1150.5 242 c 128,-1,60
 1117 167 1117 167 1052.5 113 c 128,-1,61
 988 59 988 59 894.5 29.5 c 128,-1,62
 801 0 801 0 681 0 c 2,63,-1
 174 0 l 1,43,-1
368 653 m 1,64,-1
 368 154 l 1,65,-1
 678 154 l 2,66,67
 761 154 761 154 820.5 173 c 128,-1,68
 880 192 880 192 918.5 226.5 c 128,-1,69
 957 261 957 261 975 308.5 c 128,-1,70
 993 356 993 356 993 413 c 0,71,72
 993 524 993 524 914.5 588.5 c 128,-1,73
 836 653 836 653 677 653 c 2,74,-1
 368 653 l 1,64,-1
368 791 m 1,75,-1
 624 791 l 2,76,77
 706 791 706 791 766 809 c 128,-1,78
 826 827 826 827 865.5 859 c 128,-1,79
 905 891 905 891 924 936.5 c 128,-1,80
 943 982 943 982 943 1036 c 0,81,82
 943 1162 943 1162 867 1221 c 128,-1,83
 791 1280 791 1280 631 1280 c 2,84,-1
 368 1280 l 1,85,-1
 368 791 l 1,75,-1
EndSplineSet
Validated: 5
EndChar

StartChar: C
Encoding: 67 67 34
Width: 1370
Flags: W
LayerCount: 2
Fore
SplineSet
1184 296 m 256,0,1
 1200 296 1200 296 1213 283 c 2,2,-1
 1289 200 l 1,3,4
 1201 98 1201 98 1075.5 41 c 128,-1,5
 950 -16 950 -16 773 -16 c 0,6,7
 618 -16 618 -16 492 37.5 c 128,-1,8
 366 91 366 91 277 187.5 c 128,-1,9
 188 284 188 284 139 419 c 128,-1,10
 90 554 90 554 90 716 c 256,11,12
 90 878 90 878 142.5 1013 c 128,-1,13
 195 1148 195 1148 290 1245 c 128,-1,14
 385 1342 385 1342 517.5 1395.5 c 128,-1,15
 650 1449 650 1449 810 1449 c 0,16,17
 968 1449 968 1449 1082.5 1400 c 128,-1,18
 1197 1351 1197 1351 1286 1267 c 1,19,-1
 1223 1178 l 2,20,21
 1216 1168 1216 1168 1207 1161.5 c 128,-1,22
 1198 1155 1198 1155 1181 1155 c 0,23,24
 1168 1155 1168 1155 1153.5 1164.5 c 128,-1,25
 1139 1174 1139 1174 1119 1188 c 128,-1,26
 1099 1202 1099 1202 1072 1218 c 128,-1,27
 1045 1234 1045 1234 1008 1248 c 128,-1,28
 971 1262 971 1262 922 1271.5 c 128,-1,29
 873 1281 873 1281 809 1281 c 0,30,31
 694 1281 694 1281 598.5 1241.5 c 128,-1,32
 503 1202 503 1202 434 1129 c 128,-1,33
 365 1056 365 1056 326.5 951 c 128,-1,34
 288 846 288 846 288 716 c 0,35,36
 288 582 288 582 326.5 477 c 128,-1,37
 365 372 365 372 431.5 299.5 c 128,-1,38
 498 227 498 227 589 189 c 128,-1,39
 680 151 680 151 785 151 c 0,40,41
 849 151 849 151 900 158.5 c 128,-1,42
 951 166 951 166 994.5 182 c 128,-1,43
 1038 198 1038 198 1075.5 222.5 c 128,-1,44
 1113 247 1113 247 1151 281 c 0,45,46
 1168 296 1168 296 1184 296 c 256,0,1
1184 296 m 256,47,48
 1200 296 1200 296 1213 283 c 2,49,-1
 1289 200 l 1,50,51
 1201 98 1201 98 1075.5 41 c 128,-1,52
 950 -16 950 -16 773 -16 c 0,53,54
 618 -16 618 -16 492 37.5 c 128,-1,55
 366 91 366 91 277 187.5 c 128,-1,56
 188 284 188 284 139 419 c 128,-1,57
 90 554 90 554 90 716 c 256,58,59
 90 878 90 878 142.5 1013 c 128,-1,60
 195 1148 195 1148 290 1245 c 128,-1,61
 385 1342 385 1342 517.5 1395.5 c 128,-1,62
 650 1449 650 1449 810 1449 c 0,63,64
 968 1449 968 1449 1082.5 1400 c 128,-1,65
 1197 1351 1197 1351 1286 1267 c 1,66,-1
 1223 1178 l 2,67,68
 1216 1168 1216 1168 1207 1161.5 c 128,-1,69
 1198 1155 1198 1155 1181 1155 c 0,70,71
 1168 1155 1168 1155 1153.5 1164.5 c 128,-1,72
 1139 1174 1139 1174 1119 1188 c 128,-1,73
 1099 1202 1099 1202 1072 1218 c 128,-1,74
 1045 1234 1045 1234 1008 1248 c 128,-1,75
 971 1262 971 1262 922 1271.5 c 128,-1,76
 873 1281 873 1281 809 1281 c 0,77,78
 694 1281 694 1281 598.5 1241.5 c 128,-1,79
 503 1202 503 1202 434 1129 c 128,-1,80
 365 1056 365 1056 326.5 951 c 128,-1,81
 288 846 288 846 288 716 c 0,82,83
 288 582 288 582 326.5 477 c 128,-1,84
 365 372 365 372 431.5 299.5 c 128,-1,85
 498 227 498 227 589 189 c 128,-1,86
 680 151 680 151 785 151 c 0,87,88
 849 151 849 151 900 158.5 c 128,-1,89
 951 166 951 166 994.5 182 c 128,-1,90
 1038 198 1038 198 1075.5 222.5 c 128,-1,91
 1113 247 1113 247 1151 281 c 0,92,93
 1168 296 1168 296 1184 296 c 256,47,48
EndSplineSet
Validated: 5
EndChar

StartChar: D
Encoding: 68 68 35
Width: 1506
Flags: W
LayerCount: 2
Fore
SplineSet
1416 716 m 256,0,1
 1416 555 1416 555 1365 423 c 128,-1,2
 1314 291 1314 291 1221 197 c 128,-1,3
 1128 103 1128 103 998 51.5 c 128,-1,4
 868 0 868 0 710 0 c 2,5,-1
 174 0 l 1,6,-1
 174 1433 l 1,7,-1
 710 1433 l 2,8,9
 868 1433 868 1433 998 1381.5 c 128,-1,10
 1128 1330 1128 1330 1221 1235.5 c 128,-1,11
 1314 1141 1314 1141 1365 1009 c 128,-1,12
 1416 877 1416 877 1416 716 c 256,0,1
1217 716 m 256,13,14
 1217 848 1217 848 1181 952 c 128,-1,15
 1145 1056 1145 1056 1079 1128 c 128,-1,16
 1013 1200 1013 1200 919 1238 c 128,-1,17
 825 1276 825 1276 710 1276 c 2,18,-1
 369 1276 l 1,19,-1
 369 157 l 1,20,-1
 710 157 l 2,21,22
 825 157 825 157 919 195 c 128,-1,23
 1013 233 1013 233 1079 304.5 c 128,-1,24
 1145 376 1145 376 1181 480 c 128,-1,25
 1217 584 1217 584 1217 716 c 256,13,14
1416 716 m 256,26,27
 1416 555 1416 555 1365 423 c 128,-1,28
 1314 291 1314 291 1221 197 c 128,-1,29
 1128 103 1128 103 998 51.5 c 128,-1,30
 868 0 868 0 710 0 c 2,31,-1
 174 0 l 1,32,-1
 174 1433 l 1,33,-1
 710 1433 l 2,34,35
 868 1433 868 1433 998 1381.5 c 128,-1,36
 1128 1330 1128 1330 1221 1235.5 c 128,-1,37
 1314 1141 1314 1141 1365 1009 c 128,-1,38
 1416 877 1416 877 1416 716 c 256,26,27
1217 716 m 256,39,40
 1217 848 1217 848 1181 952 c 128,-1,41
 1145 1056 1145 1056 1079 1128 c 128,-1,42
 1013 1200 1013 1200 919 1238 c 128,-1,43
 825 1276 825 1276 710 1276 c 2,44,-1
 369 1276 l 1,45,-1
 369 157 l 1,46,-1
 710 157 l 2,47,48
 825 157 825 157 919 195 c 128,-1,49
 1013 233 1013 233 1079 304.5 c 128,-1,50
 1145 376 1145 376 1181 480 c 128,-1,51
 1217 584 1217 584 1217 716 c 256,39,40
EndSplineSet
Validated: 5
EndChar

StartChar: E
Encoding: 69 69 36
Width: 1162
Flags: W
LayerCount: 2
Fore
SplineSet
1057 1433 m 1,0,-1
 1057 1275 l 1,1,-1
 369 1275 l 1,2,-1
 369 799 l 1,3,-1
 926 799 l 1,4,-1
 926 647 l 1,5,-1
 369 647 l 1,6,-1
 369 158 l 1,7,-1
 1057 158 l 1,8,-1
 1057 0 l 1,9,-1
 174 0 l 1,10,-1
 174 1433 l 1,11,-1
 1057 1433 l 1,0,-1
1057 1433 m 1,12,-1
 1057 1275 l 1,13,-1
 369 1275 l 1,14,-1
 369 799 l 1,15,-1
 926 799 l 1,16,-1
 926 647 l 1,17,-1
 369 647 l 1,18,-1
 369 158 l 1,19,-1
 1057 158 l 1,20,-1
 1057 0 l 1,21,-1
 174 0 l 1,22,-1
 174 1433 l 1,23,-1
 1057 1433 l 1,12,-1
EndSplineSet
Validated: 5
EndChar

StartChar: F
Encoding: 70 70 37
Width: 1132
Flags: W
LayerCount: 2
Fore
SplineSet
1057 1433 m 1,0,-1
 1057 1275 l 1,1,-1
 369 1275 l 1,2,-1
 369 774 l 1,3,-1
 957 774 l 1,4,-1
 957 616 l 1,5,-1
 369 616 l 1,6,-1
 369 0 l 1,7,-1
 174 0 l 1,8,-1
 174 1433 l 1,9,-1
 1057 1433 l 1,0,-1
1057 1433 m 1,10,-1
 1057 1275 l 1,11,-1
 369 1275 l 1,12,-1
 369 774 l 1,13,-1
 957 774 l 1,14,-1
 957 616 l 1,15,-1
 369 616 l 1,16,-1
 369 0 l 1,17,-1
 174 0 l 1,18,-1
 174 1433 l 1,19,-1
 1057 1433 l 1,10,-1
EndSplineSet
Validated: 5
EndChar

StartChar: G
Encoding: 71 71 38
Width: 1468
Flags: W
LayerCount: 2
Fore
SplineSet
813 141 m 0,0,1
 871 141 871 141 919.5 146.5 c 128,-1,2
 968 152 968 152 1011 163 c 128,-1,3
 1054 174 1054 174 1092 189.5 c 128,-1,4
 1130 205 1130 205 1168 225 c 1,5,-1
 1168 541 l 1,6,-1
 946 541 l 2,7,8
 927 541 927 541 915.5 552 c 128,-1,9
 904 563 904 563 904 579 c 2,10,-1
 904 689 l 1,11,-1
 1344 689 l 1,12,-1
 1344 139 l 1,13,14
 1290 100 1290 100 1231.5 71 c 128,-1,15
 1173 42 1173 42 1106.5 22.5 c 128,-1,16
 1040 3 1040 3 964 -6.5 c 128,-1,17
 888 -16 888 -16 799 -16 c 0,18,19
 643 -16 643 -16 513 37.5 c 128,-1,20
 383 91 383 91 289 187.5 c 128,-1,21
 195 284 195 284 142.5 419 c 128,-1,22
 90 554 90 554 90 716 c 0,23,24
 90 880 90 880 141.5 1015 c 128,-1,25
 193 1150 193 1150 288.5 1246.5 c 128,-1,26
 384 1343 384 1343 519.5 1396 c 128,-1,27
 655 1449 655 1449 823 1449 c 0,28,29
 908 1449 908 1449 981 1436.5 c 128,-1,30
 1054 1424 1054 1424 1116.5 1400.5 c 128,-1,31
 1179 1377 1179 1377 1232 1343.5 c 128,-1,32
 1285 1310 1285 1310 1331 1268 c 1,33,-1
 1276 1180 l 2,34,35
 1259 1153 1259 1153 1232 1153 c 0,36,37
 1216 1153 1216 1153 1197 1164 c 0,38,39
 1172 1178 1172 1178 1141 1198 c 128,-1,40
 1110 1218 1110 1218 1065.5 1236.5 c 128,-1,41
 1021 1255 1021 1255 960.5 1268 c 128,-1,42
 900 1281 900 1281 817 1281 c 0,43,44
 696 1281 696 1281 598 1241.5 c 128,-1,45
 500 1202 500 1202 431 1128.5 c 128,-1,46
 362 1055 362 1055 325 950.5 c 128,-1,47
 288 846 288 846 288 716 c 0,48,49
 288 580 288 580 326.5 473.5 c 128,-1,50
 365 367 365 367 435 293 c 128,-1,51
 505 219 505 219 601 180 c 128,-1,52
 697 141 697 141 813 141 c 0,0,1
813 141 m 0,53,54
 871 141 871 141 919.5 146.5 c 128,-1,55
 968 152 968 152 1011 163 c 128,-1,56
 1054 174 1054 174 1092 189.5 c 128,-1,57
 1130 205 1130 205 1168 225 c 1,58,-1
 1168 541 l 1,59,-1
 946 541 l 2,60,61
 927 541 927 541 915.5 552 c 128,-1,62
 904 563 904 563 904 579 c 2,63,-1
 904 689 l 1,64,-1
 1344 689 l 1,65,-1
 1344 139 l 1,66,67
 1290 100 1290 100 1231.5 71 c 128,-1,68
 1173 42 1173 42 1106.5 22.5 c 128,-1,69
 1040 3 1040 3 964 -6.5 c 128,-1,70
 888 -16 888 -16 799 -16 c 0,71,72
 643 -16 643 -16 513 37.5 c 128,-1,73
 383 91 383 91 289 187.5 c 128,-1,74
 195 284 195 284 142.5 419 c 128,-1,75
 90 554 90 554 90 716 c 0,76,77
 90 880 90 880 141.5 1015 c 128,-1,78
 193 1150 193 1150 288.5 1246.5 c 128,-1,79
 384 1343 384 1343 519.5 1396 c 128,-1,80
 655 1449 655 1449 823 1449 c 0,81,82
 908 1449 908 1449 981 1436.5 c 128,-1,83
 1054 1424 1054 1424 1116.5 1400.5 c 128,-1,84
 1179 1377 1179 1377 1232 1343.5 c 128,-1,85
 1285 1310 1285 1310 1331 1268 c 1,86,-1
 1276 1180 l 2,87,88
 1259 1153 1259 1153 1232 1153 c 0,89,90
 1216 1153 1216 1153 1197 1164 c 0,91,92
 1172 1178 1172 1178 1141 1198 c 128,-1,93
 1110 1218 1110 1218 1065.5 1236.5 c 128,-1,94
 1021 1255 1021 1255 960.5 1268 c 128,-1,95
 900 1281 900 1281 817 1281 c 0,96,97
 696 1281 696 1281 598 1241.5 c 128,-1,98
 500 1202 500 1202 431 1128.5 c 128,-1,99
 362 1055 362 1055 325 950.5 c 128,-1,100
 288 846 288 846 288 716 c 0,101,102
 288 580 288 580 326.5 473.5 c 128,-1,103
 365 367 365 367 435 293 c 128,-1,104
 505 219 505 219 601 180 c 128,-1,105
 697 141 697 141 813 141 c 0,53,54
EndSplineSet
Validated: 5
EndChar

StartChar: H
Encoding: 72 72 39
Width: 1512
Flags: W
LayerCount: 2
Fore
SplineSet
1336 0 m 1,0,-1
 1141 0 l 1,1,-1
 1141 652 l 1,2,-1
 369 652 l 1,3,-1
 369 0 l 1,4,-1
 174 0 l 1,5,-1
 174 1433 l 1,6,-1
 369 1433 l 1,7,-1
 369 794 l 1,8,-1
 1141 794 l 1,9,-1
 1141 1433 l 1,10,-1
 1336 1433 l 1,11,-1
 1336 0 l 1,0,-1
1336 0 m 1,12,-1
 1141 0 l 1,13,-1
 1141 652 l 1,14,-1
 369 652 l 1,15,-1
 369 0 l 1,16,-1
 174 0 l 1,17,-1
 174 1433 l 1,18,-1
 369 1433 l 1,19,-1
 369 794 l 1,20,-1
 1141 794 l 1,21,-1
 1141 1433 l 1,22,-1
 1336 1433 l 1,23,-1
 1336 0 l 1,12,-1
EndSplineSet
Validated: 5
EndChar

StartChar: I
Encoding: 73 73 40
Width: 614
Flags: W
LayerCount: 2
Fore
SplineSet
404 0 m 1,0,-1
 210 0 l 1,1,-1
 210 1433 l 1,2,-1
 404 1433 l 1,3,-1
 404 0 l 1,0,-1
404 0 m 1,4,-1
 210 0 l 1,5,-1
 210 1433 l 1,6,-1
 404 1433 l 1,7,-1
 404 0 l 1,4,-1
EndSplineSet
Validated: 5
EndChar

StartChar: J
Encoding: 74 74 41
Width: 888
Flags: W
LayerCount: 2
Fore
SplineSet
713 495 m 2,0,1
 713 375 713 375 683.5 280 c 128,-1,2
 654 185 654 185 596.5 119.5 c 128,-1,3
 539 54 539 54 455 19 c 128,-1,4
 371 -16 371 -16 262 -16 c 0,5,6
 165 -16 165 -16 60 12 c 1,7,8
 62 41 62 41 65 69.5 c 128,-1,9
 68 98 68 98 71 126 c 0,10,11
 73 143 73 143 83.5 153.5 c 128,-1,12
 94 164 94 164 115 164 c 0,13,14
 133 164 133 164 163 155 c 128,-1,15
 193 146 193 146 243 146 c 0,16,17
 309 146 309 146 360.5 166 c 128,-1,18
 412 186 412 186 447.5 228 c 128,-1,19
 483 270 483 270 501.5 335.5 c 128,-1,20
 520 401 520 401 520 491 c 2,21,-1
 520 1433 l 1,22,-1
 713 1433 l 1,23,-1
 713 495 l 2,0,1
713 495 m 2,24,25
 713 375 713 375 683.5 280 c 128,-1,26
 654 185 654 185 596.5 119.5 c 128,-1,27
 539 54 539 54 455 19 c 128,-1,28
 371 -16 371 -16 262 -16 c 0,29,30
 165 -16 165 -16 60 12 c 1,31,32
 62 41 62 41 65 69.5 c 128,-1,33
 68 98 68 98 71 126 c 0,34,35
 73 143 73 143 83.5 153.5 c 128,-1,36
 94 164 94 164 115 164 c 0,37,38
 133 164 133 164 163 155 c 128,-1,39
 193 146 193 146 243 146 c 0,40,41
 309 146 309 146 360.5 166 c 128,-1,42
 412 186 412 186 447.5 228 c 128,-1,43
 483 270 483 270 501.5 335.5 c 128,-1,44
 520 401 520 401 520 491 c 2,45,-1
 520 1433 l 1,46,-1
 713 1433 l 1,47,-1
 713 495 l 2,24,25
EndSplineSet
Validated: 5
EndChar

StartChar: K
Encoding: 75 75 42
Width: 1362
Flags: W
LayerCount: 2
Fore
SplineSet
387 805 m 1,0,-1
 460 805 l 2,1,2
 498 805 498 805 520.5 814.5 c 128,-1,3
 543 824 543 824 563 847 c 2,4,-1
 1040 1387 l 2,5,6
 1062 1412 1062 1412 1082.5 1422.5 c 128,-1,7
 1103 1433 1103 1433 1135 1433 c 2,8,-1
 1300 1433 l 1,9,-1
 754 816 l 2,10,11
 733 793 733 793 714.5 777 c 128,-1,12
 696 761 696 761 675 751 c 1,13,14
 703 742 703 742 724 724 c 128,-1,15
 745 706 745 706 768 679 c 2,16,-1
 1338 0 l 1,17,-1
 1170 0 l 2,18,19
 1151 0 1151 0 1138 3 c 128,-1,20
 1125 6 1125 6 1115.5 11 c 128,-1,21
 1106 16 1106 16 1098 24 c 128,-1,22
 1090 32 1090 32 1082 41 c 2,23,-1
 587 610 l 2,24,25
 576 622 576 622 566.5 630.5 c 128,-1,26
 557 639 557 639 544.5 645 c 128,-1,27
 532 651 532 651 515.5 653.5 c 128,-1,28
 499 656 499 656 475 656 c 2,29,-1
 387 656 l 1,30,-1
 387 0 l 1,31,-1
 194 0 l 1,32,-1
 194 1433 l 1,33,-1
 387 1433 l 1,34,-1
 387 805 l 1,0,-1
387 805 m 1,35,-1
 460 805 l 2,36,37
 498 805 498 805 520.5 814.5 c 128,-1,38
 543 824 543 824 563 847 c 2,39,-1
 1040 1387 l 2,40,41
 1062 1412 1062 1412 1082.5 1422.5 c 128,-1,42
 1103 1433 1103 1433 1135 1433 c 2,43,-1
 1300 1433 l 1,44,-1
 754 816 l 2,45,46
 733 793 733 793 714.5 777 c 128,-1,47
 696 761 696 761 675 751 c 1,48,49
 703 742 703 742 724 724 c 128,-1,50
 745 706 745 706 768 679 c 2,51,-1
 1338 0 l 1,52,-1
 1170 0 l 2,53,54
 1151 0 1151 0 1138 3 c 128,-1,55
 1125 6 1125 6 1115.5 11 c 128,-1,56
 1106 16 1106 16 1098 24 c 128,-1,57
 1090 32 1090 32 1082 41 c 2,58,-1
 587 610 l 2,59,60
 576 622 576 622 566.5 630.5 c 128,-1,61
 557 639 557 639 544.5 645 c 128,-1,62
 532 651 532 651 515.5 653.5 c 128,-1,63
 499 656 499 656 475 656 c 2,64,-1
 387 656 l 1,65,-1
 387 0 l 1,66,-1
 194 0 l 1,67,-1
 194 1433 l 1,68,-1
 387 1433 l 1,69,-1
 387 805 l 1,35,-1
EndSplineSet
Validated: 5
EndChar

StartChar: L
Encoding: 76 76 43
Width: 1028
Flags: W
LayerCount: 2
Fore
SplineSet
368 163 m 1,0,-1
 988 163 l 1,1,-1
 988 0 l 1,2,-1
 174 0 l 1,3,-1
 174 1433 l 1,4,-1
 368 1433 l 1,5,-1
 368 163 l 1,0,-1
368 163 m 1,6,-1
 988 163 l 1,7,-1
 988 0 l 1,8,-1
 174 0 l 1,9,-1
 174 1433 l 1,10,-1
 368 1433 l 1,11,-1
 368 163 l 1,6,-1
EndSplineSet
Validated: 5
EndChar

StartChar: M
Encoding: 77 77 44
Width: 1840
Flags: W
LayerCount: 2
Fore
SplineSet
879 518 m 1,0,1
 893 494 893 494 903.5 467.5 c 128,-1,2
 914 441 914 441 924 414 c 1,3,4
 934 442 934 442 945 467.5 c 128,-1,5
 956 493 956 493 970 519 c 2,6,-1
 1455 1400 l 2,7,8
 1468 1423 1468 1423 1482 1428 c 128,-1,9
 1496 1433 1496 1433 1522 1433 c 2,10,-1
 1665 1433 l 1,11,-1
 1665 0 l 1,12,-1
 1495 0 l 1,13,-1
 1495 1053 l 2,14,15
 1495 1074 1495 1074 1496 1098 c 128,-1,16
 1497 1122 1497 1122 1499 1147 c 1,17,-1
 1008 251 l 2,18,19
 983 206 983 206 938 206 c 2,20,-1
 910 206 l 2,21,22
 865 206 865 206 840 251 c 2,23,-1
 338 1150 l 1,24,25
 341 1124 341 1124 342.5 1099 c 128,-1,26
 344 1074 344 1074 344 1053 c 2,27,-1
 344 0 l 1,28,-1
 174 0 l 1,29,-1
 174 1433 l 1,30,-1
 317 1433 l 2,31,32
 343 1433 343 1433 357 1428 c 128,-1,33
 371 1423 371 1423 384 1400 c 2,34,-1
 879 518 l 1,35,-1
 879 518 l 1,0,1
879 518 m 1,36,37
 893 494 893 494 903.5 467.5 c 128,-1,38
 914 441 914 441 924 414 c 1,39,40
 934 442 934 442 945 467.5 c 128,-1,41
 956 493 956 493 970 519 c 2,42,-1
 1455 1400 l 2,43,44
 1468 1423 1468 1423 1482 1428 c 128,-1,45
 1496 1433 1496 1433 1522 1433 c 2,46,-1
 1665 1433 l 1,47,-1
 1665 0 l 1,48,-1
 1495 0 l 1,49,-1
 1495 1053 l 2,50,51
 1495 1074 1495 1074 1496 1098 c 128,-1,52
 1497 1122 1497 1122 1499 1147 c 1,53,-1
 1008 251 l 2,54,55
 983 206 983 206 938 206 c 2,56,-1
 910 206 l 2,57,58
 865 206 865 206 840 251 c 2,59,-1
 338 1150 l 1,60,61
 341 1124 341 1124 342.5 1099 c 128,-1,62
 344 1074 344 1074 344 1053 c 2,63,-1
 344 0 l 1,64,-1
 174 0 l 1,65,-1
 174 1433 l 1,66,-1
 317 1433 l 2,67,68
 343 1433 343 1433 357 1428 c 128,-1,69
 371 1423 371 1423 384 1400 c 2,70,-1
 879 518 l 1,71,-1
 879 518 l 1,36,37
EndSplineSet
Validated: 5
EndChar

StartChar: N
Encoding: 78 78 45
Width: 1512
Flags: W
LayerCount: 2
Fore
SplineSet
274 1433 m 1,0,1
 300 1433 300 1433 312.5 1426.5 c 128,-1,2
 325 1420 325 1420 341 1400 c 2,3,-1
 1171 320 l 1,4,5
 1168 346 1168 346 1167 370.5 c 128,-1,6
 1166 395 1166 395 1166 418 c 2,7,-1
 1166 1433 l 1,8,-1
 1336 1433 l 1,9,-1
 1336 0 l 1,10,-1
 1238 0 l 2,11,12
 1215 0 1215 0 1199.5 8 c 128,-1,13
 1184 16 1184 16 1169 35 c 2,14,-1
 340 1114 l 1,15,16
 342 1089 342 1089 343 1065 c 128,-1,17
 344 1041 344 1041 344 1021 c 2,18,-1
 344 0 l 1,19,-1
 174 0 l 1,20,-1
 174 1433 l 1,21,-1
 274 1433 l 1,22,-1
 274 1433 l 1,0,1
274 1433 m 1,23,24
 300 1433 300 1433 312.5 1426.5 c 128,-1,25
 325 1420 325 1420 341 1400 c 2,26,-1
 1171 320 l 1,27,28
 1168 346 1168 346 1167 370.5 c 128,-1,29
 1166 395 1166 395 1166 418 c 2,30,-1
 1166 1433 l 1,31,-1
 1336 1433 l 1,32,-1
 1336 0 l 1,33,-1
 1238 0 l 2,34,35
 1215 0 1215 0 1199.5 8 c 128,-1,36
 1184 16 1184 16 1169 35 c 2,37,-1
 340 1114 l 1,38,39
 342 1089 342 1089 343 1065 c 128,-1,40
 344 1041 344 1041 344 1021 c 2,41,-1
 344 0 l 1,42,-1
 174 0 l 1,43,-1
 174 1433 l 1,44,-1
 274 1433 l 1,45,-1
 274 1433 l 1,23,24
EndSplineSet
Validated: 5
EndChar

StartChar: O
Encoding: 79 79 46
Width: 1596
Flags: W
LayerCount: 2
Fore
SplineSet
1505 716 m 256,0,1
 1505 555 1505 555 1454 420.5 c 128,-1,2
 1403 286 1403 286 1310 189 c 128,-1,3
 1217 92 1217 92 1086.5 38.5 c 128,-1,4
 956 -15 956 -15 798 -15 c 256,5,6
 640 -15 640 -15 510 38.5 c 128,-1,7
 380 92 380 92 287 189 c 128,-1,8
 194 286 194 286 143 420.5 c 128,-1,9
 92 555 92 555 92 716 c 256,10,11
 92 877 92 877 143 1011.5 c 128,-1,12
 194 1146 194 1146 287 1243.5 c 128,-1,13
 380 1341 380 1341 510 1395 c 128,-1,14
 640 1449 640 1449 798 1449 c 256,15,16
 956 1449 956 1449 1086.5 1395 c 128,-1,17
 1217 1341 1217 1341 1310 1243.5 c 128,-1,18
 1403 1146 1403 1146 1454 1011.5 c 128,-1,19
 1505 877 1505 877 1505 716 c 256,0,1
1306 716 m 256,20,21
 1306 848 1306 848 1270 953 c 128,-1,22
 1234 1058 1234 1058 1168 1130.5 c 128,-1,23
 1102 1203 1102 1203 1008 1242 c 128,-1,24
 914 1281 914 1281 798 1281 c 0,25,26
 683 1281 683 1281 589 1242 c 128,-1,27
 495 1203 495 1203 428.5 1130.5 c 128,-1,28
 362 1058 362 1058 326 953 c 128,-1,29
 290 848 290 848 290 716 c 256,30,31
 290 584 290 584 326 479.5 c 128,-1,32
 362 375 362 375 428.5 302.5 c 128,-1,33
 495 230 495 230 589 191.5 c 128,-1,34
 683 153 683 153 798 153 c 0,35,36
 914 153 914 153 1008 191.5 c 128,-1,37
 1102 230 1102 230 1168 302.5 c 128,-1,38
 1234 375 1234 375 1270 479.5 c 128,-1,39
 1306 584 1306 584 1306 716 c 256,20,21
1505 716 m 256,40,41
 1505 555 1505 555 1454 420.5 c 128,-1,42
 1403 286 1403 286 1310 189 c 128,-1,43
 1217 92 1217 92 1086.5 38.5 c 128,-1,44
 956 -15 956 -15 798 -15 c 256,45,46
 640 -15 640 -15 510 38.5 c 128,-1,47
 380 92 380 92 287 189 c 128,-1,48
 194 286 194 286 143 420.5 c 128,-1,49
 92 555 92 555 92 716 c 256,50,51
 92 877 92 877 143 1011.5 c 128,-1,52
 194 1146 194 1146 287 1243.5 c 128,-1,53
 380 1341 380 1341 510 1395 c 128,-1,54
 640 1449 640 1449 798 1449 c 256,55,56
 956 1449 956 1449 1086.5 1395 c 128,-1,57
 1217 1341 1217 1341 1310 1243.5 c 128,-1,58
 1403 1146 1403 1146 1454 1011.5 c 128,-1,59
 1505 877 1505 877 1505 716 c 256,40,41
1306 716 m 256,60,61
 1306 848 1306 848 1270 953 c 128,-1,62
 1234 1058 1234 1058 1168 1130.5 c 128,-1,63
 1102 1203 1102 1203 1008 1242 c 128,-1,64
 914 1281 914 1281 798 1281 c 0,65,66
 683 1281 683 1281 589 1242 c 128,-1,67
 495 1203 495 1203 428.5 1130.5 c 128,-1,68
 362 1058 362 1058 326 953 c 128,-1,69
 290 848 290 848 290 716 c 256,70,71
 290 584 290 584 326 479.5 c 128,-1,72
 362 375 362 375 428.5 302.5 c 128,-1,73
 495 230 495 230 589 191.5 c 128,-1,74
 683 153 683 153 798 153 c 0,75,76
 914 153 914 153 1008 191.5 c 128,-1,77
 1102 230 1102 230 1168 302.5 c 128,-1,78
 1234 375 1234 375 1270 479.5 c 128,-1,79
 1306 584 1306 584 1306 716 c 256,60,61
EndSplineSet
Validated: 5
EndChar

StartChar: P
Encoding: 80 80 47
Width: 1222
Flags: W
LayerCount: 2
Fore
SplineSet
387 536 m 1,0,-1
 387 0 l 1,1,-1
 194 0 l 1,2,-1
 194 1433 l 1,3,-1
 617 1433 l 2,4,5
 753 1433 753 1433 853.5 1401.5 c 128,-1,6
 954 1370 954 1370 1020 1312 c 128,-1,7
 1086 1254 1086 1254 1118.5 1172 c 128,-1,8
 1151 1090 1151 1090 1151 989 c 0,9,10
 1151 889 1151 889 1116 806 c 128,-1,11
 1081 723 1081 723 1013.5 663 c 128,-1,12
 946 603 946 603 846 569.5 c 128,-1,13
 746 536 746 536 617 536 c 2,14,-1
 387 536 l 1,0,-1
387 690 m 1,15,-1
 617 690 l 2,16,17
 700 690 700 690 763.5 712 c 128,-1,18
 827 734 827 734 870 773.5 c 128,-1,19
 913 813 913 813 935 868 c 128,-1,20
 957 923 957 923 957 989 c 0,21,22
 957 1126 957 1126 872.5 1203 c 128,-1,23
 788 1280 788 1280 617 1280 c 2,24,-1
 387 1280 l 1,25,-1
 387 690 l 1,15,-1
387 536 m 1,26,-1
 387 0 l 1,27,-1
 194 0 l 1,28,-1
 194 1433 l 1,29,-1
 617 1433 l 2,30,31
 753 1433 753 1433 853.5 1401.5 c 128,-1,32
 954 1370 954 1370 1020 1312 c 128,-1,33
 1086 1254 1086 1254 1118.5 1172 c 128,-1,34
 1151 1090 1151 1090 1151 989 c 0,35,36
 1151 889 1151 889 1116 806 c 128,-1,37
 1081 723 1081 723 1013.5 663 c 128,-1,38
 946 603 946 603 846 569.5 c 128,-1,39
 746 536 746 536 617 536 c 2,40,-1
 387 536 l 1,26,-1
387 690 m 1,41,-1
 617 690 l 2,42,43
 700 690 700 690 763.5 712 c 128,-1,44
 827 734 827 734 870 773.5 c 128,-1,45
 913 813 913 813 935 868 c 128,-1,46
 957 923 957 923 957 989 c 0,47,48
 957 1126 957 1126 872.5 1203 c 128,-1,49
 788 1280 788 1280 617 1280 c 2,50,-1
 387 1280 l 1,51,-1
 387 690 l 1,41,-1
EndSplineSet
Validated: 5
EndChar

StartChar: Q
Encoding: 81 81 48
Width: 1596
Flags: W
LayerCount: 2
Fore
SplineSet
1505 716 m 0,0,1
 1505 615 1505 615 1484.5 524 c 128,-1,2
 1464 433 1464 433 1425 354.5 c 128,-1,3
 1386 276 1386 276 1330 212 c 128,-1,4
 1274 148 1274 148 1204 101 c 1,5,-1
 1572 -296 l 1,6,-1
 1412 -296 l 2,7,8
 1376 -296 1376 -296 1348 -286 c 128,-1,9
 1320 -276 1320 -276 1297 -251 c 2,10,-1
 1045 23 l 1,11,12
 988 5 988 5 926.5 -5 c 128,-1,13
 865 -15 865 -15 798 -15 c 0,14,15
 640 -15 640 -15 510 38.5 c 128,-1,16
 380 92 380 92 287 189 c 128,-1,17
 194 286 194 286 143 420.5 c 128,-1,18
 92 555 92 555 92 716 c 256,19,20
 92 877 92 877 143 1011.5 c 128,-1,21
 194 1146 194 1146 287 1243.5 c 128,-1,22
 380 1341 380 1341 510 1395 c 128,-1,23
 640 1449 640 1449 798 1449 c 256,24,25
 956 1449 956 1449 1086.5 1395 c 128,-1,26
 1217 1341 1217 1341 1310 1243.5 c 128,-1,27
 1403 1146 1403 1146 1454 1011.5 c 128,-1,28
 1505 877 1505 877 1505 716 c 0,0,1
1306 716 m 256,29,30
 1306 848 1306 848 1270 953 c 128,-1,31
 1234 1058 1234 1058 1168 1130.5 c 128,-1,32
 1102 1203 1102 1203 1008 1242 c 128,-1,33
 914 1281 914 1281 798 1281 c 0,34,35
 683 1281 683 1281 589 1242 c 128,-1,36
 495 1203 495 1203 428.5 1130.5 c 128,-1,37
 362 1058 362 1058 326 953 c 128,-1,38
 290 848 290 848 290 716 c 256,39,40
 290 584 290 584 326 479.5 c 128,-1,41
 362 375 362 375 428.5 302.5 c 128,-1,42
 495 230 495 230 589 191.5 c 128,-1,43
 683 153 683 153 798 153 c 0,44,45
 914 153 914 153 1008 191.5 c 128,-1,46
 1102 230 1102 230 1168 302.5 c 128,-1,47
 1234 375 1234 375 1270 479.5 c 128,-1,48
 1306 584 1306 584 1306 716 c 256,29,30
1505 716 m 0,49,50
 1505 615 1505 615 1484.5 524 c 128,-1,51
 1464 433 1464 433 1425 354.5 c 128,-1,52
 1386 276 1386 276 1330 212 c 128,-1,53
 1274 148 1274 148 1204 101 c 1,54,-1
 1572 -296 l 1,55,-1
 1412 -296 l 2,56,57
 1376 -296 1376 -296 1348 -286 c 128,-1,58
 1320 -276 1320 -276 1297 -251 c 2,59,-1
 1045 23 l 1,60,61
 988 5 988 5 926.5 -5 c 128,-1,62
 865 -15 865 -15 798 -15 c 0,63,64
 640 -15 640 -15 510 38.5 c 128,-1,65
 380 92 380 92 287 189 c 128,-1,66
 194 286 194 286 143 420.5 c 128,-1,67
 92 555 92 555 92 716 c 256,68,69
 92 877 92 877 143 1011.5 c 128,-1,70
 194 1146 194 1146 287 1243.5 c 128,-1,71
 380 1341 380 1341 510 1395 c 128,-1,72
 640 1449 640 1449 798 1449 c 256,73,74
 956 1449 956 1449 1086.5 1395 c 128,-1,75
 1217 1341 1217 1341 1310 1243.5 c 128,-1,76
 1403 1146 1403 1146 1454 1011.5 c 128,-1,77
 1505 877 1505 877 1505 716 c 0,49,50
1306 716 m 256,78,79
 1306 848 1306 848 1270 953 c 128,-1,80
 1234 1058 1234 1058 1168 1130.5 c 128,-1,81
 1102 1203 1102 1203 1008 1242 c 128,-1,82
 914 1281 914 1281 798 1281 c 0,83,84
 683 1281 683 1281 589 1242 c 128,-1,85
 495 1203 495 1203 428.5 1130.5 c 128,-1,86
 362 1058 362 1058 326 953 c 128,-1,87
 290 848 290 848 290 716 c 256,88,89
 290 584 290 584 326 479.5 c 128,-1,90
 362 375 362 375 428.5 302.5 c 128,-1,91
 495 230 495 230 589 191.5 c 128,-1,92
 683 153 683 153 798 153 c 0,93,94
 914 153 914 153 1008 191.5 c 128,-1,95
 1102 230 1102 230 1168 302.5 c 128,-1,96
 1234 375 1234 375 1270 479.5 c 128,-1,97
 1306 584 1306 584 1306 716 c 256,78,79
EndSplineSet
Validated: 5
EndChar

StartChar: R
Encoding: 82 82 49
Width: 1288
Flags: W
LayerCount: 2
Fore
SplineSet
387 598 m 1,0,-1
 387 0 l 1,1,-1
 194 0 l 1,2,-1
 194 1433 l 1,3,-1
 599 1433 l 2,4,5
 735 1433 735 1433 834 1405.5 c 128,-1,6
 933 1378 933 1378 997.5 1326 c 128,-1,7
 1062 1274 1062 1274 1093 1200.5 c 128,-1,8
 1124 1127 1124 1127 1124 1036 c 0,9,10
 1124 960 1124 960 1100 894 c 128,-1,11
 1076 828 1076 828 1030.5 775.5 c 128,-1,12
 985 723 985 723 919.5 686 c 128,-1,13
 854 649 854 649 771 630 c 1,14,15
 807 609 807 609 835 569 c 2,16,-1
 1253 0 l 1,17,-1
 1081 0 l 2,18,19
 1028 0 1028 0 1003 41 c 2,20,-1
 631 553 l 2,21,22
 614 577 614 577 594 587.5 c 128,-1,23
 574 598 574 598 534 598 c 2,24,-1
 387 598 l 1,0,-1
387 739 m 1,25,-1
 590 739 l 2,26,27
 675 739 675 739 739.5 759.5 c 128,-1,28
 804 780 804 780 847.5 817.5 c 128,-1,29
 891 855 891 855 913 907 c 128,-1,30
 935 959 935 959 935 1022 c 0,31,32
 935 1150 935 1150 850.5 1215 c 128,-1,33
 766 1280 766 1280 599 1280 c 2,34,-1
 387 1280 l 1,35,-1
 387 739 l 1,25,-1
387 598 m 1,36,-1
 387 0 l 1,37,-1
 194 0 l 1,38,-1
 194 1433 l 1,39,-1
 599 1433 l 2,40,41
 735 1433 735 1433 834 1405.5 c 128,-1,42
 933 1378 933 1378 997.5 1326 c 128,-1,43
 1062 1274 1062 1274 1093 1200.5 c 128,-1,44
 1124 1127 1124 1127 1124 1036 c 0,45,46
 1124 960 1124 960 1100 894 c 128,-1,47
 1076 828 1076 828 1030.5 775.5 c 128,-1,48
 985 723 985 723 919.5 686 c 128,-1,49
 854 649 854 649 771 630 c 1,50,51
 807 609 807 609 835 569 c 2,52,-1
 1253 0 l 1,53,-1
 1081 0 l 2,54,55
 1028 0 1028 0 1003 41 c 2,56,-1
 631 553 l 2,57,58
 614 577 614 577 594 587.5 c 128,-1,59
 574 598 574 598 534 598 c 2,60,-1
 387 598 l 1,36,-1
387 739 m 1,61,-1
 590 739 l 2,62,63
 675 739 675 739 739.5 759.5 c 128,-1,64
 804 780 804 780 847.5 817.5 c 128,-1,65
 891 855 891 855 913 907 c 128,-1,66
 935 959 935 959 935 1022 c 0,67,68
 935 1150 935 1150 850.5 1215 c 128,-1,69
 766 1280 766 1280 599 1280 c 2,70,-1
 387 1280 l 1,71,-1
 387 739 l 1,61,-1
EndSplineSet
Validated: 5
EndChar

StartChar: S
Encoding: 83 83 50
Width: 1060
Flags: W
LayerCount: 2
Fore
SplineSet
908 1209 m 2,0,1
 899 1194 899 1194 889 1186.5 c 128,-1,2
 879 1179 879 1179 863 1179 c 0,3,4
 846 1179 846 1179 823.5 1196 c 128,-1,5
 801 1213 801 1213 766.5 1233.5 c 128,-1,6
 732 1254 732 1254 683.5 1271 c 128,-1,7
 635 1288 635 1288 566 1288 c 0,8,9
 501 1288 501 1288 451 1270.5 c 128,-1,10
 401 1253 401 1253 367.5 1223 c 128,-1,11
 334 1193 334 1193 317 1152.5 c 128,-1,12
 300 1112 300 1112 300 1065 c 0,13,14
 300 1005 300 1005 329.5 965.5 c 128,-1,15
 359 926 359 926 407.5 898 c 128,-1,16
 456 870 456 870 517.5 849.5 c 128,-1,17
 579 829 579 829 643.5 807 c 128,-1,18
 708 785 708 785 769.5 757.5 c 128,-1,19
 831 730 831 730 879.5 688 c 128,-1,20
 928 646 928 646 957.5 585 c 128,-1,21
 987 524 987 524 987 435 c 0,22,23
 987 341 987 341 955 258.5 c 128,-1,24
 923 176 923 176 861.5 115 c 128,-1,25
 800 54 800 54 710.5 19 c 128,-1,26
 621 -16 621 -16 507 -16 c 0,27,28
 368 -16 368 -16 253.5 34.5 c 128,-1,29
 139 85 139 85 58 171 c 1,30,-1
 114 263 l 2,31,32
 122 274 122 274 133.5 281.5 c 128,-1,33
 145 289 145 289 159 289 c 0,34,35
 180 289 180 289 207 266.5 c 128,-1,36
 234 244 234 244 274.5 217 c 128,-1,37
 315 190 315 190 372.5 167.5 c 128,-1,38
 430 145 430 145 513 145 c 0,39,40
 582 145 582 145 636 164 c 128,-1,41
 690 183 690 183 727.5 217.5 c 128,-1,42
 765 252 765 252 785 300 c 128,-1,43
 805 348 805 348 805 407 c 0,44,45
 805 472 805 472 775.5 513.5 c 128,-1,46
 746 555 746 555 698 583 c 128,-1,47
 650 611 650 611 588.5 630.5 c 128,-1,48
 527 650 527 650 462.5 670.5 c 128,-1,49
 398 691 398 691 336.5 718 c 128,-1,50
 275 745 275 745 227 788 c 128,-1,51
 179 831 179 831 149.5 895.5 c 128,-1,52
 120 960 120 960 120 1055 c 0,53,54
 120 1131 120 1131 149.5 1202 c 128,-1,55
 179 1273 179 1273 235 1328 c 128,-1,56
 291 1383 291 1383 373.5 1416 c 128,-1,57
 456 1449 456 1449 563 1449 c 0,58,59
 683 1449 683 1449 782 1411 c 128,-1,60
 881 1373 881 1373 955 1301 c 1,61,-1
 908 1209 l 2,0,1
908 1209 m 2,62,63
 899 1194 899 1194 889 1186.5 c 128,-1,64
 879 1179 879 1179 863 1179 c 0,65,66
 846 1179 846 1179 823.5 1196 c 128,-1,67
 801 1213 801 1213 766.5 1233.5 c 128,-1,68
 732 1254 732 1254 683.5 1271 c 128,-1,69
 635 1288 635 1288 566 1288 c 0,70,71
 501 1288 501 1288 451 1270.5 c 128,-1,72
 401 1253 401 1253 367.5 1223 c 128,-1,73
 334 1193 334 1193 317 1152.5 c 128,-1,74
 300 1112 300 1112 300 1065 c 0,75,76
 300 1005 300 1005 329.5 965.5 c 128,-1,77
 359 926 359 926 407.5 898 c 128,-1,78
 456 870 456 870 517.5 849.5 c 128,-1,79
 579 829 579 829 643.5 807 c 128,-1,80
 708 785 708 785 769.5 757.5 c 128,-1,81
 831 730 831 730 879.5 688 c 128,-1,82
 928 646 928 646 957.5 585 c 128,-1,83
 987 524 987 524 987 435 c 0,84,85
 987 341 987 341 955 258.5 c 128,-1,86
 923 176 923 176 861.5 115 c 128,-1,87
 800 54 800 54 710.5 19 c 128,-1,88
 621 -16 621 -16 507 -16 c 0,89,90
 368 -16 368 -16 253.5 34.5 c 128,-1,91
 139 85 139 85 58 171 c 1,92,-1
 114 263 l 2,93,94
 122 274 122 274 133.5 281.5 c 128,-1,95
 145 289 145 289 159 289 c 0,96,97
 180 289 180 289 207 266.5 c 128,-1,98
 234 244 234 244 274.5 217 c 128,-1,99
 315 190 315 190 372.5 167.5 c 128,-1,100
 430 145 430 145 513 145 c 0,101,102
 582 145 582 145 636 164 c 128,-1,103
 690 183 690 183 727.5 217.5 c 128,-1,104
 765 252 765 252 785 300 c 128,-1,105
 805 348 805 348 805 407 c 0,106,107
 805 472 805 472 775.5 513.5 c 128,-1,108
 746 555 746 555 698 583 c 128,-1,109
 650 611 650 611 588.5 630.5 c 128,-1,110
 527 650 527 650 462.5 670.5 c 128,-1,111
 398 691 398 691 336.5 718 c 128,-1,112
 275 745 275 745 227 788 c 128,-1,113
 179 831 179 831 149.5 895.5 c 128,-1,114
 120 960 120 960 120 1055 c 0,115,116
 120 1131 120 1131 149.5 1202 c 128,-1,117
 179 1273 179 1273 235 1328 c 128,-1,118
 291 1383 291 1383 373.5 1416 c 128,-1,119
 456 1449 456 1449 563 1449 c 0,120,121
 683 1449 683 1449 782 1411 c 128,-1,122
 881 1373 881 1373 955 1301 c 1,123,-1
 908 1209 l 2,62,63
EndSplineSet
Validated: 5
EndChar

StartChar: T
Encoding: 84 84 51
Width: 1180
Flags: W
LayerCount: 2
Fore
SplineSet
1150 1433 m 1,0,-1
 1150 1270 l 1,1,-1
 687 1270 l 1,2,-1
 687 0 l 1,3,-1
 493 0 l 1,4,-1
 493 1270 l 1,5,-1
 28 1270 l 1,6,-1
 28 1433 l 1,7,-1
 1150 1433 l 1,0,-1
1150 1433 m 1,8,-1
 1150 1270 l 1,9,-1
 687 1270 l 1,10,-1
 687 0 l 1,11,-1
 493 0 l 1,12,-1
 493 1270 l 1,13,-1
 28 1270 l 1,14,-1
 28 1433 l 1,15,-1
 1150 1433 l 1,8,-1
EndSplineSet
Validated: 5
EndChar

StartChar: U
Encoding: 85 85 52
Width: 1460
Flags: W
LayerCount: 2
Fore
SplineSet
731 154 m 256,0,1
 820 154 820 154 890 184 c 128,-1,2
 960 214 960 214 1008.5 268 c 128,-1,3
 1057 322 1057 322 1082.5 397 c 128,-1,4
 1108 472 1108 472 1108 562 c 2,5,-1
 1108 1433 l 1,6,-1
 1301 1433 l 1,7,-1
 1301 562 l 2,8,9
 1301 438 1301 438 1261.5 332 c 128,-1,10
 1222 226 1222 226 1148.5 148.5 c 128,-1,11
 1075 71 1075 71 969 27 c 128,-1,12
 863 -17 863 -17 731 -17 c 256,13,14
 599 -17 599 -17 493 27 c 128,-1,15
 387 71 387 71 313 148.5 c 128,-1,16
 239 226 239 226 199.5 332 c 128,-1,17
 160 438 160 438 160 562 c 2,18,-1
 160 1433 l 1,19,-1
 353 1433 l 1,20,-1
 353 563 l 2,21,22
 353 473 353 473 378.5 398 c 128,-1,23
 404 323 404 323 452.5 269 c 128,-1,24
 501 215 501 215 571.5 184.5 c 128,-1,25
 642 154 642 154 731 154 c 256,0,1
731 154 m 256,26,27
 820 154 820 154 890 184 c 128,-1,28
 960 214 960 214 1008.5 268 c 128,-1,29
 1057 322 1057 322 1082.5 397 c 128,-1,30
 1108 472 1108 472 1108 562 c 2,31,-1
 1108 1433 l 1,32,-1
 1301 1433 l 1,33,-1
 1301 562 l 2,34,35
 1301 438 1301 438 1261.5 332 c 128,-1,36
 1222 226 1222 226 1148.5 148.5 c 128,-1,37
 1075 71 1075 71 969 27 c 128,-1,38
 863 -17 863 -17 731 -17 c 256,39,40
 599 -17 599 -17 493 27 c 128,-1,41
 387 71 387 71 313 148.5 c 128,-1,42
 239 226 239 226 199.5 332 c 128,-1,43
 160 438 160 438 160 562 c 2,44,-1
 160 1433 l 1,45,-1
 353 1433 l 1,46,-1
 353 563 l 2,47,48
 353 473 353 473 378.5 398 c 128,-1,49
 404 323 404 323 452.5 269 c 128,-1,50
 501 215 501 215 571.5 184.5 c 128,-1,51
 642 154 642 154 731 154 c 256,26,27
EndSplineSet
Validated: 5
EndChar

StartChar: V
Encoding: 86 86 53
Width: 1360
Flags: W
LayerCount: 2
Fore
SplineSet
8 1433 m 1,0,-1
 163 1433 l 2,1,2
 189 1433 189 1433 205 1420 c 128,-1,3
 221 1407 221 1407 229 1387 c 2,4,-1
 634 376 l 2,5,6
 648 342 648 342 659.5 302 c 128,-1,7
 671 262 671 262 682 219 c 1,8,9
 691 262 691 262 701.5 302 c 128,-1,10
 712 342 712 342 726 376 c 2,11,-1
 1129 1387 l 2,12,13
 1136 1404 1136 1404 1153 1418.5 c 128,-1,14
 1170 1433 1170 1433 1195 1433 c 2,15,-1
 1351 1433 l 1,16,-1
 767 0 l 1,17,-1
 592 0 l 1,18,-1
 8 1433 l 1,0,-1
8 1433 m 1,19,-1
 163 1433 l 2,20,21
 189 1433 189 1433 205 1420 c 128,-1,22
 221 1407 221 1407 229 1387 c 2,23,-1
 634 376 l 2,24,25
 648 342 648 342 659.5 302 c 128,-1,26
 671 262 671 262 682 219 c 1,27,28
 691 262 691 262 701.5 302 c 128,-1,29
 712 342 712 342 726 376 c 2,30,-1
 1129 1387 l 2,31,32
 1136 1404 1136 1404 1153 1418.5 c 128,-1,33
 1170 1433 1170 1433 1195 1433 c 2,34,-1
 1351 1433 l 1,35,-1
 767 0 l 1,36,-1
 592 0 l 1,37,-1
 8 1433 l 1,19,-1
EndSplineSet
Validated: 5
EndChar

StartChar: W
Encoding: 87 87 54
Width: 2038
Flags: W
LayerCount: 2
Fore
SplineSet
14 1433 m 1,0,-1
 175 1433 l 2,1,2
 201 1433 201 1433 218 1420 c 128,-1,3
 235 1407 235 1407 241 1387 c 2,4,-1
 537 391 l 2,5,6
 545 364 545 364 551.5 333 c 128,-1,7
 558 302 558 302 564 268 c 1,8,9
 571 302 571 302 578 333.5 c 128,-1,10
 585 365 585 365 594 391 c 2,11,-1
 931 1387 l 2,12,13
 937 1404 937 1404 954.5 1418.5 c 128,-1,14
 972 1433 972 1433 997 1433 c 2,15,-1
 1053 1433 l 2,16,17
 1079 1433 1079 1433 1095.5 1420 c 128,-1,18
 1112 1407 1112 1407 1119 1387 c 2,19,-1
 1454 391 l 2,20,21
 1472 339 1472 339 1486 272 c 1,22,23
 1492 305 1492 305 1497 335 c 128,-1,24
 1502 365 1502 365 1510 391 c 2,25,-1
 1807 1387 l 2,26,27
 1812 1405 1812 1405 1829.5 1419 c 128,-1,28
 1847 1433 1847 1433 1872 1433 c 2,29,-1
 2023 1433 l 1,30,-1
 1576 0 l 1,31,-1
 1402 0 l 1,32,-1
 1039 1093 l 2,33,34
 1028 1124 1028 1124 1019 1165 c 1,35,36
 1014 1145 1014 1145 1009.5 1126.5 c 128,-1,37
 1005 1108 1005 1108 1000 1093 c 2,38,-1
 635 0 l 1,39,-1
 461 0 l 1,40,-1
 14 1433 l 1,0,-1
14 1433 m 1,41,-1
 175 1433 l 2,42,43
 201 1433 201 1433 218 1420 c 128,-1,44
 235 1407 235 1407 241 1387 c 2,45,-1
 537 391 l 2,46,47
 545 364 545 364 551.5 333 c 128,-1,48
 558 302 558 302 564 268 c 1,49,50
 571 302 571 302 578 333.5 c 128,-1,51
 585 365 585 365 594 391 c 2,52,-1
 931 1387 l 2,53,54
 937 1404 937 1404 954.5 1418.5 c 128,-1,55
 972 1433 972 1433 997 1433 c 2,56,-1
 1053 1433 l 2,57,58
 1079 1433 1079 1433 1095.5 1420 c 128,-1,59
 1112 1407 1112 1407 1119 1387 c 2,60,-1
 1454 391 l 2,61,62
 1472 339 1472 339 1486 272 c 1,63,64
 1492 305 1492 305 1497 335 c 128,-1,65
 1502 365 1502 365 1510 391 c 2,66,-1
 1807 1387 l 2,67,68
 1812 1405 1812 1405 1829.5 1419 c 128,-1,69
 1847 1433 1847 1433 1872 1433 c 2,70,-1
 2023 1433 l 1,71,-1
 1576 0 l 1,72,-1
 1402 0 l 1,73,-1
 1039 1093 l 2,74,75
 1028 1124 1028 1124 1019 1165 c 1,76,77
 1014 1145 1014 1145 1009.5 1126.5 c 128,-1,78
 1005 1108 1005 1108 1000 1093 c 2,79,-1
 635 0 l 1,80,-1
 461 0 l 1,81,-1
 14 1433 l 1,41,-1
EndSplineSet
Validated: 5
EndChar

StartChar: X
Encoding: 88 88 55
Width: 1286
Flags: W
LayerCount: 2
Fore
SplineSet
507 736 m 1,0,-1
 34 1433 l 1,1,-1
 227 1433 l 2,2,3
 248 1433 248 1433 258 1426 c 128,-1,4
 268 1419 268 1419 276 1406 c 2,5,-1
 650 832 l 1,6,7
 657 853 657 853 671 878 c 2,8,-1
 1024 1402 l 2,9,10
 1033 1416 1033 1416 1043.5 1424.5 c 128,-1,11
 1054 1433 1054 1433 1069 1433 c 2,12,-1
 1254 1433 l 1,13,-1
 779 745 l 1,14,-1
 1270 0 l 1,15,-1
 1078 0 l 2,16,17
 1056 0 1056 0 1043.5 11.5 c 128,-1,18
 1031 23 1031 23 1023 37 c 2,19,-1
 639 638 l 1,20,21
 632 617 632 617 621 598 c 2,22,-1
 247 37 l 2,23,24
 238 23 238 23 226.5 11.5 c 128,-1,25
 215 0 215 0 194 0 c 2,26,-1
 14 0 l 1,27,-1
 507 736 l 1,0,-1
507 736 m 1,28,-1
 34 1433 l 1,29,-1
 227 1433 l 2,30,31
 248 1433 248 1433 258 1426 c 128,-1,32
 268 1419 268 1419 276 1406 c 2,33,-1
 650 832 l 1,34,35
 657 853 657 853 671 878 c 2,36,-1
 1024 1402 l 2,37,38
 1033 1416 1033 1416 1043.5 1424.5 c 128,-1,39
 1054 1433 1054 1433 1069 1433 c 2,40,-1
 1254 1433 l 1,41,-1
 779 745 l 1,42,-1
 1270 0 l 1,43,-1
 1078 0 l 2,44,45
 1056 0 1056 0 1043.5 11.5 c 128,-1,46
 1031 23 1031 23 1023 37 c 2,47,-1
 639 638 l 1,48,49
 632 617 632 617 621 598 c 2,50,-1
 247 37 l 2,51,52
 238 23 238 23 226.5 11.5 c 128,-1,53
 215 0 215 0 194 0 c 2,54,-1
 14 0 l 1,55,-1
 507 736 l 1,28,-1
EndSplineSet
Validated: 5
EndChar

StartChar: Y
Encoding: 89 89 56
Width: 1258
Flags: W
LayerCount: 2
Fore
SplineSet
726 570 m 1,0,-1
 726 0 l 1,1,-1
 533 0 l 1,2,-1
 533 570 l 1,3,-1
 8 1433 l 1,4,-1
 178 1433 l 2,5,6
 204 1433 204 1433 219 1420 c 128,-1,7
 234 1407 234 1407 245 1388 c 2,8,-1
 573 831 l 2,9,10
 593 796 593 796 606.5 765 c 128,-1,11
 620 734 620 734 631 704 c 1,12,13
 642 735 642 735 655 766 c 128,-1,14
 668 797 668 797 688 831 c 2,15,-1
 1015 1388 l 2,16,17
 1024 1404 1024 1404 1039.5 1418.5 c 128,-1,18
 1055 1433 1055 1433 1080 1433 c 2,19,-1
 1252 1433 l 1,20,-1
 726 570 l 1,0,-1
726 570 m 1,21,-1
 726 0 l 1,22,-1
 533 0 l 1,23,-1
 533 570 l 1,24,-1
 8 1433 l 1,25,-1
 178 1433 l 2,26,27
 204 1433 204 1433 219 1420 c 128,-1,28
 234 1407 234 1407 245 1388 c 2,29,-1
 573 831 l 2,30,31
 593 796 593 796 606.5 765 c 128,-1,32
 620 734 620 734 631 704 c 1,33,34
 642 735 642 735 655 766 c 128,-1,35
 668 797 668 797 688 831 c 2,36,-1
 1015 1388 l 2,37,38
 1024 1404 1024 1404 1039.5 1418.5 c 128,-1,39
 1055 1433 1055 1433 1080 1433 c 2,40,-1
 1252 1433 l 1,41,-1
 726 570 l 1,21,-1
EndSplineSet
Validated: 5
EndChar

StartChar: Z
Encoding: 90 90 57
Width: 1248
Flags: W
LayerCount: 2
Fore
SplineSet
1172 1433 m 1,0,-1
 1172 1361 l 2,1,2
 1172 1327 1172 1327 1151 1297 c 2,3,-1
 340 158 l 1,4,-1
 1158 158 l 1,5,-1
 1158 0 l 1,6,-1
 86 0 l 1,7,-1
 86 76 l 2,8,9
 86 106 86 106 105 133 c 2,10,-1
 917 1275 l 1,11,-1
 124 1275 l 1,12,-1
 124 1433 l 1,13,-1
 1172 1433 l 1,0,-1
1172 1433 m 1,14,-1
 1172 1361 l 2,15,16
 1172 1327 1172 1327 1151 1297 c 2,17,-1
 340 158 l 1,18,-1
 1158 158 l 1,19,-1
 1158 0 l 1,20,-1
 86 0 l 1,21,-1
 86 76 l 2,22,23
 86 106 86 106 105 133 c 2,24,-1
 917 1275 l 1,25,-1
 124 1275 l 1,26,-1
 124 1433 l 1,27,-1
 1172 1433 l 1,14,-1
EndSplineSet
Validated: 5
EndChar

StartChar: bracketleft
Encoding: 91 91 58
Width: 600
Flags: W
LayerCount: 2
Fore
SplineSet
142 -289 m 1,0,-1
 142 1533 l 1,1,-1
 510 1533 l 1,2,-1
 510 1463 l 2,3,4
 510 1441 510 1441 496.5 1428.5 c 128,-1,5
 483 1416 483 1416 461 1416 c 2,6,-1
 292 1416 l 1,7,-1
 292 -171 l 1,8,-1
 461 -171 l 2,9,10
 483 -171 483 -171 496.5 -183.5 c 128,-1,11
 510 -196 510 -196 510 -219 c 2,12,-1
 510 -289 l 1,13,-1
 142 -289 l 1,0,-1
142 -289 m 1,14,-1
 142 1533 l 1,15,-1
 510 1533 l 1,16,-1
 510 1463 l 2,17,18
 510 1441 510 1441 496.5 1428.5 c 128,-1,19
 483 1416 483 1416 461 1416 c 2,20,-1
 292 1416 l 1,21,-1
 292 -171 l 1,22,-1
 461 -171 l 2,23,24
 483 -171 483 -171 496.5 -183.5 c 128,-1,25
 510 -196 510 -196 510 -219 c 2,26,-1
 510 -289 l 1,27,-1
 142 -289 l 1,14,-1
EndSplineSet
Validated: 5
EndChar

StartChar: backslash
Encoding: 92 92 59
Width: 750
Flags: W
LayerCount: 2
Fore
SplineSet
-20 1473 m 1,0,-1
 56 1473 l 2,1,2
 89 1473 89 1473 113 1456 c 128,-1,3
 137 1439 137 1439 150 1407 c 2,4,-1
 751 -90 l 1,5,-1
 676 -90 l 2,6,7
 647 -90 647 -90 619 -73 c 128,-1,8
 591 -56 591 -56 578 -21 c 2,9,-1
 -20 1473 l 1,0,-1
-20 1473 m 1,10,-1
 56 1473 l 2,11,12
 89 1473 89 1473 113 1456 c 128,-1,13
 137 1439 137 1439 150 1407 c 2,14,-1
 751 -90 l 1,15,-1
 676 -90 l 2,16,17
 647 -90 647 -90 619 -73 c 128,-1,18
 591 -56 591 -56 578 -21 c 2,19,-1
 -20 1473 l 1,10,-1
EndSplineSet
Validated: 5
EndChar

StartChar: bracketright
Encoding: 93 93 60
Width: 600
Flags: W
LayerCount: 2
Fore
SplineSet
90 -219 m 2,0,1
 90 -199 90 -199 103.5 -185 c 128,-1,2
 117 -171 117 -171 139 -171 c 2,3,-1
 308 -171 l 1,4,-1
 308 1416 l 1,5,-1
 139 1416 l 2,6,7
 117 1416 117 1416 103.5 1429.5 c 128,-1,8
 90 1443 90 1443 90 1463 c 2,9,-1
 90 1533 l 1,10,-1
 458 1533 l 1,11,-1
 458 -289 l 1,12,-1
 90 -289 l 1,13,-1
 90 -219 l 2,0,1
90 -219 m 2,14,15
 90 -199 90 -199 103.5 -185 c 128,-1,16
 117 -171 117 -171 139 -171 c 2,17,-1
 308 -171 l 1,18,-1
 308 1416 l 1,19,-1
 139 1416 l 2,20,21
 117 1416 117 1416 103.5 1429.5 c 128,-1,22
 90 1443 90 1443 90 1463 c 2,23,-1
 90 1533 l 1,24,-1
 458 1533 l 1,25,-1
 458 -289 l 1,26,-1
 90 -289 l 1,27,-1
 90 -219 l 2,14,15
EndSplineSet
Validated: 5
EndChar

StartChar: asciicircum
Encoding: 94 94 61
Width: 1160
Flags: W
LayerCount: 2
Fore
SplineSet
516 1433 m 1,0,-1
 631 1433 l 1,1,-1
 989 787 l 1,2,-1
 860 787 l 2,3,4
 843 787 843 787 831 797 c 128,-1,5
 819 807 819 807 811 821 c 2,6,-1
 615 1173 l 2,7,8
 602 1196 602 1196 592.5 1217.5 c 128,-1,9
 583 1239 583 1239 576 1260 c 1,10,11
 562 1216 562 1216 539 1173 c 2,12,-1
 345 821 l 2,13,14
 337 807 337 807 325.5 797 c 128,-1,15
 314 787 314 787 294 787 c 2,16,-1
 158 787 l 1,17,-1
 516 1433 l 1,0,-1
516 1433 m 1,18,-1
 631 1433 l 1,19,-1
 989 787 l 1,20,-1
 860 787 l 2,21,22
 843 787 843 787 831 797 c 128,-1,23
 819 807 819 807 811 821 c 2,24,-1
 615 1173 l 2,25,26
 602 1196 602 1196 592.5 1217.5 c 128,-1,27
 583 1239 583 1239 576 1260 c 1,28,29
 562 1216 562 1216 539 1173 c 2,30,-1
 345 821 l 2,31,32
 337 807 337 807 325.5 797 c 128,-1,33
 314 787 314 787 294 787 c 2,34,-1
 158 787 l 1,35,-1
 516 1433 l 1,18,-1
EndSplineSet
Validated: 5
EndChar

StartChar: underscore
Encoding: 95 95 62
Width: 788
Flags: W
LayerCount: 2
Fore
SplineSet
788 -165 m 1,0,-1
 788 -285 l 1,1,-1
 0 -285 l 1,2,-1
 0 -165 l 1,3,-1
 788 -165 l 1,0,-1
788 -165 m 1,4,-1
 788 -285 l 1,5,-1
 0 -285 l 1,6,-1
 0 -165 l 1,7,-1
 788 -165 l 1,4,-1
EndSplineSet
Validated: 5
EndChar

StartChar: grave
Encoding: 96 96 63
Width: 614
Flags: W
LayerCount: 2
Fore
SplineSet
207 1449 m 2,0,1
 240 1449 240 1449 256 1438.5 c 128,-1,2
 272 1428 272 1428 286 1405 c 2,3,-1
 435 1163 l 1,4,-1
 333 1163 l 2,5,6
 312 1163 312 1163 299 1169.5 c 128,-1,7
 286 1176 286 1176 272 1191 c 2,8,-1
 38 1449 l 1,9,-1
 207 1449 l 2,0,1
207 1449 m 2,10,11
 240 1449 240 1449 256 1438.5 c 128,-1,12
 272 1428 272 1428 286 1405 c 2,13,-1
 435 1163 l 1,14,-1
 333 1163 l 2,15,16
 312 1163 312 1163 299 1169.5 c 128,-1,17
 286 1176 286 1176 272 1191 c 2,18,-1
 38 1449 l 1,19,-1
 207 1449 l 2,10,11
EndSplineSet
Validated: 517
Substitution2: "'case' Case-Sensitive Forms in Latin lookup 0 subtable" grave.case
EndChar

StartChar: a
Encoding: 97 97 64
Width: 1014
Flags: W
LayerCount: 2
Fore
SplineSet
890 0 m 1,0,-1
 811 0 l 2,1,2
 785 0 785 0 769 8 c 128,-1,3
 753 16 753 16 748 42 c 2,4,-1
 728 136 l 1,5,6
 688 100 688 100 650 71.5 c 128,-1,7
 612 43 612 43 570 23.5 c 128,-1,8
 528 4 528 4 480.5 -6 c 128,-1,9
 433 -16 433 -16 375 -16 c 0,10,11
 316 -16 316 -16 264.5 0.5 c 128,-1,12
 213 17 213 17 175 50 c 128,-1,13
 137 83 137 83 114.5 133.5 c 128,-1,14
 92 184 92 184 92 253 c 0,15,16
 92 313 92 313 125 368.5 c 128,-1,17
 158 424 158 424 231.5 467 c 128,-1,18
 305 510 305 510 424 537.5 c 128,-1,19
 543 565 543 565 715 569 c 1,20,-1
 715 648 l 2,21,22
 715 766 715 766 664.5 826.5 c 128,-1,23
 614 887 614 887 515 887 c 0,24,25
 450 887 450 887 405.5 870.5 c 128,-1,26
 361 854 361 854 328.5 833.5 c 128,-1,27
 296 813 296 813 272.5 796.5 c 128,-1,28
 249 780 249 780 226 780 c 0,29,30
 208 780 208 780 194.5 789.5 c 128,-1,31
 181 799 181 799 173 813 c 2,32,-1
 141 870 l 1,33,34
 225 951 225 951 322 991 c 128,-1,35
 419 1031 419 1031 537 1031 c 0,36,37
 622 1031 622 1031 688 1003 c 128,-1,38
 754 975 754 975 799 925 c 128,-1,39
 844 875 844 875 867 804 c 128,-1,40
 890 733 890 733 890 648 c 2,41,-1
 890 0 l 1,0,-1
428 109 m 0,42,43
 475 109 475 109 514 118.5 c 128,-1,44
 553 128 553 128 587.5 145.5 c 128,-1,45
 622 163 622 163 653.5 188 c 128,-1,46
 685 213 685 213 715 245 c 1,47,-1
 715 456 l 1,48,49
 592 452 592 452 506 436.5 c 128,-1,50
 420 421 420 421 366 396 c 128,-1,51
 312 371 312 371 287.5 337 c 128,-1,52
 263 303 263 303 263 261 c 0,53,54
 263 221 263 221 276 192 c 128,-1,55
 289 163 289 163 311 144.5 c 128,-1,56
 333 126 333 126 363 117.5 c 128,-1,57
 393 109 393 109 428 109 c 0,42,43
890 0 m 1,58,-1
 811 0 l 2,59,60
 785 0 785 0 769 8 c 128,-1,61
 753 16 753 16 748 42 c 2,62,-1
 728 136 l 1,63,64
 688 100 688 100 650 71.5 c 128,-1,65
 612 43 612 43 570 23.5 c 128,-1,66
 528 4 528 4 480.5 -6 c 128,-1,67
 433 -16 433 -16 375 -16 c 0,68,69
 316 -16 316 -16 264.5 0.5 c 128,-1,70
 213 17 213 17 175 50 c 128,-1,71
 137 83 137 83 114.5 133.5 c 128,-1,72
 92 184 92 184 92 253 c 0,73,74
 92 313 92 313 125 368.5 c 128,-1,75
 158 424 158 424 231.5 467 c 128,-1,76
 305 510 305 510 424 537.5 c 128,-1,77
 543 565 543 565 715 569 c 1,78,-1
 715 648 l 2,79,80
 715 766 715 766 664.5 826.5 c 128,-1,81
 614 887 614 887 515 887 c 0,82,83
 450 887 450 887 405.5 870.5 c 128,-1,84
 361 854 361 854 328.5 833.5 c 128,-1,85
 296 813 296 813 272.5 796.5 c 128,-1,86
 249 780 249 780 226 780 c 0,87,88
 208 780 208 780 194.5 789.5 c 128,-1,89
 181 799 181 799 173 813 c 2,90,-1
 141 870 l 1,91,92
 225 951 225 951 322 991 c 128,-1,93
 419 1031 419 1031 537 1031 c 0,94,95
 622 1031 622 1031 688 1003 c 128,-1,96
 754 975 754 975 799 925 c 128,-1,97
 844 875 844 875 867 804 c 128,-1,98
 890 733 890 733 890 648 c 2,99,-1
 890 0 l 1,58,-1
428 109 m 0,100,101
 475 109 475 109 514 118.5 c 128,-1,102
 553 128 553 128 587.5 145.5 c 128,-1,103
 622 163 622 163 653.5 188 c 128,-1,104
 685 213 685 213 715 245 c 1,105,-1
 715 456 l 1,106,107
 592 452 592 452 506 436.5 c 128,-1,108
 420 421 420 421 366 396 c 128,-1,109
 312 371 312 371 287.5 337 c 128,-1,110
 263 303 263 303 263 261 c 0,111,112
 263 221 263 221 276 192 c 128,-1,113
 289 163 289 163 311 144.5 c 128,-1,114
 333 126 333 126 363 117.5 c 128,-1,115
 393 109 393 109 428 109 c 0,100,101
EndSplineSet
Validated: 5
EndChar

StartChar: b
Encoding: 98 98 65
Width: 1118
Flags: W
LayerCount: 2
Fore
SplineSet
152 0 m 1,0,-1
 152 1473 l 1,1,-1
 331 1473 l 1,2,-1
 331 867 l 1,3,4
 394 940 394 940 475.5 984.5 c 128,-1,5
 557 1029 557 1029 662 1029 c 0,6,7
 750 1029 750 1029 821 996 c 128,-1,8
 892 963 892 963 942 897.5 c 128,-1,9
 992 832 992 832 1019 735.5 c 128,-1,10
 1046 639 1046 639 1046 513 c 0,11,12
 1046 401 1046 401 1016 304.5 c 128,-1,13
 986 208 986 208 929.5 137.5 c 128,-1,14
 873 67 873 67 791.5 26.5 c 128,-1,15
 710 -14 710 -14 608 -14 c 0,16,17
 510 -14 510 -14 441.5 24 c 128,-1,18
 373 62 373 62 322 130 c 1,19,-1
 313 38 l 1,20,21
 305 0 305 0 267 0 c 2,22,-1
 152 0 l 1,0,-1
604 887 m 0,23,24
 517 887 517 887 451.5 847 c 128,-1,25
 386 807 386 807 331 734 c 1,26,-1
 331 244 l 1,27,28
 379 178 379 178 437.5 151 c 128,-1,29
 496 124 496 124 568 124 c 0,30,31
 710 124 710 124 786 225 c 128,-1,32
 862 326 862 326 862 513 c 0,33,34
 862 612 862 612 844.5 683 c 128,-1,35
 827 754 827 754 794 799.5 c 128,-1,36
 761 845 761 845 713 866 c 128,-1,37
 665 887 665 887 604 887 c 0,23,24
152 0 m 1,38,-1
 152 1473 l 1,39,-1
 331 1473 l 1,40,-1
 331 867 l 1,41,42
 394 940 394 940 475.5 984.5 c 128,-1,43
 557 1029 557 1029 662 1029 c 0,44,45
 750 1029 750 1029 821 996 c 128,-1,46
 892 963 892 963 942 897.5 c 128,-1,47
 992 832 992 832 1019 735.5 c 128,-1,48
 1046 639 1046 639 1046 513 c 0,49,50
 1046 401 1046 401 1016 304.5 c 128,-1,51
 986 208 986 208 929.5 137.5 c 128,-1,52
 873 67 873 67 791.5 26.5 c 128,-1,53
 710 -14 710 -14 608 -14 c 0,54,55
 510 -14 510 -14 441.5 24 c 128,-1,56
 373 62 373 62 322 130 c 1,57,-1
 313 38 l 1,58,59
 305 0 305 0 267 0 c 2,60,-1
 152 0 l 1,38,-1
604 887 m 0,61,62
 517 887 517 887 451.5 847 c 128,-1,63
 386 807 386 807 331 734 c 1,64,-1
 331 244 l 1,65,66
 379 178 379 178 437.5 151 c 128,-1,67
 496 124 496 124 568 124 c 0,68,69
 710 124 710 124 786 225 c 128,-1,70
 862 326 862 326 862 513 c 0,71,72
 862 612 862 612 844.5 683 c 128,-1,73
 827 754 827 754 794 799.5 c 128,-1,74
 761 845 761 845 713 866 c 128,-1,75
 665 887 665 887 604 887 c 0,61,62
EndSplineSet
Validated: 5
EndChar

StartChar: c
Encoding: 99 99 66
Width: 934
Flags: W
LayerCount: 2
Fore
SplineSet
837 833 m 2,0,1
 829 822 829 822 821 816 c 128,-1,2
 813 810 813 810 798 810 c 256,3,4
 783 810 783 810 765.5 822.5 c 128,-1,5
 748 835 748 835 721 850 c 128,-1,6
 694 865 694 865 655.5 877.5 c 128,-1,7
 617 890 617 890 561 890 c 0,8,9
 487 890 487 890 430 863.5 c 128,-1,10
 373 837 373 837 334.5 787 c 128,-1,11
 296 737 296 737 276.5 666 c 128,-1,12
 257 595 257 595 257 507 c 0,13,14
 257 415 257 415 278 343.5 c 128,-1,15
 299 272 299 272 337 223.5 c 128,-1,16
 375 175 375 175 429.5 149.5 c 128,-1,17
 484 124 484 124 552 124 c 0,18,19
 617 124 617 124 659 139.5 c 128,-1,20
 701 155 701 155 729 174 c 128,-1,21
 757 193 757 193 775 208.5 c 128,-1,22
 793 224 793 224 811 224 c 0,23,24
 834 224 834 224 845 207 c 2,25,-1
 895 142 l 1,26,27
 829 61 829 61 730 23.5 c 128,-1,28
 631 -14 631 -14 521 -14 c 0,29,30
 426 -14 426 -14 344.5 21 c 128,-1,31
 263 56 263 56 203 122.5 c 128,-1,32
 143 189 143 189 108.5 286 c 128,-1,33
 74 383 74 383 74 507 c 0,34,35
 74 620 74 620 105.5 716 c 128,-1,36
 137 812 137 812 197.5 881.5 c 128,-1,37
 258 951 258 951 347 990 c 128,-1,38
 436 1029 436 1029 551 1029 c 0,39,40
 657 1029 657 1029 739 994.5 c 128,-1,41
 821 960 821 960 884 897 c 1,42,-1
 837 833 l 2,0,1
837 833 m 2,43,44
 829 822 829 822 821 816 c 128,-1,45
 813 810 813 810 798 810 c 256,46,47
 783 810 783 810 765.5 822.5 c 128,-1,48
 748 835 748 835 721 850 c 128,-1,49
 694 865 694 865 655.5 877.5 c 128,-1,50
 617 890 617 890 561 890 c 0,51,52
 487 890 487 890 430 863.5 c 128,-1,53
 373 837 373 837 334.5 787 c 128,-1,54
 296 737 296 737 276.5 666 c 128,-1,55
 257 595 257 595 257 507 c 0,56,57
 257 415 257 415 278 343.5 c 128,-1,58
 299 272 299 272 337 223.5 c 128,-1,59
 375 175 375 175 429.5 149.5 c 128,-1,60
 484 124 484 124 552 124 c 0,61,62
 617 124 617 124 659 139.5 c 128,-1,63
 701 155 701 155 729 174 c 128,-1,64
 757 193 757 193 775 208.5 c 128,-1,65
 793 224 793 224 811 224 c 0,66,67
 834 224 834 224 845 207 c 2,68,-1
 895 142 l 1,69,70
 829 61 829 61 730 23.5 c 128,-1,71
 631 -14 631 -14 521 -14 c 0,72,73
 426 -14 426 -14 344.5 21 c 128,-1,74
 263 56 263 56 203 122.5 c 128,-1,75
 143 189 143 189 108.5 286 c 128,-1,76
 74 383 74 383 74 507 c 0,77,78
 74 620 74 620 105.5 716 c 128,-1,79
 137 812 137 812 197.5 881.5 c 128,-1,80
 258 951 258 951 347 990 c 128,-1,81
 436 1029 436 1029 551 1029 c 0,82,83
 657 1029 657 1029 739 994.5 c 128,-1,84
 821 960 821 960 884 897 c 1,85,-1
 837 833 l 2,43,44
EndSplineSet
Validated: 5
EndChar

StartChar: d
Encoding: 100 100 67
Width: 1118
Flags: W
LayerCount: 2
Fore
SplineSet
859 0 m 2,0,1
 821 0 821 0 811 37 c 1,2,-1
 795 160 l 1,3,4
 730 81 730 81 646.5 33.5 c 128,-1,5
 563 -14 563 -14 455 -14 c 0,6,7
 368 -14 368 -14 297 19.5 c 128,-1,8
 226 53 226 53 176 118 c 128,-1,9
 126 183 126 183 99 280 c 128,-1,10
 72 377 72 377 72 503 c 0,11,12
 72 615 72 615 102 711.5 c 128,-1,13
 132 808 132 808 188.5 879 c 128,-1,14
 245 950 245 950 326 990.5 c 128,-1,15
 407 1031 407 1031 510 1031 c 0,16,17
 603 1031 603 1031 669 999.5 c 128,-1,18
 735 968 735 968 787 911 c 1,19,-1
 787 1473 l 1,20,-1
 965 1473 l 1,21,-1
 965 0 l 1,22,-1
 859 0 l 2,0,1
514 130 m 0,23,24
 601 130 601 130 666.5 170 c 128,-1,25
 732 210 732 210 787 283 c 1,26,-1
 787 773 l 1,27,28
 738 839 738 839 679.5 865.5 c 128,-1,29
 621 892 621 892 550 892 c 0,30,31
 408 892 408 892 332 791 c 128,-1,32
 256 690 256 690 256 503 c 0,33,34
 256 404 256 404 273 333.5 c 128,-1,35
 290 263 290 263 323 217.5 c 128,-1,36
 356 172 356 172 404 151 c 128,-1,37
 452 130 452 130 514 130 c 0,23,24
859 0 m 2,38,39
 821 0 821 0 811 37 c 1,40,-1
 795 160 l 1,41,42
 730 81 730 81 646.5 33.5 c 128,-1,43
 563 -14 563 -14 455 -14 c 0,44,45
 368 -14 368 -14 297 19.5 c 128,-1,46
 226 53 226 53 176 118 c 128,-1,47
 126 183 126 183 99 280 c 128,-1,48
 72 377 72 377 72 503 c 0,49,50
 72 615 72 615 102 711.5 c 128,-1,51
 132 808 132 808 188.5 879 c 128,-1,52
 245 950 245 950 326 990.5 c 128,-1,53
 407 1031 407 1031 510 1031 c 0,54,55
 603 1031 603 1031 669 999.5 c 128,-1,56
 735 968 735 968 787 911 c 1,57,-1
 787 1473 l 1,58,-1
 965 1473 l 1,59,-1
 965 0 l 1,60,-1
 859 0 l 2,38,39
514 130 m 0,61,62
 601 130 601 130 666.5 170 c 128,-1,63
 732 210 732 210 787 283 c 1,64,-1
 787 773 l 1,65,66
 738 839 738 839 679.5 865.5 c 128,-1,67
 621 892 621 892 550 892 c 0,68,69
 408 892 408 892 332 791 c 128,-1,70
 256 690 256 690 256 503 c 0,71,72
 256 404 256 404 273 333.5 c 128,-1,73
 290 263 290 263 323 217.5 c 128,-1,74
 356 172 356 172 404 151 c 128,-1,75
 452 130 452 130 514 130 c 0,61,62
EndSplineSet
Validated: 5
EndChar

StartChar: e
Encoding: 101 101 68
Width: 1048
Flags: W
LayerCount: 2
Fore
SplineSet
547 1029 m 0,0,1
 638 1029 638 1029 715 998.5 c 128,-1,2
 792 968 792 968 848 910.5 c 128,-1,3
 904 853 904 853 935.5 768.5 c 128,-1,4
 967 684 967 684 967 576 c 0,5,6
 967 534 967 534 958 520 c 128,-1,7
 949 506 949 506 924 506 c 2,8,-1
 250 506 l 1,9,10
 252 410 252 410 276 339 c 128,-1,11
 300 268 300 268 342 220.5 c 128,-1,12
 384 173 384 173 442 149.5 c 128,-1,13
 500 126 500 126 572 126 c 0,14,15
 639 126 639 126 687.5 141.5 c 128,-1,16
 736 157 736 157 771 175 c 128,-1,17
 806 193 806 193 829.5 208.5 c 128,-1,18
 853 224 853 224 870 224 c 0,19,20
 892 224 892 224 904 207 c 2,21,-1
 954 142 l 1,22,23
 921 102 921 102 875 72.5 c 128,-1,24
 829 43 829 43 776.5 24 c 128,-1,25
 724 5 724 5 668 -4.5 c 128,-1,26
 612 -14 612 -14 557 -14 c 0,27,28
 452 -14 452 -14 363.5 21.5 c 128,-1,29
 275 57 275 57 210.5 125.5 c 128,-1,30
 146 194 146 194 110 295 c 128,-1,31
 74 396 74 396 74 527 c 0,32,33
 74 633 74 633 106.5 725 c 128,-1,34
 139 817 139 817 200 884.5 c 128,-1,35
 261 952 261 952 349 990.5 c 128,-1,36
 437 1029 437 1029 547 1029 c 0,0,1
551 898 m 0,37,38
 422 898 422 898 348 823.5 c 128,-1,39
 274 749 274 749 256 617 c 1,40,-1
 807 617 l 1,41,42
 807 679 807 679 790 730.5 c 128,-1,43
 773 782 773 782 740 819.5 c 128,-1,44
 707 857 707 857 659.5 877.5 c 128,-1,45
 612 898 612 898 551 898 c 0,37,38
547 1029 m 0,46,47
 638 1029 638 1029 715 998.5 c 128,-1,48
 792 968 792 968 848 910.5 c 128,-1,49
 904 853 904 853 935.5 768.5 c 128,-1,50
 967 684 967 684 967 576 c 0,51,52
 967 534 967 534 958 520 c 128,-1,53
 949 506 949 506 924 506 c 2,54,-1
 250 506 l 1,55,56
 252 410 252 410 276 339 c 128,-1,57
 300 268 300 268 342 220.5 c 128,-1,58
 384 173 384 173 442 149.5 c 128,-1,59
 500 126 500 126 572 126 c 0,60,61
 639 126 639 126 687.5 141.5 c 128,-1,62
 736 157 736 157 771 175 c 128,-1,63
 806 193 806 193 829.5 208.5 c 128,-1,64
 853 224 853 224 870 224 c 0,65,66
 892 224 892 224 904 207 c 2,67,-1
 954 142 l 1,68,69
 921 102 921 102 875 72.5 c 128,-1,70
 829 43 829 43 776.5 24 c 128,-1,71
 724 5 724 5 668 -4.5 c 128,-1,72
 612 -14 612 -14 557 -14 c 0,73,74
 452 -14 452 -14 363.5 21.5 c 128,-1,75
 275 57 275 57 210.5 125.5 c 128,-1,76
 146 194 146 194 110 295 c 128,-1,77
 74 396 74 396 74 527 c 0,78,79
 74 633 74 633 106.5 725 c 128,-1,80
 139 817 139 817 200 884.5 c 128,-1,81
 261 952 261 952 349 990.5 c 128,-1,82
 437 1029 437 1029 547 1029 c 0,46,47
551 898 m 0,83,84
 422 898 422 898 348 823.5 c 128,-1,85
 274 749 274 749 256 617 c 1,86,-1
 807 617 l 1,87,88
 807 679 807 679 790 730.5 c 128,-1,89
 773 782 773 782 740 819.5 c 128,-1,90
 707 857 707 857 659.5 877.5 c 128,-1,91
 612 898 612 898 551 898 c 0,83,84
EndSplineSet
Validated: 5
EndChar

StartChar: f
Encoding: 102 102 69
Width: 674
Flags: W
LayerCount: 2
Fore
SplineSet
186 0 m 1,0,-1
 186 861 l 1,1,-1
 74 874 l 2,2,3
 53 879 53 879 39.5 889.5 c 128,-1,4
 26 900 26 900 26 920 c 2,5,-1
 26 993 l 1,6,-1
 186 993 l 1,7,-1
 186 1091 l 2,8,9
 186 1178 186 1178 210.5 1245.5 c 128,-1,10
 235 1313 235 1313 280.5 1359.5 c 128,-1,11
 326 1406 326 1406 390 1430 c 128,-1,12
 454 1454 454 1454 534 1454 c 0,13,14
 602 1454 602 1454 660 1434 c 1,15,-1
 656 1345 l 2,16,17
 655 1325 655 1325 639 1321 c 128,-1,18
 623 1317 623 1317 594 1317 c 2,19,-1
 563 1317 l 2,20,21
 517 1317 517 1317 479.5 1305 c 128,-1,22
 442 1293 442 1293 415 1266 c 128,-1,23
 388 1239 388 1239 373.5 1195 c 128,-1,24
 359 1151 359 1151 359 1086 c 2,25,-1
 359 993 l 1,26,-1
 652 993 l 1,27,-1
 652 864 l 1,28,-1
 365 864 l 1,29,-1
 365 0 l 1,30,-1
 186 0 l 1,0,-1
186 0 m 1,31,-1
 186 861 l 1,32,-1
 74 874 l 2,33,34
 53 879 53 879 39.5 889.5 c 128,-1,35
 26 900 26 900 26 920 c 2,36,-1
 26 993 l 1,37,-1
 186 993 l 1,38,-1
 186 1091 l 2,39,40
 186 1178 186 1178 210.5 1245.5 c 128,-1,41
 235 1313 235 1313 280.5 1359.5 c 128,-1,42
 326 1406 326 1406 390 1430 c 128,-1,43
 454 1454 454 1454 534 1454 c 0,44,45
 602 1454 602 1454 660 1434 c 1,46,-1
 656 1345 l 2,47,48
 655 1325 655 1325 639 1321 c 128,-1,49
 623 1317 623 1317 594 1317 c 2,50,-1
 563 1317 l 2,51,52
 517 1317 517 1317 479.5 1305 c 128,-1,53
 442 1293 442 1293 415 1266 c 128,-1,54
 388 1239 388 1239 373.5 1195 c 128,-1,55
 359 1151 359 1151 359 1086 c 2,56,-1
 359 993 l 1,57,-1
 652 993 l 1,58,-1
 652 864 l 1,59,-1
 365 864 l 1,60,-1
 365 0 l 1,61,-1
 186 0 l 1,31,-1
EndSplineSet
Validated: 5
EndChar

StartChar: g
Encoding: 103 103 70
Width: 1022
Flags: W
LayerCount: 2
Fore
SplineSet
487 1030 m 0,0,1
 553 1030 553 1030 610.5 1015.5 c 128,-1,2
 668 1001 668 1001 715 973 c 1,3,-1
 990 973 l 1,4,-1
 990 907 l 2,5,6
 990 874 990 874 948 865 c 2,7,-1
 833 849 l 1,8,9
 867 784 867 784 867 704 c 0,10,11
 867 630 867 630 838.5 569.5 c 128,-1,12
 810 509 810 509 759.5 466 c 128,-1,13
 709 423 709 423 639.5 400 c 128,-1,14
 570 377 570 377 487 377 c 0,15,16
 416 377 416 377 353 394 c 1,17,18
 321 374 321 374 304.5 351 c 128,-1,19
 288 328 288 328 288 306 c 0,20,21
 288 270 288 270 317 251.5 c 128,-1,22
 346 233 346 233 394 225 c 128,-1,23
 442 217 442 217 503 215 c 128,-1,24
 564 213 564 213 627.5 208.5 c 128,-1,25
 691 204 691 204 752 193 c 128,-1,26
 813 182 813 182 861 157 c 128,-1,27
 909 132 909 132 938 88 c 128,-1,28
 967 44 967 44 967 -26 c 0,29,30
 967 -91 967 -91 934.5 -152 c 128,-1,31
 902 -213 902 -213 841 -260.5 c 128,-1,32
 780 -308 780 -308 692 -336.5 c 128,-1,33
 604 -365 604 -365 493 -365 c 256,34,35
 382 -365 382 -365 298.5 -343 c 128,-1,36
 215 -321 215 -321 160 -284 c 128,-1,37
 105 -247 105 -247 77.5 -198.5 c 128,-1,38
 50 -150 50 -150 50 -97 c 0,39,40
 50 -22 50 -22 97.5 30.5 c 128,-1,41
 145 83 145 83 228 114 c 1,42,43
 185 134 185 134 159.5 167.5 c 128,-1,44
 134 201 134 201 134 257 c 0,45,46
 134 279 134 279 142 302.5 c 128,-1,47
 150 326 150 326 166.5 349 c 128,-1,48
 183 372 183 372 207 393 c 128,-1,49
 231 414 231 414 263 430 c 1,50,51
 188 472 188 472 145.5 541.5 c 128,-1,52
 103 611 103 611 103 704 c 0,53,54
 103 778 103 778 131.5 838.5 c 128,-1,55
 160 899 160 899 211 941.5 c 128,-1,56
 262 984 262 984 332.5 1007 c 128,-1,57
 403 1030 403 1030 487 1030 c 0,0,1
803 -55 m 0,58,59
 803 -17 803 -17 782 6 c 128,-1,60
 761 29 761 29 725 41.5 c 128,-1,61
 689 54 689 54 642 60 c 128,-1,62
 595 66 595 66 543 68.5 c 128,-1,63
 491 71 491 71 437 74 c 128,-1,64
 383 77 383 77 334 85 c 1,65,66
 277 58 277 58 241.5 19 c 128,-1,67
 206 -20 206 -20 206 -74 c 0,68,69
 206 -108 206 -108 223.5 -137.5 c 128,-1,70
 241 -167 241 -167 277 -188.5 c 128,-1,71
 313 -210 313 -210 367.5 -222.5 c 128,-1,72
 422 -235 422 -235 496 -235 c 0,73,74
 568 -235 568 -235 625 -222 c 128,-1,75
 682 -209 682 -209 721.5 -185 c 128,-1,76
 761 -161 761 -161 782 -128 c 128,-1,77
 803 -95 803 -95 803 -55 c 0,58,59
487 495 m 0,78,79
 541 495 541 495 582.5 510 c 128,-1,80
 624 525 624 525 652 552 c 128,-1,81
 680 579 680 579 694 616.5 c 128,-1,82
 708 654 708 654 708 699 c 0,83,84
 708 792 708 792 651.5 847 c 128,-1,85
 595 902 595 902 487 902 c 0,86,87
 380 902 380 902 323.5 847 c 128,-1,88
 267 792 267 792 267 699 c 0,89,90
 267 654 267 654 281.5 616.5 c 128,-1,91
 296 579 296 579 324 552 c 128,-1,92
 352 525 352 525 393 510 c 128,-1,93
 434 495 434 495 487 495 c 0,78,79
487 1030 m 0,94,95
 553 1030 553 1030 610.5 1015.5 c 128,-1,96
 668 1001 668 1001 715 973 c 1,97,-1
 990 973 l 1,98,-1
 990 907 l 2,99,100
 990 874 990 874 948 865 c 2,101,-1
 833 849 l 1,102,103
 867 784 867 784 867 704 c 0,104,105
 867 630 867 630 838.5 569.5 c 128,-1,106
 810 509 810 509 759.5 466 c 128,-1,107
 709 423 709 423 639.5 400 c 128,-1,108
 570 377 570 377 487 377 c 0,109,110
 416 377 416 377 353 394 c 1,111,112
 321 374 321 374 304.5 351 c 128,-1,113
 288 328 288 328 288 306 c 0,114,115
 288 270 288 270 317 251.5 c 128,-1,116
 346 233 346 233 394 225 c 128,-1,117
 442 217 442 217 503 215 c 128,-1,118
 564 213 564 213 627.5 208.5 c 128,-1,119
 691 204 691 204 752 193 c 128,-1,120
 813 182 813 182 861 157 c 128,-1,121
 909 132 909 132 938 88 c 128,-1,122
 967 44 967 44 967 -26 c 0,123,124
 967 -91 967 -91 934.5 -152 c 128,-1,125
 902 -213 902 -213 841 -260.5 c 128,-1,126
 780 -308 780 -308 692 -336.5 c 128,-1,127
 604 -365 604 -365 493 -365 c 256,128,129
 382 -365 382 -365 298.5 -343 c 128,-1,130
 215 -321 215 -321 160 -284 c 128,-1,131
 105 -247 105 -247 77.5 -198.5 c 128,-1,132
 50 -150 50 -150 50 -97 c 0,133,134
 50 -22 50 -22 97.5 30.5 c 128,-1,135
 145 83 145 83 228 114 c 1,136,137
 185 134 185 134 159.5 167.5 c 128,-1,138
 134 201 134 201 134 257 c 0,139,140
 134 279 134 279 142 302.5 c 128,-1,141
 150 326 150 326 166.5 349 c 128,-1,142
 183 372 183 372 207 393 c 128,-1,143
 231 414 231 414 263 430 c 1,144,145
 188 472 188 472 145.5 541.5 c 128,-1,146
 103 611 103 611 103 704 c 0,147,148
 103 778 103 778 131.5 838.5 c 128,-1,149
 160 899 160 899 211 941.5 c 128,-1,150
 262 984 262 984 332.5 1007 c 128,-1,151
 403 1030 403 1030 487 1030 c 0,94,95
803 -55 m 0,152,153
 803 -17 803 -17 782 6 c 128,-1,154
 761 29 761 29 725 41.5 c 128,-1,155
 689 54 689 54 642 60 c 128,-1,156
 595 66 595 66 543 68.5 c 128,-1,157
 491 71 491 71 437 74 c 128,-1,158
 383 77 383 77 334 85 c 1,159,160
 277 58 277 58 241.5 19 c 128,-1,161
 206 -20 206 -20 206 -74 c 0,162,163
 206 -108 206 -108 223.5 -137.5 c 128,-1,164
 241 -167 241 -167 277 -188.5 c 128,-1,165
 313 -210 313 -210 367.5 -222.5 c 128,-1,166
 422 -235 422 -235 496 -235 c 0,167,168
 568 -235 568 -235 625 -222 c 128,-1,169
 682 -209 682 -209 721.5 -185 c 128,-1,170
 761 -161 761 -161 782 -128 c 128,-1,171
 803 -95 803 -95 803 -55 c 0,152,153
487 495 m 0,172,173
 541 495 541 495 582.5 510 c 128,-1,174
 624 525 624 525 652 552 c 128,-1,175
 680 579 680 579 694 616.5 c 128,-1,176
 708 654 708 654 708 699 c 0,177,178
 708 792 708 792 651.5 847 c 128,-1,179
 595 902 595 902 487 902 c 0,180,181
 380 902 380 902 323.5 847 c 128,-1,182
 267 792 267 792 267 699 c 0,183,184
 267 654 267 654 281.5 616.5 c 128,-1,185
 296 579 296 579 324 552 c 128,-1,186
 352 525 352 525 393 510 c 128,-1,187
 434 495 434 495 487 495 c 0,172,173
EndSplineSet
Validated: 1029
EndChar

StartChar: h
Encoding: 104 104 71
Width: 1112
Flags: W
LayerCount: 2
Fore
SplineSet
146 0 m 1,0,-1
 146 1473 l 1,1,-1
 324 1473 l 1,2,-1
 324 877 l 1,3,4
 389 946 389 946 468 987.5 c 128,-1,5
 547 1029 547 1029 650 1029 c 0,6,7
 733 1029 733 1029 796.5 1001.5 c 128,-1,8
 860 974 860 974 902.5 923.5 c 128,-1,9
 945 873 945 873 967 802 c 128,-1,10
 989 731 989 731 989 645 c 2,11,-1
 989 0 l 1,12,-1
 811 0 l 1,13,-1
 811 645 l 2,14,15
 811 760 811 760 758.5 823.5 c 128,-1,16
 706 887 706 887 598 887 c 0,17,18
 519 887 519 887 450.5 849 c 128,-1,19
 382 811 382 811 324 746 c 1,20,-1
 324 0 l 1,21,-1
 146 0 l 1,0,-1
146 0 m 1,22,-1
 146 1473 l 1,23,-1
 324 1473 l 1,24,-1
 324 877 l 1,25,26
 389 946 389 946 468 987.5 c 128,-1,27
 547 1029 547 1029 650 1029 c 0,28,29
 733 1029 733 1029 796.5 1001.5 c 128,-1,30
 860 974 860 974 902.5 923.5 c 128,-1,31
 945 873 945 873 967 802 c 128,-1,32
 989 731 989 731 989 645 c 2,33,-1
 989 0 l 1,34,-1
 811 0 l 1,35,-1
 811 645 l 2,36,37
 811 760 811 760 758.5 823.5 c 128,-1,38
 706 887 706 887 598 887 c 0,39,40
 519 887 519 887 450.5 849 c 128,-1,41
 382 811 382 811 324 746 c 1,42,-1
 324 0 l 1,43,-1
 146 0 l 1,22,-1
EndSplineSet
Validated: 5
EndChar

StartChar: i
Encoding: 105 105 72
Width: 512
Flags: W
LayerCount: 2
Fore
SplineSet
344 1013 m 1,0,-1
 344 0 l 1,1,-1
 166 0 l 1,2,-1
 166 1013 l 1,3,-1
 344 1013 l 1,0,-1
384 1331 m 256,4,5
 384 1305 384 1305 373.5 1282.5 c 128,-1,6
 363 1260 363 1260 345.5 1242.5 c 128,-1,7
 328 1225 328 1225 305 1215 c 128,-1,8
 282 1205 282 1205 256 1205 c 256,9,10
 230 1205 230 1205 207.5 1215 c 128,-1,11
 185 1225 185 1225 167.5 1242.5 c 128,-1,12
 150 1260 150 1260 140 1282.5 c 128,-1,13
 130 1305 130 1305 130 1331 c 256,14,15
 130 1357 130 1357 140 1380.5 c 128,-1,16
 150 1404 150 1404 167.5 1421.5 c 128,-1,17
 185 1439 185 1439 207.5 1449 c 128,-1,18
 230 1459 230 1459 256 1459 c 256,19,20
 282 1459 282 1459 305 1449 c 128,-1,21
 328 1439 328 1439 345.5 1421.5 c 128,-1,22
 363 1404 363 1404 373.5 1380.5 c 128,-1,23
 384 1357 384 1357 384 1331 c 256,4,5
344 1013 m 1,24,-1
 344 0 l 1,25,-1
 166 0 l 1,26,-1
 166 1013 l 1,27,-1
 344 1013 l 1,24,-1
384 1331 m 256,28,29
 384 1305 384 1305 373.5 1282.5 c 128,-1,30
 363 1260 363 1260 345.5 1242.5 c 128,-1,31
 328 1225 328 1225 305 1215 c 128,-1,32
 282 1205 282 1205 256 1205 c 256,33,34
 230 1205 230 1205 207.5 1215 c 128,-1,35
 185 1225 185 1225 167.5 1242.5 c 128,-1,36
 150 1260 150 1260 140 1282.5 c 128,-1,37
 130 1305 130 1305 130 1331 c 256,38,39
 130 1357 130 1357 140 1380.5 c 128,-1,40
 150 1404 150 1404 167.5 1421.5 c 128,-1,41
 185 1439 185 1439 207.5 1449 c 128,-1,42
 230 1459 230 1459 256 1459 c 256,43,44
 282 1459 282 1459 305 1449 c 128,-1,45
 328 1439 328 1439 345.5 1421.5 c 128,-1,46
 363 1404 363 1404 373.5 1380.5 c 128,-1,47
 384 1357 384 1357 384 1331 c 256,28,29
EndSplineSet
Validated: 5
EndChar

StartChar: j
Encoding: 106 106 73
Width: 508
Flags: W
LayerCount: 2
Fore
SplineSet
344 1013 m 1,0,-1
 344 -75 l 2,1,2
 344 -136 344 -136 328 -188.5 c 128,-1,3
 312 -241 312 -241 277.5 -280 c 128,-1,4
 243 -319 243 -319 188.5 -341.5 c 128,-1,5
 134 -364 134 -364 58 -364 c 0,6,7
 25 -364 25 -364 -2 -359 c 128,-1,8
 -29 -354 -29 -354 -56 -344 c 1,9,-1
 -48 -248 l 2,10,11
 -46 -235 -46 -235 -39 -231.5 c 128,-1,12
 -32 -228 -32 -228 -17 -228 c 0,13,14
 -9 -228 -9 -228 0 -228.5 c 128,-1,15
 9 -229 9 -229 22 -229 c 0,16,17
 100 -229 100 -229 133 -192.5 c 128,-1,18
 166 -156 166 -156 166 -75 c 2,19,-1
 166 1013 l 1,20,-1
 344 1013 l 1,0,-1
384 1331 m 256,21,22
 384 1305 384 1305 373.5 1282.5 c 128,-1,23
 363 1260 363 1260 345.5 1242.5 c 128,-1,24
 328 1225 328 1225 305 1215 c 128,-1,25
 282 1205 282 1205 256 1205 c 256,26,27
 230 1205 230 1205 207.5 1215 c 128,-1,28
 185 1225 185 1225 167.5 1242.5 c 128,-1,29
 150 1260 150 1260 140 1282.5 c 128,-1,30
 130 1305 130 1305 130 1331 c 256,31,32
 130 1357 130 1357 140 1380.5 c 128,-1,33
 150 1404 150 1404 167.5 1421.5 c 128,-1,34
 185 1439 185 1439 207.5 1449 c 128,-1,35
 230 1459 230 1459 256 1459 c 256,36,37
 282 1459 282 1459 305 1449 c 128,-1,38
 328 1439 328 1439 345.5 1421.5 c 128,-1,39
 363 1404 363 1404 373.5 1380.5 c 128,-1,40
 384 1357 384 1357 384 1331 c 256,21,22
344 1013 m 1,41,-1
 344 -75 l 2,42,43
 344 -136 344 -136 328 -188.5 c 128,-1,44
 312 -241 312 -241 277.5 -280 c 128,-1,45
 243 -319 243 -319 188.5 -341.5 c 128,-1,46
 134 -364 134 -364 58 -364 c 0,47,48
 25 -364 25 -364 -2 -359 c 128,-1,49
 -29 -354 -29 -354 -56 -344 c 1,50,-1
 -48 -248 l 2,51,52
 -46 -235 -46 -235 -39 -231.5 c 128,-1,53
 -32 -228 -32 -228 -17 -228 c 0,54,55
 -9 -228 -9 -228 0 -228.5 c 128,-1,56
 9 -229 9 -229 22 -229 c 0,57,58
 100 -229 100 -229 133 -192.5 c 128,-1,59
 166 -156 166 -156 166 -75 c 2,60,-1
 166 1013 l 1,61,-1
 344 1013 l 1,41,-1
384 1331 m 256,62,63
 384 1305 384 1305 373.5 1282.5 c 128,-1,64
 363 1260 363 1260 345.5 1242.5 c 128,-1,65
 328 1225 328 1225 305 1215 c 128,-1,66
 282 1205 282 1205 256 1205 c 256,67,68
 230 1205 230 1205 207.5 1215 c 128,-1,69
 185 1225 185 1225 167.5 1242.5 c 128,-1,70
 150 1260 150 1260 140 1282.5 c 128,-1,71
 130 1305 130 1305 130 1331 c 256,72,73
 130 1357 130 1357 140 1380.5 c 128,-1,74
 150 1404 150 1404 167.5 1421.5 c 128,-1,75
 185 1439 185 1439 207.5 1449 c 128,-1,76
 230 1459 230 1459 256 1459 c 256,77,78
 282 1459 282 1459 305 1449 c 128,-1,79
 328 1439 328 1439 345.5 1421.5 c 128,-1,80
 363 1404 363 1404 373.5 1380.5 c 128,-1,81
 384 1357 384 1357 384 1331 c 256,62,63
EndSplineSet
Validated: 5
EndChar

StartChar: k
Encoding: 107 107 74
Width: 1048
Flags: W
LayerCount: 2
Fore
SplineSet
331 1473 m 1,0,-1
 331 606 l 1,1,-1
 377 606 l 2,2,3
 397 606 397 606 410 611.5 c 128,-1,4
 423 617 423 617 439 634 c 2,5,-1
 759 977 l 2,6,7
 774 993 774 993 789 1003 c 128,-1,8
 804 1013 804 1013 829 1013 c 2,9,-1
 991 1013 l 1,10,-1
 618 616 l 2,11,12
 604 599 604 599 590.5 586 c 128,-1,13
 577 573 577 573 560 563 c 1,14,15
 578 551 578 551 592.5 535.5 c 128,-1,16
 607 520 607 520 620 500 c 2,17,-1
 1016 0 l 1,18,-1
 856 0 l 2,19,20
 834 0 834 0 818.5 8.5 c 128,-1,21
 803 17 803 17 789 35 c 2,22,-1
 456 450 l 2,23,24
 441 471 441 471 426 477.5 c 128,-1,25
 411 484 411 484 381 484 c 2,26,-1
 331 484 l 1,27,-1
 331 0 l 1,28,-1
 152 0 l 1,29,-1
 152 1473 l 1,30,-1
 331 1473 l 1,0,-1
331 1473 m 1,31,-1
 331 606 l 1,32,-1
 377 606 l 2,33,34
 397 606 397 606 410 611.5 c 128,-1,35
 423 617 423 617 439 634 c 2,36,-1
 759 977 l 2,37,38
 774 993 774 993 789 1003 c 128,-1,39
 804 1013 804 1013 829 1013 c 2,40,-1
 991 1013 l 1,41,-1
 618 616 l 2,42,43
 604 599 604 599 590.5 586 c 128,-1,44
 577 573 577 573 560 563 c 1,45,46
 578 551 578 551 592.5 535.5 c 128,-1,47
 607 520 607 520 620 500 c 2,48,-1
 1016 0 l 1,49,-1
 856 0 l 2,50,51
 834 0 834 0 818.5 8.5 c 128,-1,52
 803 17 803 17 789 35 c 2,53,-1
 456 450 l 2,54,55
 441 471 441 471 426 477.5 c 128,-1,56
 411 484 411 484 381 484 c 2,57,-1
 331 484 l 1,58,-1
 331 0 l 1,59,-1
 152 0 l 1,60,-1
 152 1473 l 1,61,-1
 331 1473 l 1,31,-1
EndSplineSet
Validated: 5
EndChar

StartChar: l
Encoding: 108 108 75
Width: 512
Flags: W
LayerCount: 2
Fore
SplineSet
344 1473 m 1,0,-1
 344 0 l 1,1,-1
 166 0 l 1,2,-1
 166 1473 l 1,3,-1
 344 1473 l 1,0,-1
344 1473 m 1,4,-1
 344 0 l 1,5,-1
 166 0 l 1,6,-1
 166 1473 l 1,7,-1
 344 1473 l 1,4,-1
EndSplineSet
Validated: 5
EndChar

StartChar: m
Encoding: 109 109 76
Width: 1642
Flags: W
LayerCount: 2
Fore
SplineSet
146 0 m 1,0,-1
 146 1013 l 1,1,-1
 252 1013 l 2,2,3
 290 1013 290 1013 300 976 c 1,4,-1
 313 872 l 1,5,6
 369 941 369 941 438.5 985 c 128,-1,7
 508 1029 508 1029 600 1029 c 0,8,9
 703 1029 703 1029 766.5 972 c 128,-1,10
 830 915 830 915 858 818 c 1,11,12
 879 873 879 873 913.5 913 c 128,-1,13
 948 953 948 953 991 979 c 128,-1,14
 1034 1005 1034 1005 1082.5 1017 c 128,-1,15
 1131 1029 1131 1029 1181 1029 c 0,16,17
 1261 1029 1261 1029 1323.5 1003.5 c 128,-1,18
 1386 978 1386 978 1429.5 929 c 128,-1,19
 1473 880 1473 880 1496 808.5 c 128,-1,20
 1519 737 1519 737 1519 645 c 2,21,-1
 1519 0 l 1,22,-1
 1341 0 l 1,23,-1
 1341 645 l 2,24,25
 1341 764 1341 764 1289 825.5 c 128,-1,26
 1237 887 1237 887 1138 887 c 0,27,28
 1094 887 1094 887 1054.5 871.5 c 128,-1,29
 1015 856 1015 856 985 826 c 128,-1,30
 955 796 955 796 937.5 750.5 c 128,-1,31
 920 705 920 705 920 645 c 2,32,-1
 920 0 l 1,33,-1
 742 0 l 1,34,-1
 742 645 l 2,35,36
 742 767 742 767 693 827 c 128,-1,37
 644 887 644 887 550 887 c 0,38,39
 484 887 484 887 427.5 851.5 c 128,-1,40
 371 816 371 816 324 755 c 1,41,-1
 324 0 l 1,42,-1
 146 0 l 1,0,-1
146 0 m 1,43,-1
 146 1013 l 1,44,-1
 252 1013 l 2,45,46
 290 1013 290 1013 300 976 c 1,47,-1
 313 872 l 1,48,49
 369 941 369 941 438.5 985 c 128,-1,50
 508 1029 508 1029 600 1029 c 0,51,52
 703 1029 703 1029 766.5 972 c 128,-1,53
 830 915 830 915 858 818 c 1,54,55
 879 873 879 873 913.5 913 c 128,-1,56
 948 953 948 953 991 979 c 128,-1,57
 1034 1005 1034 1005 1082.5 1017 c 128,-1,58
 1131 1029 1131 1029 1181 1029 c 0,59,60
 1261 1029 1261 1029 1323.5 1003.5 c 128,-1,61
 1386 978 1386 978 1429.5 929 c 128,-1,62
 1473 880 1473 880 1496 808.5 c 128,-1,63
 1519 737 1519 737 1519 645 c 2,64,-1
 1519 0 l 1,65,-1
 1341 0 l 1,66,-1
 1341 645 l 2,67,68
 1341 764 1341 764 1289 825.5 c 128,-1,69
 1237 887 1237 887 1138 887 c 0,70,71
 1094 887 1094 887 1054.5 871.5 c 128,-1,72
 1015 856 1015 856 985 826 c 128,-1,73
 955 796 955 796 937.5 750.5 c 128,-1,74
 920 705 920 705 920 645 c 2,75,-1
 920 0 l 1,76,-1
 742 0 l 1,77,-1
 742 645 l 2,78,79
 742 767 742 767 693 827 c 128,-1,80
 644 887 644 887 550 887 c 0,81,82
 484 887 484 887 427.5 851.5 c 128,-1,83
 371 816 371 816 324 755 c 1,84,-1
 324 0 l 1,85,-1
 146 0 l 1,43,-1
EndSplineSet
Validated: 5
EndChar

StartChar: n
Encoding: 110 110 77
Width: 1112
Flags: W
LayerCount: 2
Fore
SplineSet
146 0 m 1,0,-1
 146 1013 l 1,1,-1
 252 1013 l 2,2,3
 290 1013 290 1013 300 976 c 1,4,-1
 314 866 l 1,5,6
 380 939 380 939 461.5 984 c 128,-1,7
 543 1029 543 1029 650 1029 c 0,8,9
 733 1029 733 1029 796.5 1001.5 c 128,-1,10
 860 974 860 974 902.5 923.5 c 128,-1,11
 945 873 945 873 967 802 c 128,-1,12
 989 731 989 731 989 645 c 2,13,-1
 989 0 l 1,14,-1
 811 0 l 1,15,-1
 811 645 l 2,16,17
 811 760 811 760 758.5 823.5 c 128,-1,18
 706 887 706 887 598 887 c 0,19,20
 519 887 519 887 450.5 849 c 128,-1,21
 382 811 382 811 324 746 c 1,22,-1
 324 0 l 1,23,-1
 146 0 l 1,0,-1
146 0 m 1,24,-1
 146 1013 l 1,25,-1
 252 1013 l 2,26,27
 290 1013 290 1013 300 976 c 1,28,-1
 314 866 l 1,29,30
 380 939 380 939 461.5 984 c 128,-1,31
 543 1029 543 1029 650 1029 c 0,32,33
 733 1029 733 1029 796.5 1001.5 c 128,-1,34
 860 974 860 974 902.5 923.5 c 128,-1,35
 945 873 945 873 967 802 c 128,-1,36
 989 731 989 731 989 645 c 2,37,-1
 989 0 l 1,38,-1
 811 0 l 1,39,-1
 811 645 l 2,40,41
 811 760 811 760 758.5 823.5 c 128,-1,42
 706 887 706 887 598 887 c 0,43,44
 519 887 519 887 450.5 849 c 128,-1,45
 382 811 382 811 324 746 c 1,46,-1
 324 0 l 1,47,-1
 146 0 l 1,24,-1
EndSplineSet
Validated: 5
EndChar

StartChar: o
Encoding: 111 111 78
Width: 1112
Flags: W
LayerCount: 2
Fore
SplineSet
556 1029 m 256,0,1
 667 1029 667 1029 756.5 992 c 128,-1,2
 846 955 846 955 908.5 887 c 128,-1,3
 971 819 971 819 1004.5 722.5 c 128,-1,4
 1038 626 1038 626 1038 507 c 0,5,6
 1038 387 1038 387 1004.5 291 c 128,-1,7
 971 195 971 195 908.5 127 c 128,-1,8
 846 59 846 59 756.5 22.5 c 128,-1,9
 667 -14 667 -14 556 -14 c 256,10,11
 445 -14 445 -14 355.5 22.5 c 128,-1,12
 266 59 266 59 203 127 c 128,-1,13
 140 195 140 195 106 291 c 128,-1,14
 72 387 72 387 72 507 c 0,15,16
 72 626 72 626 106 722.5 c 128,-1,17
 140 819 140 819 203 887 c 128,-1,18
 266 955 266 955 355.5 992 c 128,-1,19
 445 1029 445 1029 556 1029 c 256,0,1
556 125 m 0,20,21
 706 125 706 125 780 225.5 c 128,-1,22
 854 326 854 326 854 506 c 0,23,24
 854 687 854 687 780 788 c 128,-1,25
 706 889 706 889 556 889 c 0,26,27
 480 889 480 889 424 863 c 128,-1,28
 368 837 368 837 330.5 788 c 128,-1,29
 293 739 293 739 274.5 667.5 c 128,-1,30
 256 596 256 596 256 506 c 256,31,32
 256 416 256 416 274.5 345 c 128,-1,33
 293 274 293 274 330.5 225.5 c 128,-1,34
 368 177 368 177 424 151 c 128,-1,35
 480 125 480 125 556 125 c 0,20,21
556 1029 m 256,36,37
 667 1029 667 1029 756.5 992 c 128,-1,38
 846 955 846 955 908.5 887 c 128,-1,39
 971 819 971 819 1004.5 722.5 c 128,-1,40
 1038 626 1038 626 1038 507 c 0,41,42
 1038 387 1038 387 1004.5 291 c 128,-1,43
 971 195 971 195 908.5 127 c 128,-1,44
 846 59 846 59 756.5 22.5 c 128,-1,45
 667 -14 667 -14 556 -14 c 256,46,47
 445 -14 445 -14 355.5 22.5 c 128,-1,48
 266 59 266 59 203 127 c 128,-1,49
 140 195 140 195 106 291 c 128,-1,50
 72 387 72 387 72 507 c 0,51,52
 72 626 72 626 106 722.5 c 128,-1,53
 140 819 140 819 203 887 c 128,-1,54
 266 955 266 955 355.5 992 c 128,-1,55
 445 1029 445 1029 556 1029 c 256,36,37
556 125 m 0,56,57
 706 125 706 125 780 225.5 c 128,-1,58
 854 326 854 326 854 506 c 0,59,60
 854 687 854 687 780 788 c 128,-1,61
 706 889 706 889 556 889 c 0,62,63
 480 889 480 889 424 863 c 128,-1,64
 368 837 368 837 330.5 788 c 128,-1,65
 293 739 293 739 274.5 667.5 c 128,-1,66
 256 596 256 596 256 506 c 256,67,68
 256 416 256 416 274.5 345 c 128,-1,69
 293 274 293 274 330.5 225.5 c 128,-1,70
 368 177 368 177 424 151 c 128,-1,71
 480 125 480 125 556 125 c 0,56,57
EndSplineSet
Validated: 5
EndChar

StartChar: p
Encoding: 112 112 79
Width: 1104
Flags: W
LayerCount: 2
Fore
SplineSet
146 -343 m 1,0,-1
 146 1013 l 1,1,-1
 252 1013 l 2,2,3
 290 1013 290 1013 300 976 c 1,4,-1
 315 856 l 1,5,6
 380 935 380 935 463.5 983 c 128,-1,7
 547 1031 547 1031 656 1031 c 0,8,9
 743 1031 743 1031 814 997.5 c 128,-1,10
 885 964 885 964 935 898.5 c 128,-1,11
 985 833 985 833 1012 736 c 128,-1,12
 1039 639 1039 639 1039 513 c 0,13,14
 1039 401 1039 401 1009 304.5 c 128,-1,15
 979 208 979 208 923 137.5 c 128,-1,16
 867 67 867 67 785.5 26.5 c 128,-1,17
 704 -14 704 -14 602 -14 c 0,18,19
 508 -14 508 -14 441.5 17 c 128,-1,20
 375 48 375 48 324 105 c 1,21,-1
 324 -343 l 1,22,-1
 146 -343 l 1,0,-1
597 887 m 0,23,24
 510 887 510 887 444.5 847 c 128,-1,25
 379 807 379 807 324 734 c 1,26,-1
 324 244 l 1,27,28
 373 178 373 178 431.5 151 c 128,-1,29
 490 124 490 124 562 124 c 0,30,31
 703 124 703 124 779 225 c 128,-1,32
 855 326 855 326 855 513 c 0,33,34
 855 612 855 612 837.5 683 c 128,-1,35
 820 754 820 754 787 799.5 c 128,-1,36
 754 845 754 845 706 866 c 128,-1,37
 658 887 658 887 597 887 c 0,23,24
146 -343 m 1,38,-1
 146 1013 l 1,39,-1
 252 1013 l 2,40,41
 290 1013 290 1013 300 976 c 1,42,-1
 315 856 l 1,43,44
 380 935 380 935 463.5 983 c 128,-1,45
 547 1031 547 1031 656 1031 c 0,46,47
 743 1031 743 1031 814 997.5 c 128,-1,48
 885 964 885 964 935 898.5 c 128,-1,49
 985 833 985 833 1012 736 c 128,-1,50
 1039 639 1039 639 1039 513 c 0,51,52
 1039 401 1039 401 1009 304.5 c 128,-1,53
 979 208 979 208 923 137.5 c 128,-1,54
 867 67 867 67 785.5 26.5 c 128,-1,55
 704 -14 704 -14 602 -14 c 0,56,57
 508 -14 508 -14 441.5 17 c 128,-1,58
 375 48 375 48 324 105 c 1,59,-1
 324 -343 l 1,60,-1
 146 -343 l 1,38,-1
597 887 m 0,61,62
 510 887 510 887 444.5 847 c 128,-1,63
 379 807 379 807 324 734 c 1,64,-1
 324 244 l 1,65,66
 373 178 373 178 431.5 151 c 128,-1,67
 490 124 490 124 562 124 c 0,68,69
 703 124 703 124 779 225 c 128,-1,70
 855 326 855 326 855 513 c 0,71,72
 855 612 855 612 837.5 683 c 128,-1,73
 820 754 820 754 787 799.5 c 128,-1,74
 754 845 754 845 706 866 c 128,-1,75
 658 887 658 887 597 887 c 0,61,62
EndSplineSet
Validated: 5
EndChar

StartChar: q
Encoding: 113 113 80
Width: 1118
Flags: W
LayerCount: 2
Fore
SplineSet
965 1013 m 1,0,-1
 965 -343 l 1,1,-1
 787 -343 l 1,2,-1
 787 150 l 1,3,4
 723 76 723 76 641.5 31 c 128,-1,5
 560 -14 560 -14 455 -14 c 0,6,7
 368 -14 368 -14 297 19.5 c 128,-1,8
 226 53 226 53 176 118 c 128,-1,9
 126 183 126 183 99 280 c 128,-1,10
 72 377 72 377 72 503 c 0,11,12
 72 615 72 615 102 711.5 c 128,-1,13
 132 808 132 808 188.5 879 c 128,-1,14
 245 950 245 950 326 990.5 c 128,-1,15
 407 1031 407 1031 510 1031 c 0,16,17
 608 1031 608 1031 676.5 996 c 128,-1,18
 745 961 745 961 799 897 c 1,19,-1
 811 976 l 1,20,21
 821 1013 821 1013 859 1013 c 2,22,-1
 965 1013 l 1,0,-1
514 130 m 0,23,24
 601 130 601 130 666.5 170 c 128,-1,25
 732 210 732 210 787 283 c 1,26,-1
 787 773 l 1,27,28
 739 837 739 837 680 864.5 c 128,-1,29
 621 892 621 892 550 892 c 0,30,31
 408 892 408 892 332 791 c 128,-1,32
 256 690 256 690 256 503 c 0,33,34
 256 404 256 404 273 333.5 c 128,-1,35
 290 263 290 263 323 217.5 c 128,-1,36
 356 172 356 172 404 151 c 128,-1,37
 452 130 452 130 514 130 c 0,23,24
965 1013 m 1,38,-1
 965 -343 l 1,39,-1
 787 -343 l 1,40,-1
 787 150 l 1,41,42
 723 76 723 76 641.5 31 c 128,-1,43
 560 -14 560 -14 455 -14 c 0,44,45
 368 -14 368 -14 297 19.5 c 128,-1,46
 226 53 226 53 176 118 c 128,-1,47
 126 183 126 183 99 280 c 128,-1,48
 72 377 72 377 72 503 c 0,49,50
 72 615 72 615 102 711.5 c 128,-1,51
 132 808 132 808 188.5 879 c 128,-1,52
 245 950 245 950 326 990.5 c 128,-1,53
 407 1031 407 1031 510 1031 c 0,54,55
 608 1031 608 1031 676.5 996 c 128,-1,56
 745 961 745 961 799 897 c 1,57,-1
 811 976 l 1,58,59
 821 1013 821 1013 859 1013 c 2,60,-1
 965 1013 l 1,38,-1
514 130 m 0,61,62
 601 130 601 130 666.5 170 c 128,-1,63
 732 210 732 210 787 283 c 1,64,-1
 787 773 l 1,65,66
 739 837 739 837 680 864.5 c 128,-1,67
 621 892 621 892 550 892 c 0,68,69
 408 892 408 892 332 791 c 128,-1,70
 256 690 256 690 256 503 c 0,71,72
 256 404 256 404 273 333.5 c 128,-1,73
 290 263 290 263 323 217.5 c 128,-1,74
 356 172 356 172 404 151 c 128,-1,75
 452 130 452 130 514 130 c 0,61,62
EndSplineSet
Validated: 5
EndChar

StartChar: r
Encoding: 114 114 81
Width: 806
Flags: W
LayerCount: 2
Fore
SplineSet
146 0 m 1,0,-1
 146 1013 l 1,1,-1
 248 1013 l 2,2,3
 277 1013 277 1013 288 1002 c 128,-1,4
 299 991 299 991 303 964 c 2,5,-1
 315 806 l 1,6,7
 367 912 367 912 443.5 971.5 c 128,-1,8
 520 1031 520 1031 623 1031 c 0,9,10
 665 1031 665 1031 699 1021.5 c 128,-1,11
 733 1012 733 1012 762 995 c 1,12,-1
 739 862 l 2,13,14
 732 837 732 837 708 837 c 0,15,16
 694 837 694 837 665 846.5 c 128,-1,17
 636 856 636 856 584 856 c 0,18,19
 491 856 491 856 428.5 802 c 128,-1,20
 366 748 366 748 324 645 c 1,21,-1
 324 0 l 1,22,-1
 146 0 l 1,0,-1
146 0 m 1,23,-1
 146 1013 l 1,24,-1
 248 1013 l 2,25,26
 277 1013 277 1013 288 1002 c 128,-1,27
 299 991 299 991 303 964 c 2,28,-1
 315 806 l 1,29,30
 367 912 367 912 443.5 971.5 c 128,-1,31
 520 1031 520 1031 623 1031 c 0,32,33
 665 1031 665 1031 699 1021.5 c 128,-1,34
 733 1012 733 1012 762 995 c 1,35,-1
 739 862 l 2,36,37
 732 837 732 837 708 837 c 0,38,39
 694 837 694 837 665 846.5 c 128,-1,40
 636 856 636 856 584 856 c 0,41,42
 491 856 491 856 428.5 802 c 128,-1,43
 366 748 366 748 324 645 c 1,44,-1
 324 0 l 1,45,-1
 146 0 l 1,23,-1
EndSplineSet
Validated: 5
EndChar

StartChar: s
Encoding: 115 115 82
Width: 868
Flags: W
LayerCount: 2
Fore
SplineSet
726 846 m 2,0,1
 714 824 714 824 689 824 c 0,2,3
 674 824 674 824 655 835 c 128,-1,4
 636 846 636 846 608.5 859.5 c 128,-1,5
 581 873 581 873 543 884.5 c 128,-1,6
 505 896 505 896 453 896 c 0,7,8
 408 896 408 896 372 884.5 c 128,-1,9
 336 873 336 873 310.5 853 c 128,-1,10
 285 833 285 833 271.5 806.5 c 128,-1,11
 258 780 258 780 258 749 c 0,12,13
 258 710 258 710 280.5 684 c 128,-1,14
 303 658 303 658 340 639 c 128,-1,15
 377 620 377 620 424 605.5 c 128,-1,16
 471 591 471 591 520.5 574.5 c 128,-1,17
 570 558 570 558 617 538 c 128,-1,18
 664 518 664 518 701 488 c 128,-1,19
 738 458 738 458 760.5 414.5 c 128,-1,20
 783 371 783 371 783 310 c 0,21,22
 783 240 783 240 758 180.5 c 128,-1,23
 733 121 733 121 684 77.5 c 128,-1,24
 635 34 635 34 564 9 c 128,-1,25
 493 -16 493 -16 400 -16 c 0,26,27
 294 -16 294 -16 208 18.5 c 128,-1,28
 122 53 122 53 62 107 c 1,29,-1
 104 175 l 2,30,31
 112 188 112 188 123 195 c 128,-1,32
 134 202 134 202 152 202 c 256,33,34
 170 202 170 202 190 188 c 128,-1,35
 210 174 210 174 238.5 157 c 128,-1,36
 267 140 267 140 307.5 126 c 128,-1,37
 348 112 348 112 409 112 c 0,38,39
 461 112 461 112 500 125.5 c 128,-1,40
 539 139 539 139 565 162 c 128,-1,41
 591 185 591 185 603.5 215 c 128,-1,42
 616 245 616 245 616 279 c 0,43,44
 616 321 616 321 593.5 348.5 c 128,-1,45
 571 376 571 376 534 395.5 c 128,-1,46
 497 415 497 415 449.5 429.5 c 128,-1,47
 402 444 402 444 352.5 460 c 128,-1,48
 303 476 303 476 255.5 496.5 c 128,-1,49
 208 517 208 517 171 548 c 128,-1,50
 134 579 134 579 111.5 624.5 c 128,-1,51
 89 670 89 670 89 735 c 0,52,53
 89 793 89 793 113 846.5 c 128,-1,54
 137 900 137 900 183 940.5 c 128,-1,55
 229 981 229 981 296 1005 c 128,-1,56
 363 1029 363 1029 449 1029 c 0,57,58
 549 1029 549 1029 628.5 997.5 c 128,-1,59
 708 966 708 966 766 911 c 1,60,-1
 726 846 l 2,0,1
726 846 m 2,61,62
 714 824 714 824 689 824 c 0,63,64
 674 824 674 824 655 835 c 128,-1,65
 636 846 636 846 608.5 859.5 c 128,-1,66
 581 873 581 873 543 884.5 c 128,-1,67
 505 896 505 896 453 896 c 0,68,69
 408 896 408 896 372 884.5 c 128,-1,70
 336 873 336 873 310.5 853 c 128,-1,71
 285 833 285 833 271.5 806.5 c 128,-1,72
 258 780 258 780 258 749 c 0,73,74
 258 710 258 710 280.5 684 c 128,-1,75
 303 658 303 658 340 639 c 128,-1,76
 377 620 377 620 424 605.5 c 128,-1,77
 471 591 471 591 520.5 574.5 c 128,-1,78
 570 558 570 558 617 538 c 128,-1,79
 664 518 664 518 701 488 c 128,-1,80
 738 458 738 458 760.5 414.5 c 128,-1,81
 783 371 783 371 783 310 c 0,82,83
 783 240 783 240 758 180.5 c 128,-1,84
 733 121 733 121 684 77.5 c 128,-1,85
 635 34 635 34 564 9 c 128,-1,86
 493 -16 493 -16 400 -16 c 0,87,88
 294 -16 294 -16 208 18.5 c 128,-1,89
 122 53 122 53 62 107 c 1,90,-1
 104 175 l 2,91,92
 112 188 112 188 123 195 c 128,-1,93
 134 202 134 202 152 202 c 256,94,95
 170 202 170 202 190 188 c 128,-1,96
 210 174 210 174 238.5 157 c 128,-1,97
 267 140 267 140 307.5 126 c 128,-1,98
 348 112 348 112 409 112 c 0,99,100
 461 112 461 112 500 125.5 c 128,-1,101
 539 139 539 139 565 162 c 128,-1,102
 591 185 591 185 603.5 215 c 128,-1,103
 616 245 616 245 616 279 c 0,104,105
 616 321 616 321 593.5 348.5 c 128,-1,106
 571 376 571 376 534 395.5 c 128,-1,107
 497 415 497 415 449.5 429.5 c 128,-1,108
 402 444 402 444 352.5 460 c 128,-1,109
 303 476 303 476 255.5 496.5 c 128,-1,110
 208 517 208 517 171 548 c 128,-1,111
 134 579 134 579 111.5 624.5 c 128,-1,112
 89 670 89 670 89 735 c 0,113,114
 89 793 89 793 113 846.5 c 128,-1,115
 137 900 137 900 183 940.5 c 128,-1,116
 229 981 229 981 296 1005 c 128,-1,117
 363 1029 363 1029 449 1029 c 0,118,119
 549 1029 549 1029 628.5 997.5 c 128,-1,120
 708 966 708 966 766 911 c 1,121,-1
 726 846 l 2,61,62
EndSplineSet
Validated: 5
EndChar

StartChar: t
Encoding: 116 116 83
Width: 746
Flags: W
LayerCount: 2
Fore
SplineSet
453 -16 m 0,0,1
 333 -16 333 -16 268.5 51 c 128,-1,2
 204 118 204 118 204 244 c 2,3,-1
 204 864 l 1,4,-1
 82 864 l 2,5,6
 66 864 66 864 55 873.5 c 128,-1,7
 44 883 44 883 44 903 c 2,8,-1
 44 974 l 1,9,-1
 210 995 l 1,10,-1
 251 1308 l 2,11,12
 253 1323 253 1323 264 1332.5 c 128,-1,13
 275 1342 275 1342 292 1342 c 2,14,-1
 382 1342 l 1,15,-1
 382 993 l 1,16,-1
 672 993 l 1,17,-1
 672 864 l 1,18,-1
 382 864 l 1,19,-1
 382 256 l 2,20,21
 382 192 382 192 413 161 c 128,-1,22
 444 130 444 130 493 130 c 0,23,24
 521 130 521 130 541.5 137.5 c 128,-1,25
 562 145 562 145 577 154 c 128,-1,26
 592 163 592 163 602.5 170.5 c 128,-1,27
 613 178 613 178 621 178 c 0,28,29
 635 178 635 178 646 161 c 2,30,-1
 698 76 l 1,31,32
 652 33 652 33 587 8.5 c 128,-1,33
 522 -16 522 -16 453 -16 c 0,0,1
453 -16 m 0,34,35
 333 -16 333 -16 268.5 51 c 128,-1,36
 204 118 204 118 204 244 c 2,37,-1
 204 864 l 1,38,-1
 82 864 l 2,39,40
 66 864 66 864 55 873.5 c 128,-1,41
 44 883 44 883 44 903 c 2,42,-1
 44 974 l 1,43,-1
 210 995 l 1,44,-1
 251 1308 l 2,45,46
 253 1323 253 1323 264 1332.5 c 128,-1,47
 275 1342 275 1342 292 1342 c 2,48,-1
 382 1342 l 1,49,-1
 382 993 l 1,50,-1
 672 993 l 1,51,-1
 672 864 l 1,52,-1
 382 864 l 1,53,-1
 382 256 l 2,54,55
 382 192 382 192 413 161 c 128,-1,56
 444 130 444 130 493 130 c 0,57,58
 521 130 521 130 541.5 137.5 c 128,-1,59
 562 145 562 145 577 154 c 128,-1,60
 592 163 592 163 602.5 170.5 c 128,-1,61
 613 178 613 178 621 178 c 0,62,63
 635 178 635 178 646 161 c 2,64,-1
 698 76 l 1,65,66
 652 33 652 33 587 8.5 c 128,-1,67
 522 -16 522 -16 453 -16 c 0,34,35
EndSplineSet
Validated: 5
EndChar

StartChar: u
Encoding: 117 117 84
Width: 1112
Flags: W
LayerCount: 2
Fore
SplineSet
300 1013 m 1,0,-1
 300 367 l 2,1,2
 300 252 300 252 353 189 c 128,-1,3
 406 126 406 126 513 126 c 0,4,5
 591 126 591 126 660 163 c 128,-1,6
 729 200 729 200 787 266 c 1,7,-1
 787 1013 l 1,8,-1
 965 1013 l 1,9,-1
 965 0 l 1,10,-1
 859 0 l 2,11,12
 821 0 821 0 811 37 c 1,13,-1
 797 146 l 1,14,15
 731 73 731 73 649 28.5 c 128,-1,16
 567 -16 567 -16 461 -16 c 0,17,18
 378 -16 378 -16 314.5 11.5 c 128,-1,19
 251 39 251 39 208 89 c 128,-1,20
 165 139 165 139 143.5 210 c 128,-1,21
 122 281 122 281 122 367 c 2,22,-1
 122 1013 l 1,23,-1
 300 1013 l 1,0,-1
300 1013 m 1,24,-1
 300 367 l 2,25,26
 300 252 300 252 353 189 c 128,-1,27
 406 126 406 126 513 126 c 0,28,29
 591 126 591 126 660 163 c 128,-1,30
 729 200 729 200 787 266 c 1,31,-1
 787 1013 l 1,32,-1
 965 1013 l 1,33,-1
 965 0 l 1,34,-1
 859 0 l 2,35,36
 821 0 821 0 811 37 c 1,37,-1
 797 146 l 1,38,39
 731 73 731 73 649 28.5 c 128,-1,40
 567 -16 567 -16 461 -16 c 0,41,42
 378 -16 378 -16 314.5 11.5 c 128,-1,43
 251 39 251 39 208 89 c 128,-1,44
 165 139 165 139 143.5 210 c 128,-1,45
 122 281 122 281 122 367 c 2,46,-1
 122 1013 l 1,47,-1
 300 1013 l 1,24,-1
EndSplineSet
Validated: 5
EndChar

StartChar: v
Encoding: 118 118 85
Width: 1024
Flags: W
LayerCount: 2
Fore
SplineSet
18 1013 m 1,0,-1
 164 1013 l 2,1,2
 185 1013 185 1013 199 1002 c 128,-1,3
 213 991 213 991 219 976 c 2,4,-1
 476 324 l 2,5,6
 490 288 490 288 498 252 c 128,-1,7
 506 216 506 216 513 181 c 1,8,9
 521 216 521 216 530 252 c 128,-1,10
 539 288 539 288 553 324 c 2,11,-1
 813 976 l 2,12,13
 819 992 819 992 832.5 1002.5 c 128,-1,14
 846 1013 846 1013 866 1013 c 2,15,-1
 1005 1013 l 1,16,-1
 592 0 l 1,17,-1
 431 0 l 1,18,-1
 18 1013 l 1,0,-1
18 1013 m 1,19,-1
 164 1013 l 2,20,21
 185 1013 185 1013 199 1002 c 128,-1,22
 213 991 213 991 219 976 c 2,23,-1
 476 324 l 2,24,25
 490 288 490 288 498 252 c 128,-1,26
 506 216 506 216 513 181 c 1,27,28
 521 216 521 216 530 252 c 128,-1,29
 539 288 539 288 553 324 c 2,30,-1
 813 976 l 2,31,32
 819 992 819 992 832.5 1002.5 c 128,-1,33
 846 1013 846 1013 866 1013 c 2,34,-1
 1005 1013 l 1,35,-1
 592 0 l 1,36,-1
 431 0 l 1,37,-1
 18 1013 l 1,19,-1
EndSplineSet
Validated: 5
EndChar

StartChar: w
Encoding: 119 119 86
Width: 1532
Flags: W
LayerCount: 2
Fore
SplineSet
14 1013 m 1,0,-1
 154 1013 l 2,1,2
 176 1013 176 1013 190 1002 c 128,-1,3
 204 991 204 991 209 976 c 2,4,-1
 403 324 l 2,5,6
 411 288 411 288 418 254.5 c 128,-1,7
 425 221 425 221 430 187 c 1,8,9
 438 221 438 221 448 254.5 c 128,-1,10
 458 288 458 288 469 324 c 2,11,-1
 683 980 l 2,12,13
 688 995 688 995 700.5 1005 c 128,-1,14
 713 1015 713 1015 732 1015 c 2,15,-1
 809 1015 l 2,16,17
 829 1015 829 1015 842 1005 c 128,-1,18
 855 995 855 995 860 980 c 2,19,-1
 1069 324 l 2,20,21
 1080 289 1080 289 1088.5 255 c 128,-1,22
 1097 221 1097 221 1105 188 c 1,23,24
 1110 221 1110 221 1118 257 c 128,-1,25
 1126 293 1126 293 1135 324 c 2,26,-1
 1333 976 l 2,27,28
 1338 992 1338 992 1352 1002.5 c 128,-1,29
 1366 1013 1366 1013 1385 1013 c 2,30,-1
 1519 1013 l 1,31,-1
 1191 0 l 1,32,-1
 1050 0 l 2,33,34
 1024 0 1024 0 1014 34 c 2,35,-1
 790 721 l 2,36,37
 782 744 782 744 777 767.5 c 128,-1,38
 772 791 772 791 767 814 c 1,39,40
 762 791 762 791 757 767 c 128,-1,41
 752 743 752 743 744 720 c 2,42,-1
 517 34 l 2,43,44
 506 0 506 0 476 0 c 2,45,-1
 342 0 l 1,46,-1
 14 1013 l 1,0,-1
14 1013 m 1,47,-1
 154 1013 l 2,48,49
 176 1013 176 1013 190 1002 c 128,-1,50
 204 991 204 991 209 976 c 2,51,-1
 403 324 l 2,52,53
 411 288 411 288 418 254.5 c 128,-1,54
 425 221 425 221 430 187 c 1,55,56
 438 221 438 221 448 254.5 c 128,-1,57
 458 288 458 288 469 324 c 2,58,-1
 683 980 l 2,59,60
 688 995 688 995 700.5 1005 c 128,-1,61
 713 1015 713 1015 732 1015 c 2,62,-1
 809 1015 l 2,63,64
 829 1015 829 1015 842 1005 c 128,-1,65
 855 995 855 995 860 980 c 2,66,-1
 1069 324 l 2,67,68
 1080 289 1080 289 1088.5 255 c 128,-1,69
 1097 221 1097 221 1105 188 c 1,70,71
 1110 221 1110 221 1118 257 c 128,-1,72
 1126 293 1126 293 1135 324 c 2,73,-1
 1333 976 l 2,74,75
 1338 992 1338 992 1352 1002.5 c 128,-1,76
 1366 1013 1366 1013 1385 1013 c 2,77,-1
 1519 1013 l 1,78,-1
 1191 0 l 1,79,-1
 1050 0 l 2,80,81
 1024 0 1024 0 1014 34 c 2,82,-1
 790 721 l 2,83,84
 782 744 782 744 777 767.5 c 128,-1,85
 772 791 772 791 767 814 c 1,86,87
 762 791 762 791 757 767 c 128,-1,88
 752 743 752 743 744 720 c 2,89,-1
 517 34 l 2,90,91
 506 0 506 0 476 0 c 2,92,-1
 342 0 l 1,93,-1
 14 1013 l 1,47,-1
EndSplineSet
Validated: 5
EndChar

StartChar: x
Encoding: 120 120 87
Width: 1008
Flags: W
LayerCount: 2
Fore
SplineSet
383 519 m 1,0,-1
 42 1013 l 1,1,-1
 213 1013 l 2,2,3
 235 1013 235 1013 245 1006 c 128,-1,4
 255 999 255 999 263 986 c 2,5,-1
 511 606 l 1,6,7
 520 634 520 634 537 662 c 2,8,-1
 755 982 l 2,9,10
 765 996 765 996 775 1004.5 c 128,-1,11
 785 1013 785 1013 800 1013 c 2,12,-1
 964 1013 l 1,13,-1
 623 529 l 1,14,-1
 978 0 l 1,15,-1
 807 0 l 2,16,17
 785 0 785 0 772.5 11.5 c 128,-1,18
 760 23 760 23 752 37 c 2,19,-1
 497 434 l 1,20,21
 490 405 490 405 476 382 c 2,22,-1
 240 37 l 2,23,24
 230 23 230 23 218.5 11.5 c 128,-1,25
 207 0 207 0 187 0 c 2,26,-1
 28 0 l 1,27,-1
 383 519 l 1,0,-1
383 519 m 1,28,-1
 42 1013 l 1,29,-1
 213 1013 l 2,30,31
 235 1013 235 1013 245 1006 c 128,-1,32
 255 999 255 999 263 986 c 2,33,-1
 511 606 l 1,34,35
 520 634 520 634 537 662 c 2,36,-1
 755 982 l 2,37,38
 765 996 765 996 775 1004.5 c 128,-1,39
 785 1013 785 1013 800 1013 c 2,40,-1
 964 1013 l 1,41,-1
 623 529 l 1,42,-1
 978 0 l 1,43,-1
 807 0 l 2,44,45
 785 0 785 0 772.5 11.5 c 128,-1,46
 760 23 760 23 752 37 c 2,47,-1
 497 434 l 1,48,49
 490 405 490 405 476 382 c 2,50,-1
 240 37 l 2,51,52
 230 23 230 23 218.5 11.5 c 128,-1,53
 207 0 207 0 187 0 c 2,54,-1
 28 0 l 1,55,-1
 383 519 l 1,28,-1
EndSplineSet
Validated: 5
EndChar

StartChar: y
Encoding: 121 121 88
Width: 1024
Flags: W
LayerCount: 2
Fore
SplineSet
443 -299 m 2,0,1
 434 -319 434 -319 420.5 -331 c 128,-1,2
 407 -343 407 -343 379 -343 c 2,3,-1
 247 -343 l 1,4,-1
 432 59 l 1,5,-1
 14 1013 l 1,6,-1
 168 1013 l 2,7,8
 191 1013 191 1013 204 1001.5 c 128,-1,9
 217 990 217 990 223 976 c 2,10,-1
 494 338 l 2,11,12
 503 316 503 316 509.5 294 c 128,-1,13
 516 272 516 272 521 249 c 1,14,15
 528 272 528 272 535 294 c 128,-1,16
 542 316 542 316 551 339 c 2,17,-1
 814 976 l 2,18,19
 820 992 820 992 834.5 1002.5 c 128,-1,20
 849 1013 849 1013 866 1013 c 2,21,-1
 1008 1013 l 1,22,-1
 443 -299 l 2,0,1
443 -299 m 2,23,24
 434 -319 434 -319 420.5 -331 c 128,-1,25
 407 -343 407 -343 379 -343 c 2,26,-1
 247 -343 l 1,27,-1
 432 59 l 1,28,-1
 14 1013 l 1,29,-1
 168 1013 l 2,30,31
 191 1013 191 1013 204 1001.5 c 128,-1,32
 217 990 217 990 223 976 c 2,33,-1
 494 338 l 2,34,35
 503 316 503 316 509.5 294 c 128,-1,36
 516 272 516 272 521 249 c 1,37,38
 528 272 528 272 535 294 c 128,-1,39
 542 316 542 316 551 339 c 2,40,-1
 814 976 l 2,41,42
 820 992 820 992 834.5 1002.5 c 128,-1,43
 849 1013 849 1013 866 1013 c 2,44,-1
 1008 1013 l 1,45,-1
 443 -299 l 2,23,24
EndSplineSet
Validated: 5
EndChar

StartChar: z
Encoding: 122 122 89
Width: 924
Flags: W
LayerCount: 2
Fore
SplineSet
853 937 m 2,0,1
 853 918 853 918 846 900.5 c 128,-1,2
 839 883 839 883 828 869 c 2,3,-1
 280 139 l 1,4,-1
 833 139 l 1,5,-1
 833 0 l 1,6,-1
 70 0 l 1,7,-1
 70 74 l 2,8,9
 70 87 70 87 76.5 104.5 c 128,-1,10
 83 122 83 122 95 138 c 2,11,-1
 646 873 l 1,12,-1
 101 873 l 1,13,-1
 101 1013 l 1,14,-1
 853 1013 l 1,15,-1
 853 937 l 2,0,1
853 937 m 2,16,17
 853 918 853 918 846 900.5 c 128,-1,18
 839 883 839 883 828 869 c 2,19,-1
 280 139 l 1,20,-1
 833 139 l 1,21,-1
 833 0 l 1,22,-1
 70 0 l 1,23,-1
 70 74 l 2,24,25
 70 87 70 87 76.5 104.5 c 128,-1,26
 83 122 83 122 95 138 c 2,27,-1
 646 873 l 1,28,-1
 101 873 l 1,29,-1
 101 1013 l 1,30,-1
 853 1013 l 1,31,-1
 853 937 l 2,16,17
EndSplineSet
Validated: 5
EndChar

StartChar: braceleft
Encoding: 123 123 90
Width: 600
Flags: W
LayerCount: 2
Fore
SplineSet
181 425 m 0,0,1
 181 488 181 488 146 528.5 c 128,-1,2
 111 569 111 569 44 569 c 1,3,-1
 44 676 l 1,4,5
 111 676 111 676 146 716 c 128,-1,6
 181 756 181 756 181 820 c 0,7,8
 181 870 181 870 173 919 c 128,-1,9
 165 968 165 968 155.5 1017 c 128,-1,10
 146 1066 146 1066 138 1116 c 128,-1,11
 130 1166 130 1166 130 1218 c 0,12,13
 130 1287 130 1287 150.5 1345 c 128,-1,14
 171 1403 171 1403 212.5 1445 c 128,-1,15
 254 1487 254 1487 315.5 1510 c 128,-1,16
 377 1533 377 1533 459 1533 c 2,17,-1
 512 1533 l 1,18,-1
 512 1454 l 2,19,20
 512 1434 512 1434 498 1425 c 128,-1,21
 484 1416 484 1416 472 1416 c 2,22,-1
 452 1416 l 2,23,24
 375 1416 375 1416 330.5 1365.5 c 128,-1,25
 286 1315 286 1315 286 1229 c 0,26,27
 286 1173 286 1173 293 1121 c 128,-1,28
 300 1069 300 1069 309 1019.5 c 128,-1,29
 318 970 318 970 325 921 c 128,-1,30
 332 872 332 872 332 822 c 0,31,32
 332 784 332 784 321 751.5 c 128,-1,33
 310 719 310 719 289.5 693.5 c 128,-1,34
 269 668 269 668 241.5 649.5 c 128,-1,35
 214 631 214 631 181 622 c 1,36,37
 214 613 214 613 241.5 594.5 c 128,-1,38
 269 576 269 576 289.5 550 c 128,-1,39
 310 524 310 524 321 492 c 128,-1,40
 332 460 332 460 332 423 c 0,41,42
 332 373 332 373 325 324 c 128,-1,43
 318 275 318 275 309 225.5 c 128,-1,44
 300 176 300 176 293 124 c 128,-1,45
 286 72 286 72 286 16 c 0,46,47
 286 -71 286 -71 330.5 -121 c 128,-1,48
 375 -171 375 -171 452 -171 c 2,49,-1
 472 -171 l 2,50,51
 484 -171 484 -171 498 -180 c 128,-1,52
 512 -189 512 -189 512 -209 c 2,53,-1
 512 -289 l 1,54,-1
 459 -289 l 2,55,56
 377 -289 377 -289 315.5 -265.5 c 128,-1,57
 254 -242 254 -242 212.5 -200 c 128,-1,58
 171 -158 171 -158 150.5 -100 c 128,-1,59
 130 -42 130 -42 130 27 c 0,60,61
 130 79 130 79 138 128.5 c 128,-1,62
 146 178 146 178 155.5 227.5 c 128,-1,63
 165 277 165 277 173 326 c 128,-1,64
 181 375 181 375 181 425 c 0,0,1
181 425 m 0,65,66
 181 488 181 488 146 528.5 c 128,-1,67
 111 569 111 569 44 569 c 1,68,-1
 44 676 l 1,69,70
 111 676 111 676 146 716 c 128,-1,71
 181 756 181 756 181 820 c 0,72,73
 181 870 181 870 173 919 c 128,-1,74
 165 968 165 968 155.5 1017 c 128,-1,75
 146 1066 146 1066 138 1116 c 128,-1,76
 130 1166 130 1166 130 1218 c 0,77,78
 130 1287 130 1287 150.5 1345 c 128,-1,79
 171 1403 171 1403 212.5 1445 c 128,-1,80
 254 1487 254 1487 315.5 1510 c 128,-1,81
 377 1533 377 1533 459 1533 c 2,82,-1
 512 1533 l 1,83,-1
 512 1454 l 2,84,85
 512 1434 512 1434 498 1425 c 128,-1,86
 484 1416 484 1416 472 1416 c 2,87,-1
 452 1416 l 2,88,89
 375 1416 375 1416 330.5 1365.5 c 128,-1,90
 286 1315 286 1315 286 1229 c 0,91,92
 286 1173 286 1173 293 1121 c 128,-1,93
 300 1069 300 1069 309 1019.5 c 128,-1,94
 318 970 318 970 325 921 c 128,-1,95
 332 872 332 872 332 822 c 0,96,97
 332 784 332 784 321 751.5 c 128,-1,98
 310 719 310 719 289.5 693.5 c 128,-1,99
 269 668 269 668 241.5 649.5 c 128,-1,100
 214 631 214 631 181 622 c 1,101,102
 214 613 214 613 241.5 594.5 c 128,-1,103
 269 576 269 576 289.5 550 c 128,-1,104
 310 524 310 524 321 492 c 128,-1,105
 332 460 332 460 332 423 c 0,106,107
 332 373 332 373 325 324 c 128,-1,108
 318 275 318 275 309 225.5 c 128,-1,109
 300 176 300 176 293 124 c 128,-1,110
 286 72 286 72 286 16 c 0,111,112
 286 -71 286 -71 330.5 -121 c 128,-1,113
 375 -171 375 -171 452 -171 c 2,114,-1
 472 -171 l 2,115,116
 484 -171 484 -171 498 -180 c 128,-1,117
 512 -189 512 -189 512 -209 c 2,118,-1
 512 -289 l 1,119,-1
 459 -289 l 2,120,121
 377 -289 377 -289 315.5 -265.5 c 128,-1,122
 254 -242 254 -242 212.5 -200 c 128,-1,123
 171 -158 171 -158 150.5 -100 c 128,-1,124
 130 -42 130 -42 130 27 c 0,125,126
 130 79 130 79 138 128.5 c 128,-1,127
 146 178 146 178 155.5 227.5 c 128,-1,128
 165 277 165 277 173 326 c 128,-1,129
 181 375 181 375 181 425 c 0,65,66
EndSplineSet
Validated: 5
EndChar

StartChar: bar
Encoding: 124 124 91
Width: 600
Flags: W
LayerCount: 2
Fore
SplineSet
230 1533 m 1,0,-1
 368 1533 l 1,1,-1
 368 -343 l 1,2,-1
 230 -343 l 1,3,-1
 230 1533 l 1,0,-1
230 1533 m 1,4,-1
 368 1533 l 1,5,-1
 368 -343 l 1,6,-1
 230 -343 l 1,7,-1
 230 1533 l 1,4,-1
EndSplineSet
Validated: 5
EndChar

StartChar: braceright
Encoding: 125 125 92
Width: 600
Flags: W
LayerCount: 2
Fore
SplineSet
419 425 m 0,0,1
 419 375 419 375 427 326 c 128,-1,2
 435 277 435 277 444.5 227.5 c 128,-1,3
 454 178 454 178 462 128.5 c 128,-1,4
 470 79 470 79 470 27 c 0,5,6
 470 -42 470 -42 449 -100 c 128,-1,7
 428 -158 428 -158 387 -200 c 128,-1,8
 346 -242 346 -242 284.5 -265.5 c 128,-1,9
 223 -289 223 -289 141 -289 c 2,10,-1
 88 -289 l 1,11,-1
 88 -209 l 2,12,13
 88 -189 88 -189 102 -180 c 128,-1,14
 116 -171 116 -171 128 -171 c 2,15,-1
 148 -171 l 2,16,17
 225 -171 225 -171 269.5 -121 c 128,-1,18
 314 -71 314 -71 314 16 c 0,19,20
 314 72 314 72 307 124 c 128,-1,21
 300 176 300 176 291 225.5 c 128,-1,22
 282 275 282 275 275 324 c 128,-1,23
 268 373 268 373 268 423 c 0,24,25
 268 460 268 460 279 492 c 128,-1,26
 290 524 290 524 310.5 550 c 128,-1,27
 331 576 331 576 358.5 594.5 c 128,-1,28
 386 613 386 613 419 622 c 1,29,30
 386 631 386 631 358.5 649.5 c 128,-1,31
 331 668 331 668 310.5 693.5 c 128,-1,32
 290 719 290 719 279 751.5 c 128,-1,33
 268 784 268 784 268 822 c 0,34,35
 268 872 268 872 275 921 c 128,-1,36
 282 970 282 970 291 1019.5 c 128,-1,37
 300 1069 300 1069 307 1121 c 128,-1,38
 314 1173 314 1173 314 1229 c 0,39,40
 314 1315 314 1315 269.5 1365.5 c 128,-1,41
 225 1416 225 1416 148 1416 c 2,42,-1
 128 1416 l 2,43,44
 116 1416 116 1416 102 1425 c 128,-1,45
 88 1434 88 1434 88 1454 c 2,46,-1
 88 1533 l 1,47,-1
 141 1533 l 2,48,49
 223 1533 223 1533 284.5 1510 c 128,-1,50
 346 1487 346 1487 387 1445 c 128,-1,51
 428 1403 428 1403 449 1345 c 128,-1,52
 470 1287 470 1287 470 1218 c 0,53,54
 470 1166 470 1166 462 1116 c 128,-1,55
 454 1066 454 1066 444.5 1017 c 128,-1,56
 435 968 435 968 427 919 c 128,-1,57
 419 870 419 870 419 820 c 0,58,59
 419 756 419 756 454 716 c 128,-1,60
 489 676 489 676 556 676 c 1,61,-1
 556 569 l 1,62,63
 489 569 489 569 454 528.5 c 128,-1,64
 419 488 419 488 419 425 c 0,0,1
419 425 m 0,65,66
 419 375 419 375 427 326 c 128,-1,67
 435 277 435 277 444.5 227.5 c 128,-1,68
 454 178 454 178 462 128.5 c 128,-1,69
 470 79 470 79 470 27 c 0,70,71
 470 -42 470 -42 449 -100 c 128,-1,72
 428 -158 428 -158 387 -200 c 128,-1,73
 346 -242 346 -242 284.5 -265.5 c 128,-1,74
 223 -289 223 -289 141 -289 c 2,75,-1
 88 -289 l 1,76,-1
 88 -209 l 2,77,78
 88 -189 88 -189 102 -180 c 128,-1,79
 116 -171 116 -171 128 -171 c 2,80,-1
 148 -171 l 2,81,82
 225 -171 225 -171 269.5 -121 c 128,-1,83
 314 -71 314 -71 314 16 c 0,84,85
 314 72 314 72 307 124 c 128,-1,86
 300 176 300 176 291 225.5 c 128,-1,87
 282 275 282 275 275 324 c 128,-1,88
 268 373 268 373 268 423 c 0,89,90
 268 460 268 460 279 492 c 128,-1,91
 290 524 290 524 310.5 550 c 128,-1,92
 331 576 331 576 358.5 594.5 c 128,-1,93
 386 613 386 613 419 622 c 1,94,95
 386 631 386 631 358.5 649.5 c 128,-1,96
 331 668 331 668 310.5 693.5 c 128,-1,97
 290 719 290 719 279 751.5 c 128,-1,98
 268 784 268 784 268 822 c 0,99,100
 268 872 268 872 275 921 c 128,-1,101
 282 970 282 970 291 1019.5 c 128,-1,102
 300 1069 300 1069 307 1121 c 128,-1,103
 314 1173 314 1173 314 1229 c 0,104,105
 314 1315 314 1315 269.5 1365.5 c 128,-1,106
 225 1416 225 1416 148 1416 c 2,107,-1
 128 1416 l 2,108,109
 116 1416 116 1416 102 1425 c 128,-1,110
 88 1434 88 1434 88 1454 c 2,111,-1
 88 1533 l 1,112,-1
 141 1533 l 2,113,114
 223 1533 223 1533 284.5 1510 c 128,-1,115
 346 1487 346 1487 387 1445 c 128,-1,116
 428 1403 428 1403 449 1345 c 128,-1,117
 470 1287 470 1287 470 1218 c 0,118,119
 470 1166 470 1166 462 1116 c 128,-1,120
 454 1066 454 1066 444.5 1017 c 128,-1,121
 435 968 435 968 427 919 c 128,-1,122
 419 870 419 870 419 820 c 0,123,124
 419 756 419 756 454 716 c 128,-1,125
 489 676 489 676 556 676 c 1,126,-1
 556 569 l 1,127,128
 489 569 489 569 454 528.5 c 128,-1,129
 419 488 419 488 419 425 c 0,65,66
EndSplineSet
Validated: 5
EndChar

StartChar: asciitilde
Encoding: 126 126 93
Width: 1160
Flags: W
LayerCount: 2
Fore
SplineSet
759 613 m 0,0,1
 824 613 824 613 860.5 655.5 c 128,-1,2
 897 698 897 698 898 768 c 1,3,-1
 1042 768 l 1,4,5
 1042 701 1042 701 1023.5 645 c 128,-1,6
 1005 589 1005 589 970.5 549 c 128,-1,7
 936 509 936 509 885 487 c 128,-1,8
 834 465 834 465 770 465 c 0,9,10
 718 465 718 465 667 481 c 128,-1,11
 616 497 616 497 568.5 516.5 c 128,-1,12
 521 536 521 536 478 552.5 c 128,-1,13
 435 569 435 569 399 569 c 0,14,15
 334 569 334 569 297.5 527 c 128,-1,16
 261 485 261 485 260 414 c 1,17,-1
 116 414 l 1,18,19
 116 481 116 481 134.5 537 c 128,-1,20
 153 593 153 593 187.5 633 c 128,-1,21
 222 673 222 673 272.5 695.5 c 128,-1,22
 323 718 323 718 388 718 c 0,23,24
 440 718 440 718 491 701.5 c 128,-1,25
 542 685 542 685 589.5 665.5 c 128,-1,26
 637 646 637 646 680 629.5 c 128,-1,27
 723 613 723 613 759 613 c 0,0,1
759 613 m 0,28,29
 824 613 824 613 860.5 655.5 c 128,-1,30
 897 698 897 698 898 768 c 1,31,-1
 1042 768 l 1,32,33
 1042 701 1042 701 1023.5 645 c 128,-1,34
 1005 589 1005 589 970.5 549 c 128,-1,35
 936 509 936 509 885 487 c 128,-1,36
 834 465 834 465 770 465 c 0,37,38
 718 465 718 465 667 481 c 128,-1,39
 616 497 616 497 568.5 516.5 c 128,-1,40
 521 536 521 536 478 552.5 c 128,-1,41
 435 569 435 569 399 569 c 0,42,43
 334 569 334 569 297.5 527 c 128,-1,44
 261 485 261 485 260 414 c 1,45,-1
 116 414 l 1,46,47
 116 481 116 481 134.5 537 c 128,-1,48
 153 593 153 593 187.5 633 c 128,-1,49
 222 673 222 673 272.5 695.5 c 128,-1,50
 323 718 323 718 388 718 c 0,51,52
 440 718 440 718 491 701.5 c 128,-1,53
 542 685 542 685 589.5 665.5 c 128,-1,54
 637 646 637 646 680 629.5 c 128,-1,55
 723 613 723 613 759 613 c 0,28,29
EndSplineSet
Validated: 5
EndChar

StartChar: exclamdown
Encoding: 161 161 94
Width: 686
Flags: W
LayerCount: 2
Fore
SplineSet
262 -343 m 1,0,-1
 262 198 l 2,1,2
 262 243 262 243 263.5 285.5 c 128,-1,3
 265 328 265 328 268 371.5 c 128,-1,4
 271 415 271 415 275.5 461 c 128,-1,5
 280 507 280 507 286 559 c 1,6,-1
 407 559 l 1,7,8
 413 507 413 507 417.5 461 c 128,-1,9
 422 415 422 415 425 371.5 c 128,-1,10
 428 328 428 328 429.5 285.5 c 128,-1,11
 431 243 431 243 431 198 c 2,12,-1
 431 -343 l 1,13,-1
 262 -343 l 1,0,-1
218 904 m 0,14,15
 218 931 218 931 227.5 953.5 c 128,-1,16
 237 976 237 976 254 993 c 128,-1,17
 271 1010 271 1010 293.5 1019.5 c 128,-1,18
 316 1029 316 1029 343 1029 c 0,19,20
 369 1029 369 1029 391.5 1019.5 c 128,-1,21
 414 1010 414 1010 431 993 c 128,-1,22
 448 976 448 976 458 953.5 c 128,-1,23
 468 931 468 931 468 904 c 0,24,25
 468 878 468 878 458 855 c 128,-1,26
 448 832 448 832 431 815 c 128,-1,27
 414 798 414 798 391.5 788 c 128,-1,28
 369 778 369 778 343 778 c 0,29,30
 316 778 316 778 293.5 788 c 128,-1,31
 271 798 271 798 254 815 c 128,-1,32
 237 832 237 832 227.5 855 c 128,-1,33
 218 878 218 878 218 904 c 0,14,15
262 -343 m 1,34,-1
 262 198 l 2,35,36
 262 243 262 243 263.5 285.5 c 128,-1,37
 265 328 265 328 268 371.5 c 128,-1,38
 271 415 271 415 275.5 461 c 128,-1,39
 280 507 280 507 286 559 c 1,40,-1
 407 559 l 1,41,42
 413 507 413 507 417.5 461 c 128,-1,43
 422 415 422 415 425 371.5 c 128,-1,44
 428 328 428 328 429.5 285.5 c 128,-1,45
 431 243 431 243 431 198 c 2,46,-1
 431 -343 l 1,47,-1
 262 -343 l 1,34,-1
218 904 m 0,48,49
 218 931 218 931 227.5 953.5 c 128,-1,50
 237 976 237 976 254 993 c 128,-1,51
 271 1010 271 1010 293.5 1019.5 c 128,-1,52
 316 1029 316 1029 343 1029 c 0,53,54
 369 1029 369 1029 391.5 1019.5 c 128,-1,55
 414 1010 414 1010 431 993 c 128,-1,56
 448 976 448 976 458 953.5 c 128,-1,57
 468 931 468 931 468 904 c 0,58,59
 468 878 468 878 458 855 c 128,-1,60
 448 832 448 832 431 815 c 128,-1,61
 414 798 414 798 391.5 788 c 128,-1,62
 369 778 369 778 343 778 c 0,63,64
 316 778 316 778 293.5 788 c 128,-1,65
 271 798 271 798 254 815 c 128,-1,66
 237 832 237 832 227.5 855 c 128,-1,67
 218 878 218 878 218 904 c 0,48,49
EndSplineSet
Validated: 5
EndChar

StartChar: cent
Encoding: 162 162 95
Width: 1160
Flags: W
LayerCount: 2
Fore
SplineSet
561 -11 m 1,0,1
 469 -1 469 -1 391.5 38.5 c 128,-1,2
 314 78 314 78 257.5 144 c 128,-1,3
 201 210 201 210 169.5 301 c 128,-1,4
 138 392 138 392 138 506 c 0,5,6
 138 617 138 617 171 710.5 c 128,-1,7
 204 804 204 804 267 873 c 128,-1,8
 330 942 330 942 422 982.5 c 128,-1,9
 514 1023 514 1023 633 1026 c 1,10,-1
 645 1205 l 2,11,12
 647 1225 647 1225 660.5 1239.5 c 128,-1,13
 674 1254 674 1254 695 1254 c 2,14,-1
 761 1254 l 1,15,-1
 745 1021 l 1,16,17
 827 1009 827 1009 893 977.5 c 128,-1,18
 959 946 959 946 1013 897 c 1,19,-1
 967 835 l 2,20,21
 959 824 959 824 951.5 818.5 c 128,-1,22
 944 813 944 813 930 813 c 0,23,24
 918 813 918 813 901.5 821.5 c 128,-1,25
 885 830 885 830 862.5 842 c 128,-1,26
 840 854 840 854 808.5 866 c 128,-1,27
 777 878 777 878 735 885 c 1,28,-1
 683 123 l 1,29,30
 746 127 746 127 788.5 142.5 c 128,-1,31
 831 158 831 158 860.5 175 c 128,-1,32
 890 192 890 192 909 206 c 128,-1,33
 928 220 928 220 944 220 c 0,34,35
 955 220 955 220 964 215.5 c 128,-1,36
 973 211 973 211 978 204 c 2,37,-1
 1026 141 l 1,38,39
 966 69 966 69 873.5 32 c 128,-1,40
 781 -5 781 -5 674 -12 c 1,41,-1
 662 -187 l 2,42,43
 660 -206 660 -206 646.5 -220.5 c 128,-1,44
 633 -235 633 -235 612 -235 c 2,45,-1
 546 -235 l 1,46,-1
 561 -11 l 1,0,1
315 506 m 0,47,48
 315 344 315 344 382.5 248 c 128,-1,49
 450 152 450 152 571 129 c 1,50,-1
 623 889 l 1,51,52
 547 883 547 883 489.5 854.5 c 128,-1,53
 432 826 432 826 393 776.5 c 128,-1,54
 354 727 354 727 334.5 659 c 128,-1,55
 315 591 315 591 315 506 c 0,47,48
561 -11 m 1,56,57
 469 -1 469 -1 391.5 38.5 c 128,-1,58
 314 78 314 78 257.5 144 c 128,-1,59
 201 210 201 210 169.5 301 c 128,-1,60
 138 392 138 392 138 506 c 0,61,62
 138 617 138 617 171 710.5 c 128,-1,63
 204 804 204 804 267 873 c 128,-1,64
 330 942 330 942 422 982.5 c 128,-1,65
 514 1023 514 1023 633 1026 c 1,66,-1
 645 1205 l 2,67,68
 647 1225 647 1225 660.5 1239.5 c 128,-1,69
 674 1254 674 1254 695 1254 c 2,70,-1
 761 1254 l 1,71,-1
 745 1021 l 1,72,73
 827 1009 827 1009 893 977.5 c 128,-1,74
 959 946 959 946 1013 897 c 1,75,-1
 967 835 l 2,76,77
 959 824 959 824 951.5 818.5 c 128,-1,78
 944 813 944 813 930 813 c 0,79,80
 918 813 918 813 901.5 821.5 c 128,-1,81
 885 830 885 830 862.5 842 c 128,-1,82
 840 854 840 854 808.5 866 c 128,-1,83
 777 878 777 878 735 885 c 1,84,-1
 683 123 l 1,85,86
 746 127 746 127 788.5 142.5 c 128,-1,87
 831 158 831 158 860.5 175 c 128,-1,88
 890 192 890 192 909 206 c 128,-1,89
 928 220 928 220 944 220 c 0,90,91
 955 220 955 220 964 215.5 c 128,-1,92
 973 211 973 211 978 204 c 2,93,-1
 1026 141 l 1,94,95
 966 69 966 69 873.5 32 c 128,-1,96
 781 -5 781 -5 674 -12 c 1,97,-1
 662 -187 l 2,98,99
 660 -206 660 -206 646.5 -220.5 c 128,-1,100
 633 -235 633 -235 612 -235 c 2,101,-1
 546 -235 l 1,102,-1
 561 -11 l 1,56,57
315 506 m 0,103,104
 315 344 315 344 382.5 248 c 128,-1,105
 450 152 450 152 571 129 c 1,106,-1
 623 889 l 1,107,108
 547 883 547 883 489.5 854.5 c 128,-1,109
 432 826 432 826 393 776.5 c 128,-1,110
 354 727 354 727 334.5 659 c 128,-1,111
 315 591 315 591 315 506 c 0,103,104
EndSplineSet
Validated: 5
EndChar

StartChar: sterling
Encoding: 163 163 96
Width: 1160
Flags: W
LayerCount: 2
Fore
SplineSet
52 672 m 2,0,1
 52 698 52 698 68 716 c 128,-1,2
 84 734 84 734 113 734 c 2,3,-1
 247 734 l 1,4,-1
 247 995 l 2,5,6
 247 1089 247 1089 274 1171.5 c 128,-1,7
 301 1254 301 1254 356 1315.5 c 128,-1,8
 411 1377 411 1377 493 1412.5 c 128,-1,9
 575 1448 575 1448 685 1448 c 0,10,11
 763 1448 763 1448 823.5 1428.5 c 128,-1,12
 884 1409 884 1409 931 1375 c 128,-1,13
 978 1341 978 1341 1012.5 1296 c 128,-1,14
 1047 1251 1047 1251 1071 1199 c 1,15,-1
 999 1153 l 2,16,17
 989 1147 989 1147 978.5 1144.5 c 128,-1,18
 968 1142 968 1142 958 1142 c 0,19,20
 944 1142 944 1142 931.5 1147.5 c 128,-1,21
 919 1153 919 1153 908 1167 c 0,22,23
 888 1192 888 1192 867.5 1215.5 c 128,-1,24
 847 1239 847 1239 821.5 1256.5 c 128,-1,25
 796 1274 796 1274 763 1284.5 c 128,-1,26
 730 1295 730 1295 685 1295 c 0,27,28
 622 1295 622 1295 574 1274 c 128,-1,29
 526 1253 526 1253 494 1214 c 128,-1,30
 462 1175 462 1175 446 1120 c 128,-1,31
 430 1065 430 1065 430 997 c 2,32,-1
 430 734 l 1,33,-1
 871 734 l 1,34,-1
 871 662 l 2,35,36
 871 644 871 644 856 629 c 128,-1,37
 841 614 841 614 819 614 c 2,38,-1
 430 614 l 1,39,-1
 430 371 l 2,40,41
 430 296 430 296 401.5 241.5 c 128,-1,42
 373 187 373 187 323 142 c 1,43,44
 352 147 352 147 380.5 150.5 c 128,-1,45
 409 154 409 154 439 154 c 2,46,-1
 1115 154 l 1,47,-1
 1115 78 l 2,48,49
 1115 64 1115 64 1109.5 50.5 c 128,-1,50
 1104 37 1104 37 1094 25.5 c 128,-1,51
 1084 14 1084 14 1070 7 c 128,-1,52
 1056 0 1056 0 1038 0 c 2,53,-1
 74 0 l 1,54,-1
 74 115 l 1,55,56
 108 125 108 125 139 142 c 128,-1,57
 170 159 170 159 194 184.5 c 128,-1,58
 218 210 218 210 232.5 244.5 c 128,-1,59
 247 279 247 279 247 325 c 2,60,-1
 247 614 l 1,61,-1
 52 614 l 1,62,-1
 52 672 l 2,0,1
52 672 m 2,63,64
 52 698 52 698 68 716 c 128,-1,65
 84 734 84 734 113 734 c 2,66,-1
 247 734 l 1,67,-1
 247 995 l 2,68,69
 247 1089 247 1089 274 1171.5 c 128,-1,70
 301 1254 301 1254 356 1315.5 c 128,-1,71
 411 1377 411 1377 493 1412.5 c 128,-1,72
 575 1448 575 1448 685 1448 c 0,73,74
 763 1448 763 1448 823.5 1428.5 c 128,-1,75
 884 1409 884 1409 931 1375 c 128,-1,76
 978 1341 978 1341 1012.5 1296 c 128,-1,77
 1047 1251 1047 1251 1071 1199 c 1,78,-1
 999 1153 l 2,79,80
 989 1147 989 1147 978.5 1144.5 c 128,-1,81
 968 1142 968 1142 958 1142 c 0,82,83
 944 1142 944 1142 931.5 1147.5 c 128,-1,84
 919 1153 919 1153 908 1167 c 0,85,86
 888 1192 888 1192 867.5 1215.5 c 128,-1,87
 847 1239 847 1239 821.5 1256.5 c 128,-1,88
 796 1274 796 1274 763 1284.5 c 128,-1,89
 730 1295 730 1295 685 1295 c 0,90,91
 622 1295 622 1295 574 1274 c 128,-1,92
 526 1253 526 1253 494 1214 c 128,-1,93
 462 1175 462 1175 446 1120 c 128,-1,94
 430 1065 430 1065 430 997 c 2,95,-1
 430 734 l 1,96,-1
 871 734 l 1,97,-1
 871 662 l 2,98,99
 871 644 871 644 856 629 c 128,-1,100
 841 614 841 614 819 614 c 2,101,-1
 430 614 l 1,102,-1
 430 371 l 2,103,104
 430 296 430 296 401.5 241.5 c 128,-1,105
 373 187 373 187 323 142 c 1,106,107
 352 147 352 147 380.5 150.5 c 128,-1,108
 409 154 409 154 439 154 c 2,109,-1
 1115 154 l 1,110,-1
 1115 78 l 2,111,112
 1115 64 1115 64 1109.5 50.5 c 128,-1,113
 1104 37 1104 37 1094 25.5 c 128,-1,114
 1084 14 1084 14 1070 7 c 128,-1,115
 1056 0 1056 0 1038 0 c 2,116,-1
 74 0 l 1,117,-1
 74 115 l 1,118,119
 108 125 108 125 139 142 c 128,-1,120
 170 159 170 159 194 184.5 c 128,-1,121
 218 210 218 210 232.5 244.5 c 128,-1,122
 247 279 247 279 247 325 c 2,123,-1
 247 614 l 1,124,-1
 52 614 l 1,125,-1
 52 672 l 2,63,64
EndSplineSet
Validated: 5
EndChar

